<svg xmlns="http://www.w3.org/2000/svg" viewBox="0 0 1500 1500"><path fill="#c0352e" fill-rule="evenodd" d="M1189.492 265.527c28.946 9.196 55.508 23.047 79.63 41.508l3.808 2.89c25.66 20.208 44.535 44.958 61.113 72.852l1.7 2.848c20.64 35.055 30.573 76.234 36.167 116.18.145.933.285 1.87.434 2.832 1.312 9.738 1.172 19.562 1.172 29.37 0 3.098.023 6.196.05 9.294.07 17.773-1.78 34.933-5.964 52.254l-.868 3.601c-4.171 16.574-10.16 32.797-19.168 47.371l-2.125 3.727c-4.168 7.242-4.168 7.242-5.988 9.8h-2.707l-.93 2.895c-2.129 4.64-5.07 7.985-8.539 11.645l-2.015 2.152c-12.563 13.238-26.387 25.3-43.25 32.707-4.82 2.129-8.735 4.152-12.89 7.41-3.852 5.282-6.47 11.235-9.263 17.117-11.175 23.368-33.449 42.598-54.304 57.274l-2.235 1.594c-23.324 16.55-48.777 30.062-74.86 41.687l-4.14 1.875c-20.238 9.117-40.523 17.016-61.68 23.66l-4.949 1.57-4.398 1.36-3.277 1.293c-1.477 2.95-1.825 5.207-2.278 8.469l-.5 3.543-.52 3.797-.542 3.863a1159 1159 0 0 0-2.34 17.543l-.664 5.304-.555 4.645c-.734 4.34-2.008 8.188-3.422 12.348a363 363 0 0 0-1.605 8.707c-9.281 48.66-32.277 97.152-64.164 135.062-26.922 30.738-56.098 56.367-92.473 75.348l-2.664 1.398c-50.125 25.942-106.562 33.414-162.34 31.063-50.617-3.067-101.21-18.946-144.02-46.297-13.167-8.703-25.312-18.703-36.91-29.395-2.75-2.52-5.566-4.921-8.421-7.324-34.516-30.219-59.715-75.773-74.504-118.73-6.117-18.649-11.344-37.559-16.114-56.594l-3.074-.324c-59.437-6.485-128.96-18.016-178.836-52.953a326 326 0 0 1-11.496-8.942l-4.312-3.21c-4.899-4.575-8.86-9.712-12.938-15.02-3.207-3.602-5.445-5.422-9.8-7.469-4.297-1.344-8.657-2.434-13.016-3.55-29.285-7.973-53.348-22.544-74.895-43.79l-3.199-3.144c-26.074-27.282-40.723-64.887-49.973-100.832-13.117-54.27-10.691-111.371 4.528-164.899 12.535-41.726 36.996-78.902 68.027-109.187 25.156-23.426 57-41.457 89.406-52.645l3.004-1.062c6.719-2.223 12.32-2.907 19.399-2.407 3.699 1.133 6.492 2.946 9.465 5.41 3.152 4.067 5.14 7.31 6.765 12.176.746 7.32-.781 12.512-3.598 19.125-2.074 4.422-4.304 8.743-6.546 13.082-3.762 7.328-6.512 14.598-8.754 22.524-1.332 4.586-2.828 9.074-4.38 13.586-6.929 20.199-11.527 40.402-14.593 61.527l-.55 3.785c-2.31 19.117-.41 38.078 1.902 57.082 19.539-19.199 30.082-42.832 37.53-68.894 3.934-14.563 5.645-28.836 6.063-43.899l.075-2.71c.125-4.532.21-9.06.265-13.587.188-9.285.594-16.734 4.758-25.101 1.945-2.91 3.711-4.535 6.473-6.66 5.047-2.457 9.644-2.547 15.187-2.223 5.39 1.023 8.91 2.824 13.23 6.164 15.188 13.844 29.141 31.508 38.145 50.059l2.262 4.53c14.8 30.24 21.277 62.138 19.195 95.833-1.93 25.871-7.277 52.664-19.719 75.707-1.957 3.746-1.957 3.746-2.128 7.91.402 4.149 1.355 7.66 2.586 11.633 3.042 12.457.937 24.492-.844 37.027l-.512 4.282c-1.816 12.64-7.035 24.687-12.09 36.343-2.05 4.739-3.605 8.367-3.715 13.563 3.918 10.828 10.008 18.597 17.95 26.875l2.425 2.797v2.703l3.032 1.097c3.652 1.575 6.187 3.317 9.308 5.754 15.27 10.93 33.668 17.891 51.227 24.258l.191-3.73c.719-12.336 2.102-24.39 4.121-36.594l.446-2.719c10.101-61.281 27.425-126.105 56.574-181.25 2.09-4.011 3.98-8.062 5.844-12.183 7.261-15.957 15.953-31.082 24.793-46.207l1.94-3.329c32.677-55.644 75.462-107.19 131.876-139.707 29.648-16.586 61.3-21.421 94.906-21.003 12.617.246 24.332 2.043 36.367 5.785l2.79.86c40.937 13.046 76.476 41.073 105.413 72.179a452 452 0 0 1 9.06 11.011c3.108 3.864 6.315 7.625 9.534 11.391 15.985 19.219 29.5 40.004 42.266 61.457l2.133 3.57c9.668 16.286 18.261 32.887 26.168 50.09a536 536 0 0 0 3.925 8.301c17.063 35.684 30.496 72.492 40.903 110.621 1.195 4.367 2.418 8.719 3.648 13.074 4.332 15.63 7.262 30.805 8.43 46.989 24.535-9.836 46.348-27.493 63.57-47.34 4.63-5.985 8.492-12.34 12.172-18.938l1.89-3.37c3.216-6.41 4.86-12.895 5.247-20.063-.418-4.02-1.301-6.086-3.5-9.45q-2.457-3.204-4.988-6.34c-14.012-18.558-25.797-37.562-29.758-60.867-.223-3.69-.27-7.378-.336-11.074-.14-5.484-.692-9.89-3.11-14.922-2.77-4.082-5.71-7.972-8.726-11.875-19.117-28.586-33.813-62.8-36.516-97.386-.879-20.946-.949-41.774 4.055-62.22l1.254-5.19c3.172-11.364 7.777-21.922 12.781-32.594l1.828-3.934c4.875-10.074 10.64-19.015 18.965-26.586 4.29-2.855 7.164-3.383 12.344-3.719 3.777.063 5.676.383 9.215 1.946 3.671 2.879 6.785 5.71 9.886 9.215 1.715 4.312 1.715 4.312 2.946 9.175l.699 2.664q.738 2.809 1.45 5.622c1.25 4.921 2.589 9.816 3.933 14.707l.804 2.93c7.7 27.667 20.524 52.413 38.86 74.46l3.086 3.762c7.234 8.457 15.293 15.57 25.316 20.582-2.52-43.773-16.27-81.461-40.344-118.195-3.57-5.317-7.277-10.532-11.05-15.707a612 612 0 0 1-1.637-2.262 344 344 0 0 0-17.13-21.664c-4.269-5.207-7.589-9.836-9.315-16.39-.594-5.47.304-10.075 2.382-15.141 2.637-4.184 4.848-6.989 9.137-9.508 20.922-9.133 52.95.96 73.535 7.226m-10.988 42.86c-.309 4.066-.309 4.066 1.668 7.316l2.34 3.879 2.59 4.348 1.378 2.3c20.446 34.266 40.192 75.508 40.942 116.192.21 32.433.21 32.433-2.934 47.207l-.843 4.398c-1.356 6.274-2.81 11.918-6.34 17.328-3.993 4.364-6.317 5.747-11.75 8.032-4.02 1.152-8.063 2.168-12.121 3.172-19.48 4.808-37.555 9.808-52.461 23.879-4.868 5.382-9.278 10.476-11.16 17.585-1.356 8.372-.149 15.532 2.62 23.5 4.118 9.813 10.012 18.032 16.317 26.543l2.953 4.317 2.793 4.054 2.473 3.606c2.418 3.02 2.418 3.02 5.648 4.582 4.668 1.29 9.313 1.82 14.11 2.293 19.062 2.2 35.554 8.96 51.312 20.035 8.336 6.309 15.926 13.438 23.5 20.625 12.957-3.668 25.047-9.945 35.164-18.933v-2.707l2.34-.938c8.672-4.988 14.844-15.586 20.062-23.914 14.04-25.27 19.805-51.98 20.88-80.649l.167-4.378c.871-46.282-10.05-93.438-31.75-134.317-7.976-14.277-17.355-27.387-27.93-39.844l-1.792-2.14c-9.528-11.278-20.207-20.195-32.02-28.969l-3.09-2.445-2.32-1.61h-2.703v-2.707h-4.059v-2.703a2875 2875 0 0 0-12.593-6.09l-3.614-1.757-3.472-1.664-3.2-1.547c-2.941-1.368-2.941-1.368-6.875-1.118v-2.703a1029 1029 0 0 0-5.832-2.03l-3.28-1.142c-3.18-1.074-3.18-1.074-7.118-.886"/><path fill="#9c2821" fill-rule="evenodd" d="M164.129 807.484c4.988 1.485 9.543 3.383 14.203 5.664 9.063 4.23 18.563 7.024 28.125 9.891 8.398 2.563 14.93 4.91 21.059 11.395a898 898 0 0 1 4.07 4.582c20.902 23.062 48.453 36.12 77.262 46.918l3.132 1.226c11.13 4.242 22.524 7.223 34.06 10.102l3.151.793c18.543 4.656 37.184 8.172 56.079 11.07l2.925.46q3.916.61 7.828 1.188l3.727.86 1.355 2.703c-15.113-.586-29.449-3.07-44.21-6.168l-3.497-.727c-45.894-9.578-93.804-22.597-130.824-52.617l-4.312-3.21c-4.899-4.575-8.86-9.712-12.938-15.02-3.21-3.606-5.441-5.418-9.8-7.469-4.356-1.375-8.766-2.496-13.188-3.633-13.555-3.652-25.758-8.875-38.207-15.304Zm140.914-46.601 3.805.613c2.48 2.188 2.48 2.188 4.562 5.242l2.39 3.34 2.512 3.59q2.76 3.663 5.583 7.273l2.546 3.325c2.883 3.136 5.786 4.875 9.454 6.988a233 233 0 0 1 2.707 5.41c1.789.926 3.597 1.824 5.41 2.703l3 3.067c18.586 18.273 44.656 26.964 68.668 35.558l2.86 1.031c2.163.778 4.339 1.536 6.51 2.286l2.817 1.343c2.703 4.055 2.703 4.055 2.969 6.82l-.266 8.055h-1.351l-.028-2.449c-.367-3.746-.945-6.367-2.675-9.723-4.989-3.117-10.426-4.449-16.063-6q-4.83-1.5-9.648-3.043l-4.852-1.55c-18.508-6.348-35.32-16.52-50.59-28.63l-2.37-1.866c-9.598-7.602-9.598-7.602-13.86-11.66v-2.704h-2.703c-2.067-2.465-4.02-5.02-5.918-7.609l-3.16-4.281a391 391 0 0 1-8.504-12.457c-4.727.203-8.196.699-12.426 2.867-14.14 9.058-23.129 21.215-32.207 35.004l-2.707-1.352c3.46-9.789 10.258-18.496 17.414-25.953l2.875-2.453h2.703v-2.703c3.266-2.336 3.266-2.336 7.61-4.903l4.277-2.59c4.343-1.976 4.343-1.976 8.656-2.59M110.027 565.376h2.707l-.296 4.031c-3.543 51.45 1.78 102.836 24.46 149.805a661 661 0 0 0 2.887 5.766c-2.414-.829-2.414-.829-5.41-2.704-17.871-27.949-25.172-67.347-27.05-100.09-.208-6.511-.25-13.015-.255-19.527l-.05-5.004c-.016-11 1.011-21.46 3.007-32.277m390.875 302.977h2.703l.391 2.921c6.926 51.215 21.004 96.997 49.652 140.45-2.308-.774-2.308-.774-5.41-2.707a127 127 0 0 1-6.34-9.297l-1.648-2.563c-4.02-6.37-4.02-6.37-4.852-9.98l-.683-2.504-2.707-1.356a126 126 0 0 1-4.309-8.535l-1.246-2.676c-5.293-11.726-9.312-23.933-13.379-36.128l-1.457-4.286c-6.574-20.187-11.984-41.98-10.715-63.34M377.824 511.274h2.703c3.578 34.856.211 69.07-13.523 101.442H364.3c.722-4.567 1.5-9.059 2.703-13.528h2.703a1581 1581 0 0 0 2.707-14.878l.504-2.832c3.91-22.122 6.32-43.579 3.719-66.036l-.164-2.816Zm-70.332 12.172h2.707c-4.476 20.938-17.703 39.524-29.754 56.809l4.364.898c13.32 2.868 25.246 6.77 37.562 12.625l-4.058 1.356q-4.759-1.68-9.383-3.723c-7.86-3.32-15.528-5.8-23.899-7.586-3.234-.867-3.234-.867-7.293-3.57.871-4.824 2.883-8.11 5.578-12.176 7.325-11.289 14.23-22.351 18.993-34.98 1.367-3.504 2.957-6.614 5.183-9.653m32.461-101.441 4.059 1.351c17.937 21.997 30.285 50.5 35.164 78.45.168 4.816.168 4.816 0 8.113h-2.703l-.536-2.39c-.828-3.66-1.667-7.313-2.507-10.966l-.84-3.761a134 134 0 0 0-7.067-21.848c-1.43-3.465-2.562-6.969-3.59-10.57l-.995-3.438-.696-2.48h-2.707l-1.59-4.742c-2.34-6.239-5.672-11.387-9.484-16.817a893 893 0 0 1-6.508-9.55Zm252.918 110.91h2.707a88.4 88.4 0 0 1-6.14 12.969l-2.028 3.527-2.148 3.707-2.2 3.828c-3.218 5.606-6.457 11.2-9.707 16.782-4.824 8.316-9.265 16.57-12.945 25.46l-2.703-1.351c1.73-5.766 4.02-10.91 6.766-16.234 1.183-2.372 2.21-4.817 3.207-7.266 2.406-5.367 5.308-10.207 8.379-15.211 2.222-3.7 4.148-7.441 5.992-11.336h2.707l1.012-3.633c1.757-4.66 3.703-7.633 7.101-11.242M203.351 411.18l2.704 2.707-3.274 2.433c-15.617 11.743-30.195 24.551-43.133 39.243l-2.859 3.238-2.129 2.426-2.703-2.707a221 221 0 0 1 19.188-22.317l2.042-2.113c3.915-3.91 7.278-6.399 12.583-8.031v-2.704c2.472-1.898 2.472-1.898 5.746-3.972 4.07-2.602 8.004-5.258 11.836-8.203m-9.47 67.629h1.356q.77 4.722 1.352 9.468l-1.352 1.352c-1.613 11.777-1.527 23.812-1.605 35.676l-.055 4.187c-.012 7.965.75 14.719 3.012 22.356.93 4.566.93 4.566 1.351 8.117l-1.351 2.703h2.703l-1.352 5.41h2.704l.507 4.399c.746 4.46 1.461 6.652 3.551 10.48q1.184 2.73 2.285 5.496l1.114 2.754.66 2.57-1.352 4.059c-5.922-12.805-10.617-25.371-13.527-39.223l-.735-3.457c-2.039-10.691-2.386-21.191-2.324-32.031.016-2.879 0-5.762-.015-8.64-.008-12.137 1.004-23.692 3.074-35.676m163.652 208.296h2.707c-.777 7.2-2.512 13.313-5.156 20.036l-1.09 2.863c-2.047 5.332-4.246 10.578-6.52 15.82-1.492 3.762-2.113 5.95-2.195 10.059 4.09 11.312 10.778 19.672 19.02 28.32l-2.707 1.352c-7.739-7.012-14.746-15.707-19.258-25.145-1.375-4.36-1.207-7.484-.586-11.965 1.43-5.457 4.164-10.125 6.816-15.074 4.008-8.394 6.41-17.344 8.97-26.266m90.616 270.516 2.707 2.703.676 4.145.676 3.972 2.707 1.352c.637 2.195 1.27 4.394 1.836 6.61 1.316 4.335 3.262 8.343 5.187 12.437 1.09 2.594 1.09 2.594 1.09 5.297h2.707l.352 2.664c1.351 5.558 3.703 10.445 6.156 15.597l1.406 3.059c2.692 5.707 5.637 10.305 9.668 15.2 1.29 3.152 1.918 6.136 2.703 9.468-5.937-4.996-8.937-11.39-12.425-18.172l-1.961-3.785c-23.485-45.984-23.485-45.984-23.485-60.547m52.75-175.836h2.703l-2.703 67.63h-2.707c-.28-22.696-.507-45.102 2.707-67.63m-178.53-309.738h2.706q2.045 4.558 4.055 9.129l1.172 2.601c2.02 4.614 2.886 7.489 2.886 12.618l2.704 1.351v10.82l2.707 1.352-1.352 8.117h-1.355l-.993-5.148c-3.32-17.532-3.32-17.532-9.824-34.078l-1.355-1.352-6.762 27.05h-2.703l5.41-29.753h2.703ZM268.27 821.012c4.234 2.011 8.238 4.351 12.277 6.718 16.34 9.5 33.601 16.48 51.293 23.036-2.223.832-2.223.832-5.41 1.351-5.836-1.515-11.383-3.887-16.993-6.086l-4.628-1.73c-13.52-5.23-25.825-12.094-36.54-21.938Zm285.378-216.414h2.707c-3.492 11.054-7.82 21.73-12.175 32.46l-3.211 8.036-2.2 5.492-2.703-1.352c.918-5.773 2.856-10.941 5.07-16.316l1.087-2.672a2484 2484 0 0 1 3.312-8.062l1.992-4.887c4.578-11.156 4.578-11.156 6.121-12.7M138.43 726.329l4.058 1.356a134 134 0 0 1 5.832 8.285c7.95 11.742 15.5 19.922 27.024 28.21 2.863 2.134 5.312 4.173 7.719 6.786-12.481-4.637-22.239-13.242-31.106-22.992-5.023-6.418-9.414-13.262-13.527-20.29ZM256.098 411.18h2.707c-2.84 9.906-6.07 19.668-9.375 29.425l-1.035 3.07-.93 2.747c-.84 2.66-1.54 5.328-2.188 8.043h-2.703c1.625-14.637 6.43-28.426 12.172-41.93ZM149.25 461.227h4.059c-1.707 4.632-3.676 8.476-6.508 12.511-4.102 5.996-7.653 12.196-11.074 18.598l-2.707-1.352c2.109-8.293 5.359-14.722 10.144-21.726l1.606-2.395c1.566-2.218 1.566-2.218 4.48-5.636m119.02-104.149 4.058 1.352c2.082 3.726 2.715 6.836 3.215 11.078-.68 6.887-3.106 12.406-5.918 18.68l-1.566 3.57a848 848 0 0 1-3.844 8.601l-2.707-1.351c1.984-6.352 4.117-12.43 7.02-18.43 1.812-3.992 2.5-6.422 2.956-10.902-.515-4.535-1.554-8.356-3.214-12.598m-29.754 108.207h2.707c-.903 9.79-2.11 19.512-3.465 29.25-.645 4.676-1.293 9.356-1.946 14.031l-4.058-1.351q1.108-7.98 2.234-15.957l.762-5.43q.545-3.902 1.098-7.805l.664-4.742c.652-3.937.652-3.937 2.004-7.996m-6.762 45.988h2.703c.457 5.012.91 10.032 1.356 15.047l.39 4.29c.59 6.648 1.145 13.202.961 19.886h-2.707c-2.289-13.285-3.043-25.773-2.703-39.223M435.98 743.914h1.352c1.164 5.543 1.277 9.399 0 14.879q-.27 2.701-.504 5.41c-.855 8.274-2.922 16.281-4.902 24.344h-1.356c.715-15.094 2.89-29.754 5.41-44.633m124.43 279.98c5.535 2.126 8.8 6.13 12.598 10.485 5.383 6.039 10.824 11.5 17.16 16.566h-4.059q-4.425-3.54-8.539-7.437l-2.383-2.227c-5.652-5.37-10.414-10.906-14.777-17.386m-443.617-490.98h2.703a1189 1189 0 0 1-5.41 28.401h-2.703c.62-9.882 2.547-18.933 5.41-28.402m91.969 64.922c3.086 2.855 5.07 5.629 7.101 9.3 3.512 5.825 7.461 8.75 13.188 12.34l-4.059 1.352c-4.828-2.25-7.324-4.308-10.445-8.64-2.094-3.387-4.09-6.692-5.785-10.293Zm50.043-250.227c3.597 1.457 6.234 3.168 9.465 5.41l1.355 2.708c-9.3-2.536-9.3-2.536-10.82-4.059q-5.116-.147-10.227-.082l-2.918.016c-2.379.02-4.762.039-7.144.066 6.355-4.234 12.68-5.117 20.289-4.059m-188 305.684c5.843 10.898 7.433 22.969 8.117 35.164-3.25-4.871-4.29-9.68-5.578-15.3l-.746-3.063c-1.336-5.715-2.075-10.887-1.793-16.801m444.972 55.453h2.707q-.631 3.55-1.27 7.102l-.71 3.992c-.594 3.105-1.27 6.14-2.078 9.195h-2.703c.601-7.133 1.464-13.55 4.054-20.289m-152.832-94.68h2.707c-2.086 6.383-4.164 12.739-6.761 18.938h-2.707c.628-7.719 2.62-12.39 6.761-18.938m77.094 313.797c3.531 3.532 4.441 6.942 5.953 11.633 1.102 4.414 1.098 8.188.809 12.711-2.656-3.98-3.676-6.84-4.903-11.41l-1.066-3.883c-.793-3.64-.793-3.64-.793-9.05m63.566-165.016h2.707l-1.355 16.234h-4.055Zm-58.156-60.864c1.23 4.157 1.473 7.844 1.352 12.172h-2.703l-.203 2.617-.305 3.387-.285 3.375-.563 2.793-2.703 1.356c1.348-8.735 2.727-17.27 5.41-25.7m78.446-20.289h2.703l-2.703 12.172-2.707-1.351q.607-4.745 1.355-9.47ZM705.129 428.766v2.703l-4.27 1.797c-22.613 9.863-40.332 24.445-57.945 41.488l-2.762 2.598c-16.691 16.039-30.617 36.226-43.222 55.562l-2.707-2.707c2.183-3.617 4.386-7.219 6.593-10.82l1.887-3.125 1.824-2.961 1.672-2.746 1.551-1.989h2.703l1.137-2.398c6.793-13.043 18.336-23.836 28.617-34.121l2.453-3.195c3.063-3.692 6.23-6.493 9.977-9.485l3.976-3.187 3.883-3.07 3.25-2.602c27.426-21.742 27.426-21.742 41.383-21.742m69.117-1.36c29.703 11.328 56.527 35.906 76.36 60.114 2.003 2.503 4.007 5.011 6.003 7.52q3.295 4.02 6.594 8.034c1.867 2.274 3.73 4.555 5.578 6.844l2.461 2.879 1.598 2.531-1.352 4.059-1.547-2.02c-12.949-16.945-12.949-16.945-26.941-33.023-2.512-2.711-4.89-5.5-7.27-8.324-15.77-18.004-37.644-35.555-60.242-44.223-17.574-5.938-37.281-8.285-55.66-4.828-4.043.941-8.023 1.949-11.996 3.148v-4.058c21.574-7.23 44.973-5.54 66.414 1.347m-27.191-74.386c22.914-1.5 46.23 6.34 66.605 16.28 43.719 22.075 43.719 22.075 55.121 39.177-5.133-2.239-9.261-5.586-13.61-9.043-12.3-9.614-25.327-17.512-39.136-24.77l-2.625-1.422c-2.7-1.418-5.43-2.715-8.195-3.988l-4.18-1.945c-17.285-7.512-35.398-10.387-53.98-12.934Zm221.812 190.714h2.703a11977 11977 0 0 1 11.809 24.797q2.114 4.437 4.246 8.867c4.973 10.442 9.555 21.024 14.04 31.68l1.741 4.11c3.45 8.285 6.356 16.57 8.739 25.226h-2.704l-1.941-4.922c-5.016-12.676-10.145-25.304-15.473-37.855l-1.558-3.711-1.473-3.442-1.293-3.043c-1.215-2.722-1.215-2.722-3.96-5.187a203 203 0 0 1-3.044-8.031c-2.816-7.582-6.195-14.438-10.297-21.399-1.535-3.035-1.535-3.035-1.535-7.09M868.781 408.477c4.008 1.804 6.84 3.789 9.95 6.882l2.53 2.516 2.65 2.691 2.741 2.758a241 241 0 0 1 17.375 19.707c3.852 4.867 7.961 9.504 12.09 14.137h-4.054c-2.93-2.73-2.93-2.73-6.258-6.508l-1.797-2.027c-4.035-4.578-7.895-9.285-11.727-14.035-6.304-7.797-12.922-14.985-20.793-21.22l-2.707-2.198Zm96.028 323.265c2.652 3.977 3.625 6.758 4.82 11.324l1.016 3.836c1.562 6.371 2.585 10.848.925 17.301h2.707v17.582h-1.355a9863 9863 0 0 1-3.293-18.176l-.945-5.164c-1.602-8.89-3.024-17.71-3.875-26.703M943.168 500.45l4.059 1.356c1.703 2.261 1.703 2.261 3.355 5.16l1.809 3.133 1.851 3.289 1.899 3.304q2.322 4.045 4.609 8.106l-4.055 1.351c-1.36-2.418-2.71-4.843-4.058-7.27l-2.282-4.089c-1.777-3.516-1.777-3.516-1.777-6.223h-2.703Zm28.402 388.188c1.38 2.414 1.38 2.414 2.707 5.41-.422 4.652-.422 4.652-1.355 9.469l-.758 3.976c-.195.918-.39 1.836-.594 2.785h-2.703l.93 2.118c.422 3.296.422 3.296-.39 5.761-1.028 2.36-2.13 4.684-3.247 7-1.11-3.277-1.351-5.418-.883-8.879l.88-3.863.937-4.2 1.011-4.359.997-4.421q1.219-5.402 2.468-10.797m-16.23-194.77c5.996 8.992 8.125 19.164 9.469 29.758.039 2.254.054 4.508 0 6.762-3.118-5.848-4.598-11.871-6.254-18.258l-.942-3.504-.886-3.387-.809-3.07c-.578-2.89-.578-2.89-.578-8.3m-32.457-223.173c2.3.793 2.3.793 5.41 2.703a137 137 0 0 1 6.422 8.961l1.687 2.508a830 830 0 0 1 4.063 6.117l-4.059 1.352c-4.808-7.07-9.386-14.16-13.523-21.64m14.875 173.128c2.941 2.352 5.035 4.446 6.422 7.989 1.922 7.113 1.922 7.113 1.074 11.285l-.734 2.367a2041 2041 0 0 1-3.38-8.54l-1.902-4.8c-1.48-4.242-1.48-4.242-1.48-8.3m-10.82-27.052c4.718 5.84 7.726 11.32 9.046 18.766l.422 4.227c-3.312-3.313-4.465-6.414-6.254-10.735l-1.828-4.347c-1.386-3.856-1.386-3.856-1.386-7.91m32.46-89.27 4.059 1.351c1.875 3.09 1.875 3.09 3.637 6.848l1.789 3.766 1.336 2.91-4.059-1.352v-2.703h-2.703Zm-12.171 142.02c3.156 3.87 5.28 7.386 6.761 12.171.168 4.48.168 4.48 0 8.117-2.367-3.55-3.59-6.164-4.902-10.144l-1.07-3.172c-.79-2.918-.79-2.918-.79-6.973"/><path fill="#9c2821" fill-rule="evenodd" d="M1008.09 1006.313h2.703c-11.574 37.894-43.54 70.789-71.68 97.382-17.504 15.64-37.394 28.39-58.16 39.227l-2.664 1.398c-50.125 25.942-106.562 33.414-162.34 31.063-50.617-3.067-101.21-18.946-144.02-46.297-13.167-8.703-25.312-18.703-36.91-29.395-2.75-2.52-5.566-4.921-8.421-7.324-15.98-13.988-29.22-31.668-40.575-49.535l1.352-2.707 3.55 4.734c.747.989 1.485 1.977 2.25 2.996a918 918 0 0 1 4.376 5.887c4.488 6.063 9.203 11.824 14.172 17.492l2.187 2.567c10.746 12.668 10.746 12.668 23.508 23.133v2.707l2.144.914c4.465 2.445 8.278 5.62 12.227 8.804 17.02 13.54 34.45 24.614 54.27 33.645l4.726 2.164c10.563 4.781 21.004 9.305 32.13 12.633l2.741.824c18.172 5.379 36.668 8.668 55.414 11.348l3 .437c33.637 4.356 70.836 1.574 103.848-5.848l4.941-1.035c21.891-4.968 43.375-12.898 63.7-22.382l2.754-1.282c3.976-1.93 7.343-3.941 10.792-6.722l3.02-2.395h4.059v-2.703l3.578-1.68c4.445-2.332 8.23-4.933 12.23-7.957 6.746-5.093 6.746-5.093 11.242-6.593l1.352-2.708 4.059-1.351 1.351-4.059h2.707v-2.703a115 115 0 0 1 6.34-5.156c8.273-6.34 15.082-13.566 21.809-21.473l2.148-2.52c9.96-11.738 19.707-23.222 26.508-37.128h2.703l1.008-2.727c2.11-5.011 4.617-9.734 7.191-14.52l1.492-2.804c3.653-6.82 3.653-6.82 5.188-8.351m346.238-384.13h4.059c-2.574 8.848-6.121 16.442-10.82 24.344l-2.145 3.774-2.168 3.75-2 3.472-1.8 2.532h-2.708l-.93 2.894c-2.129 4.64-5.07 7.985-8.539 11.645l-2.015 2.152c-12.563 13.238-26.387 25.3-43.25 32.707-4.82 2.129-8.735 4.152-12.89 7.41-3.852 5.282-6.47 11.235-9.263 17.117-11.175 23.368-33.449 42.598-54.304 57.274l-2.235 1.594c-23.324 16.55-48.777 30.062-74.86 41.687l-4.14 1.875c-20.238 9.117-40.523 17.016-61.68 23.66l-4.949 1.57-4.398 1.36-3.277 1.293c-1.645 3.293-1.786 5.977-2.114 9.637l-.343 3.73-.246 2.863h-2.708c-.148-2.367-.25-4.734-.335-7.101l-.192-3.996.527-3.781c2.743-3.336 4.989-5.22 8.93-7.012l3.988-1.305 4.446-1.488c1.55-.5 3.101-1.004 4.699-1.524q4.788-1.6 9.57-3.218l4.664-1.567c11.246-3.863 22.309-8.21 32.844-13.742 2.988-1.473 6.035-2.668 9.137-3.875 5.965-2.328 11.633-5.05 17.312-8 3.145-1.55 3.145-1.55 6.399-2.828 13.414-5.457 25.976-13.574 38.207-21.274 3.172-1.796 3.172-1.796 5.875-1.796v-2.703a169 169 0 0 1 6.762-4.06c7.503-5.366 14.89-10.886 21.808-16.991l3.89-3.297h2.704v-2.707c2.273-2.192 2.273-2.192 5.242-4.649 3.5-2.902 5.73-5.043 8.285-8.875h2.703l1.078-2.277c1.809-3.484 3.875-6.695 6.024-9.98 4.086-6.348 7.746-12.817 11.215-19.52 2.77-4.766 5.258-8.75 9.941-11.844a267 267 0 0 1 9.36-5.07c6.16-3.25 12.148-6.438 17.765-10.566l4.129-2.961h2.703l1.356-4.059c2.257-1.887 2.257-1.887 5.07-3.8 3.754-2.688 6.773-5.255 9.637-8.88l2.875-3.55h2.703l1.125-2.368c1.558-2.996 3.297-5.675 5.215-8.453 4.359-6.41 8.14-13.093 11.898-19.87l2.05-3.122h2.704l1.184-4.312c1.214-4.114 2.558-7.98 4.226-11.918m-205.578 85.21h2.703c-6.492 18.055-23.785 34.473-38.012 46.887-19.543 15.77-41.004 28.465-63.425 39.676v24.348l-4.059-1.352a578 578 0 0 1-1.012-10.398l-.332-2.957c-.238-2.895-.238-2.895-.008-8.285 2.153-3.81 2.153-3.81 5.41-6.766 3.958-2.3 3.958-2.3 8.54-4.395 17.43-8.257 36.07-18.254 49.617-32.125a368 368 0 0 1 5.496-4.984l2.754-2.469c2.57-2.011 2.57-2.011 6.629-3.367v-2.703h2.707l1.351-4.059h2.704l1.074-2.246c4.656-9.023 9.972-18.27 17.863-24.804m-55.453-394.95c5.613 2.48 9.476 6.25 13.523 10.82 1.715 4.313 1.715 4.313 2.946 9.176l.699 2.664q.738 2.809 1.45 5.622c1.25 4.921 2.589 9.816 3.933 14.707l.804 2.93c5.684 20.425 14.508 38.73 25.332 56.874l1.356 2.707c-3.016-1.273-5.047-2.246-7.094-4.84l-1.426-2.554-1.625-2.895-1.691-3.152-1.79-3.313c-12-22.64-19.003-45.207-24.745-70.187l-.852-3.68-.605-3.101-.746-2.313c-6.575-3.457-14.278-4.863-21.641-5.41-3.96 1.297-3.96 1.297-6.766 4.059l-3.8 2.96-2.961 2.45c1.55-4.184 3.304-5.957 6.68-9.043 6.109-4.613 11.519-5.293 19.019-4.48m125.781 189.359h2.707c-.422 4.746-1.535 7.023-4.312 10.988-3.32 4.11-7.07 5.898-11.918 7.945-5.543 1.59-11.14 2.934-16.739 4.313-17.43 4.527-33.754 9.492-47.168 22.062-4.738 5.211-7.773 10.426-10.48 16.91h-2.707c.426-4.945 1.223-7.91 3.922-12.128 7.52-9.028 14.922-16.7 25.832-21.688q4.059-.684 8.117-1.352l1.352-2.707c3.379-1.09 3.379-1.09 7.836-2.144l4.867-1.195c3.394-.809 6.789-1.618 10.183-2.418 11.75-2.762 11.75-2.762 21.746-9.118 2.192-2.496 2.192-2.496 3.72-5.074Zm-8.113-123.086h2.703c8.434 24.285 15.148 47.187 15.133 73.125l-.004 4.945c-.078 11.2-.66 21.856-2.957 32.84l-.781 3.828c-.598 2.79-1.254 5.57-1.922 8.348l-2.707-1.356.375-2.441c4.789-32.266 6.66-63.367-3.078-94.942a133 133 0 0 0-2.157-5.109c-1.836-4.21-2.78-7.871-3.507-12.39-.215-1.294-.43-2.59-.649-3.926Zm18.933-48.692c26.45 14.813 47.446 39.508 63.301 64.899 4.176 7.035 7.707 14.406 11.203 21.793 1.766 3.68 3.614 7.316 5.461 10.953a54.7 54.7 0 0 1 3.89 10.562l-1.35 4.055-1.008-2.469c-10.907-26.539-23.743-49.972-42.274-71.922l-3.277-3.953c-10.75-12.437-23.582-22.254-37.297-31.21Zm-148.773 66.278 4.055 1.351c2.375 3.399 2.375 3.399 4.82 7.692l2.457 4.242c2.086 4.09 3.477 8.058 4.898 12.414 2.711 5.098 5.93 9.789 9.551 14.285 2.598 3.27 4.496 6.668 6.516 10.313 2.137 3.457 4.734 6.367 7.441 9.382 2.34 2.715 4.399 5.555 6.5 8.454 4.809 6.308 10.547 10.894 16.848 15.667 3.047 2.645 4.445 4.461 5.89 8.172-22.425-12.52-38.335-36.687-51.394-58.16-5.32-9.137-10.434-18.246-13.527-28.402l-6.762-1.356Zm25.695-128.496c1.422 4.261 1.489 7.289 1.438 11.75l-.035 4.074-.051 3.113 2.707 1.352c2.762 3.422 5.148 7.039 7.523 10.738 4.141 6.266 8.668 12.176 13.278 18.098 3.047 3.914 6.027 7.847 8.87 11.91 2.47 3.71 2.47 3.71 4.77 5.742 2.567 2.726 3.98 5.523 5.625 8.883l1.746 3.504c1.47 3.343 1.47 3.343 2.172 6.39l.649 2.364 2.703 1.351c1.152 2.797 1.152 2.797 2.2 6.172.35 1.117.702 2.234 1.07 3.387l.788 2.617c-4.265-3.606-6.343-8.207-8.789-13.106-6.027-11.652-13.285-22.27-20.964-32.882l-1.657-2.29a344 344 0 0 0-17.11-21.636c-4.265-5.207-7.546-9.836-9.339-16.363-.527-5.325.754-10.133 2.406-15.168m258.328 208.296h2.707q.974 6.043 1.942 12.09l.555 3.403c.539 3.398 1.054 6.8 1.558 10.207l.43 2.73c1.351 9.938 1.125 19.98 1.101 29.992-.007 3.2 0 6.403.008 9.606q-.002 3.1-.004 6.199l.008 2.856c-.031 6.433-.648 12.59-1.543 18.949h-2.703l.063-4.867c.855-39.051.855-39.051-3.235-77.793-.777-4.598-1.062-8.727-.887-13.372m-41.925-1.351h1.351c6.586 29.289 10.828 59.289 6.762 89.27v4.054h-2.703l-.203 3.16-.305 4.11c-.094 1.351-.191 2.699-.285 4.09l-.563 3.519-2.703 2.707.543-3.773c4.469-32.043 4.848-63.82-1.398-95.68-.574-3.852-.578-7.566-.496-11.457m-244.805-35.168h2.707l.508 4.23c1.703 12.59 4.597 24.348 8.789 36.348l1.344 3.86c3.07 8.511 6.78 16.539 11 24.542l-4.059-1.351c-9.312-13.332-14.414-29.363-18.004-45.059l-.703-3.035c-1.426-6.64-1.79-12.75-1.582-19.535m104.145-117.676 4.054 1.356a149 149 0 0 1 6.258 10.566l1.773 3.242c17.668 32.832 17.668 32.832 17.668 40.293h-2.707c-3.785-5.164-5.84-11.062-8.132-16.992-1.391-3.574-1.391-3.574-3.7-7.945-1.691-3.465-1.691-3.465-1.691-7.524h-2.703l-4.059-12.172h-2.707ZM1009.44 639.766h4.059q2.584 7.647 5.156 15.3l1.461 4.313c8.258 24.633 8.258 24.633 8.258 31.785h-2.703l-3.875-12.398q-2.379-7.604-4.746-15.215l-.903-2.895-1.703-5.465q-2.414-7.739-5.004-15.425m332.715-235.348 4.059 1.352c1.535 3.066 1.535 3.066 2.96 7.101l1.59 4.445 1.618 4.688 1.637 4.558c2.94 8.336 5.37 16.52 7.07 25.196h-2.703c-4.328-11.633-8.282-23.38-12.172-35.164q-1.224-3.68-2.453-7.356Zm-315.133 288.098h2.707c1.336 4.925 2.657 9.859 3.973 14.793l1.137 4.187c2.156 8.129 3.664 15.918 4.355 24.3h-2.703l-1.137-4.886-1.484-6.355-.746-3.22-.727-3.105-.668-2.855c-.566-2.238-1.27-4.437-2-6.629-.5-1.77-.976-3.543-1.437-5.324l-.727-2.742c-.543-2.754-.543-2.754-.543-8.164m66.274-87.918 2.535 3.215c2.738 3.507 2.738 3.507 5.578 6.253l.934 3.47c2.16 5.671 5.402 9.542 9.265 14.179l1.973 2.64v2.704h2.707l1.184 3.3 1.52 3.465 2.706 1.352-1.351 4.058c-7.805-9.55-14.856-19.3-21.133-29.925l-1.793-3.008c-3.098-5.352-3.098-5.352-4.125-7.645Zm33.812-39.223h2.704l.257 3.477c1.403 13.398 5.34 22.726 11.914 34.394l1.356 2.707c-2.395-.816-2.395-.816-5.41-2.707-2.555-3.918-2.555-3.918-4.989-8.621l-2.468-4.68c-2.914-6.195-3.528-10.636-3.45-17.468l.04-4.04Zm59.508 112.262c5.758.539 9.801 2.785 14.54 5.883 8.784 6.449 16.69 13.886 23.331 22.523l-2.703 1.352-1.453-1.891c-5.062-6.203-10.574-11.25-16.89-16.117l-2.22-1.719c-4.64-3.496-9.343-6.234-14.605-8.68Zm39.223-25.7c3.492.973 6.187 2.192 8.902 4.622 3.149 3.226 6.293 6.449 9.328 9.789 2.418 2.437 4.41 4.297 7.47 5.879 4.374-.102 8.1-1.145 12.17-2.704-2.21 2.309-3.882 3.97-6.76 5.41-3.805.59-3.805.59-8.118 0-2.707-2.468-4.574-5.136-6.762-8.117l-2.703-1.351v-2.707l-2.199-.93c-4.297-2.375-7.648-5.277-11.328-8.535Zm-140.66-91.972h1.355l.496 4.555c1.637 14.746 1.637 14.746 4.547 29.285.414 3.05-.062 5.175-.988 8.09-4.625-14.383-6.121-26.891-5.41-41.93m-36.516-66.278c3.754 3.04 5.152 6.45 6.98 10.836 1.91 4.532 4.028 8.973 6.122 13.426l1.312 2.805 3.168 6.75-2.703 1.351a2521 2521 0 0 1-5.918-12.257l-1.691-3.473c-3.07-6.41-5.567-12.535-7.27-19.437m93.32 113.617c2.286.761 2.286.761 5.41 2.703 3.16 3.797 5.782 7.988 8.508 12.101 3.414 5.043 3.414 5.043 8.149 8.782l2.281.757c-2.875.594-2.875.594-6.762 0-3.175-2.773-5.582-6.113-8.117-9.464l-2.617-3.246c-4.926-6.137-4.926-6.137-6.852-8.93Zm-75.738-77.098c4.434 4.195 8.024 8.078 10.82 13.527v2.703l4.059 1.352c2.367 3.89 2.367 3.89 4.055 8.117l-1.352 4.059c-13.191-19.64-13.191-19.64-17.582-27.05Zm297.55 64.926h2.704c-.82 9.027-3.754 17.176-6.762 25.695h-2.703c1.027-5.664 2.54-11.125 4.14-16.652l1.485-5.14Zm-200.171 75.742c8.379.563 15.238 2.168 22.992 5.41-4.054 1.352-4.054 1.352-8.297.598l-4.804-1.188-4.832-1.18-3.704-.937v4.059h-2.707Zm196.113-217.766h2.707q1.02 3.889 2.028 7.778l1.14 4.375c.887 4.082.887 4.082.887 9.492l-4.055-1.356q-.689-3.163-1.355-6.34l-.758-3.566c-.578-3.531-.695-6.808-.594-10.383m-58.156-112.261c3.602 1.437 5.547 2.855 8.207 5.738l2.781 3.562 2.801 3.54c2.07 2.878 3.691 5.578 5.145 8.8-4.254-1.5-5.891-3.265-8.895-6.765a469 469 0 0 1-3.617-4.813l-1.879-2.473a273 273 0 0 1-4.543-6.238Zm-159.598 78.449c2.305.836 2.305.836 5.41 2.707a131 131 0 0 1 6.426 8.281l1.684 2.309a825 825 0 0 1 4.066 5.64h-4.058l-1.352-4.058-4.058-1.352c-2.957-3.972-2.957-3.972-5.41-8.117v-2.703h-2.708Zm-102.789 39.223c2.387 4.18 2.707 5.726 2.707 10.824l2.703 1.351c.907 2.903.907 2.903 1.61 6.508l.73 3.578c.368 3.442-.062 5.563-.988 8.848a2901 2901 0 0 1-3.379-11.75l-.976-3.348c-1.547-5.449-2.872-10.281-2.407-16.011m-22.992 530.207h2.707c-3.91 12.98-3.91 12.98-8.117 17.586l-1.352-4.06c1.348-3.355 1.348-3.355 3.297-7.015l1.938-3.695Zm150.129-611.36 1.773 2.453c2.102 2.934 2.102 2.934 4.48 4.817 1.86 2.199 1.86 2.199 2.708 6.34l.504 3.972 1.355 2.707-2.707 2.703c-1.36-3.066-2.715-6.136-4.054-9.21l-1.176-2.637c-1.715-3.946-2.883-6.793-2.883-11.145m-135.25 568.078h2.703q-.627 2.918-1.265 5.836l-.715 3.278c-.723 3.062-.723 3.062-2.075 7.117h-2.707q.626-3.679 1.27-7.352l.71-4.14.727-3.387Zm47.336-542.379h2.707v12.172l-4.059 1.356c-.168-8.961-.168-8.961 1.352-13.528m82.504 275.922h2.703q-.574 2.966-1.184 5.918l-.664 3.328c-.855 2.93-.855 2.93-3.562 5.633l-1.352-4.054c.758-2.766.758-2.766 1.946-5.665l1.175-2.933Zm-139.309 296.215h2.707l-4.058 13.524-2.707-1.352Zm4.059-12.172h2.703l-2.703 12.172-4.059-2.707Zm0 0"/></svg>