<svg xmlns="http://www.w3.org/2000/svg" viewBox="0 0 1500 1500">
  <path fill="#c0352e" d="M1189.49219,265.52734c28.94531,9.19531 55.50781,23.04688 79.62891,41.50781l3.80859,2.89063c25.66016,20.20703 44.53516,44.95703 61.11328,72.85156l1.69922,2.84766c20.64062,35.05469 30.57422,76.23438 36.16797,116.17969c0.14453,0.93359 0.28516,1.87109 0.43359,2.83203c1.3125,9.73828 1.17188,19.5625 1.17188,29.37109c0,3.09766 0.02344,6.19531 0.05078,9.29297c0.07031,17.77344 -1.78125,34.93359 -5.96484,52.25391l-0.86719,3.60156c-4.17187,16.57422 -10.16016,32.79688 -19.16797,47.37109l-2.125,3.72656c-4.16797,7.24219 -4.16797,7.24219 -5.98828,9.80078h-2.70703l-0.92969,2.89453c-2.12891,4.64063 -5.07031,7.98438 -8.53906,11.64453l-2.01562,2.15234c-12.5625,13.23828 -26.38672,25.30078 -43.25,32.70703c-4.82031,2.12891 -8.73437,4.15234 -12.89062,7.41016c-3.85156,5.28125 -6.46875,11.23438 -9.26172,17.11719c-11.17578,23.36719 -33.44922,42.59766 -54.30469,57.27344l-2.23438,1.59375c-23.32422,16.55078 -48.77734,30.0625 -74.85937,41.6875l-4.14063,1.875c-20.23828,9.11719 -40.52344,17.01563 -61.67969,23.66016l-4.94922,1.57031l-4.39844,1.35938l-3.27734,1.29297c-1.47656,2.94922 -1.82422,5.20703 -2.27734,8.46875l-0.5,3.54297l-0.51953,3.79687l-0.54297,3.86328c-0.82422,5.84375 -1.60547,11.69141 -2.33984,17.54297l-0.66406,5.30469l-0.55469,4.64453c-0.73438,4.33984 -2.00781,8.1875 -3.42188,12.34766c-0.57031,2.89453 -1.10547,5.79687 -1.60547,8.70703c-9.28125,48.66016 -32.27734,97.15234 -64.16406,135.0625c-26.92187,30.73828 -56.09766,56.36719 -92.47266,75.34766l-2.66406,1.39844c-50.125,25.94141 -106.5625,33.41406 -162.33984,31.0625c-50.61719,-3.06641 -101.21094,-18.94531 -144.01953,-46.29687c-13.16797,-8.70313 -25.3125,-18.70313 -36.91016,-29.39453c-2.75,-2.51953 -5.56641,-4.92187 -8.42187,-7.32422c-34.51563,-30.21875 -59.71484,-75.77344 -74.50391,-118.73047c-6.11719,-18.64844 -11.34375,-37.55859 -16.11328,-56.59375l-3.07422,-0.32422c-59.4375,-6.48437 -128.96094,-18.01562 -178.83594,-52.95312c-3.89844,-2.89453 -7.73047,-5.875 -11.49609,-8.94141l-4.3125,-3.21094c-4.89844,-4.57422 -8.85937,-9.71094 -12.9375,-15.01953c-3.20703,-3.60156 -5.44531,-5.42187 -9.80078,-7.46875c-4.29688,-1.34375 -8.65625,-2.43359 -13.01563,-3.55078c-29.28516,-7.97266 -53.34766,-22.54297 -74.89453,-43.78906l-3.19922,-3.14453c-26.07422,-27.28125 -40.72266,-64.88672 -49.97266,-100.83203c-13.11719,-54.26953 -10.69141,-111.37109 4.52734,-164.89844c12.53516,-41.72656 36.99609,-78.90234 68.02734,-109.1875c25.15625,-23.42578 57,-41.45703 89.40625,-52.64453l3.00391,-1.0625c6.71875,-2.22266 12.32031,-2.90625 19.39844,-2.40625c3.69922,1.13281 6.49219,2.94531 9.46484,5.41016c3.15234,4.06641 5.14063,7.30859 6.76563,12.17578c0.74609,7.32031 -0.78125,12.51172 -3.59766,19.125c-2.07422,4.42188 -4.30469,8.74219 -6.54687,13.08203c-3.76172,7.32813 -6.51172,14.59766 -8.75391,22.52344c-1.33203,4.58594 -2.82813,9.07422 -4.37891,13.58594c-6.92969,20.19922 -11.52734,40.40234 -14.59375,61.52734l-0.55078,3.78516c-2.30859,19.11719 -0.41016,38.07812 1.90234,57.08203c19.53906,-19.19922 30.08203,-42.83203 37.53125,-68.89453c3.93359,-14.5625 5.64453,-28.83594 6.0625,-43.89844l0.07422,-2.71094c0.125,-4.53125 0.21094,-9.05859 0.26563,-13.58594c0.1875,-9.28516 0.59375,-16.73437 4.75781,-25.10156c1.94531,-2.91016 3.71094,-4.53516 6.47266,-6.66016c5.04687,-2.45703 9.64453,-2.54688 15.1875,-2.22266c5.39062,1.02344 8.91016,2.82422 13.23047,6.16406c15.1875,13.84375 29.14063,31.50781 38.14453,50.05859l2.26172,4.53125c14.80078,30.23828 21.27734,62.13672 19.19531,95.83203c-1.92969,25.87109 -7.27734,52.66406 -19.71875,75.70703c-1.95703,3.74609 -1.95703,3.74609 -2.12891,7.91016c0.40234,4.14844 1.35547,7.66016 2.58594,11.63281c3.04297,12.45703 0.9375,24.49219 -0.84375,37.02734l-0.51172,4.28125c-1.81641,12.64063 -7.03516,24.6875 -12.08984,36.34375c-2.05078,4.73828 -3.60547,8.36719 -3.71484,13.5625c3.91797,10.82813 10.00781,18.59766 17.94922,26.875l2.42578,2.79688v2.70312l3.03125,1.09766c3.65234,1.57422 6.1875,3.31641 9.30859,5.75391c15.26953,10.92969 33.66797,17.89063 51.22656,24.25781l0.19141,-3.73047c0.71875,-12.33594 2.10156,-24.39062 4.12109,-36.59375l0.44531,-2.71875c10.10156,-61.28125 27.42578,-126.10547 56.57422,-181.25c2.08984,-4.01172 3.98047,-8.0625 5.84375,-12.18359c7.26172,-15.95703 15.95313,-31.08203 24.79297,-46.20703l1.94141,-3.32812c32.67578,-55.64453 75.46094,-107.19141 131.875,-139.70703c29.64844,-16.58594 61.30078,-21.42188 94.90625,-21.00391c12.61719,0.24609 24.33203,2.04297 36.36719,5.78516l2.78906,0.85937c40.9375,13.04688 76.47656,41.07422 105.41406,72.17969c3.07813,3.625 6.09766,7.29297 9.05859,11.01172c3.10938,3.86328 6.31641,7.625 9.53516,11.39063c15.98438,19.21875 29.5,40.00391 42.26563,61.45703l2.13281,3.57031c9.66797,16.28516 18.26172,32.88672 26.16797,50.08984c1.28516,2.78125 2.59375,5.54297 3.92578,8.30078c17.0625,35.68359 30.49609,72.49219 40.90234,110.62109c1.19531,4.36719 2.41797,8.71875 3.64844,13.07422c4.33203,15.62891 7.26172,30.80469 8.42969,46.98828c24.53516,-9.83594 46.34766,-27.49219 63.57031,-47.33984c4.62891,-5.98437 8.49219,-12.33984 12.17187,-18.9375l1.89063,-3.37109c3.21484,-6.41016 4.85937,-12.89453 5.24609,-20.0625c-0.41797,-4.01953 -1.30078,-6.08594 -3.5,-9.44922c-1.63672,-2.13672 -3.30078,-4.25 -4.98828,-6.33984c-14.01172,-18.55859 -25.79687,-37.5625 -29.75781,-60.86719c-0.22266,-3.69141 -0.26953,-7.37891 -0.33594,-11.07422c-0.14062,-5.48437 -0.69141,-9.89062 -3.10937,-14.92187c-2.76953,-4.08203 -5.71094,-7.97266 -8.72656,-11.875c-19.11719,-28.58594 -33.8125,-62.80078 -36.51562,-97.38672c-0.87891,-20.94531 -0.94922,-41.77344 4.05469,-62.21875l1.25391,-5.19141c3.17188,-11.36328 7.77734,-21.92187 12.78125,-32.59375l1.82813,-3.93359c4.875,-10.07422 10.64063,-19.01562 18.96484,-26.58594c4.28906,-2.85547 7.16406,-3.38281 12.34375,-3.71875c3.77734,0.0625 5.67578,0.38281 9.21484,1.94531c3.67188,2.87891 6.78516,5.71094 9.88672,9.21484c1.71484,4.3125 1.71484,4.3125 2.94531,9.17578l0.69922,2.66406c0.49219,1.87109 0.97656,3.74609 1.44922,5.62109c1.25,4.92188 2.58984,9.81641 3.93359,14.70703l0.80469,2.92969c7.69922,27.66797 20.52344,52.41406 38.85938,74.46094l3.08594,3.76172c7.23438,8.45703 15.29297,15.57031 25.31641,20.58203c-2.51953,-43.77344 -16.26953,-81.46094 -40.34375,-118.19531c-3.57031,-5.31641 -7.27734,-10.53125 -11.05078,-15.70703c-0.54297,-0.74609 -1.08203,-1.49219 -1.63672,-2.26172c-5.41797,-7.44922 -11.12891,-14.67187 -17.12891,-21.66406c-4.26953,-5.20703 -7.58984,-9.83594 -9.31641,-16.39062c-0.59375,-5.46875 0.30469,-10.07422 2.38281,-15.14062c2.63672,-4.18359 4.84766,-6.98828 9.13672,-9.50781z" />
  <path fill="#9c2821" d="M164.12891,807.48438c4.98828,1.48438 9.54297,3.38281 14.20313,5.66406c9.0625,4.23047 18.5625,7.02344 28.125,9.89062c8.39844,2.5625 14.92969,4.91016 21.05859,11.39453c1.36328,1.52344 2.71875,3.05078 4.07031,4.58203c20.90234,23.0625 48.45312,36.12109 77.26172,46.91797l3.13281,1.22656c11.12891,4.24219 22.52344,7.22266 34.05859,10.10156l3.15234,0.79297c18.54297,4.65625 37.18359,8.17187 56.07813,11.07031l2.92578,0.46094c2.60938,0.40625 5.21875,0.80078 7.82813,1.1875l3.72656,0.85937l1.35547,2.70313c-15.11328,-0.58594 -29.44922,-3.07031 -44.21094,-6.16797l-3.49609,-0.72656c-45.89453,-9.57812 -93.80469,-22.59766 -130.82422,-52.61719l-4.3125,-3.21094c-4.89844,-4.57422 -8.85937,-9.71094 -12.9375,-15.01953c-3.21094,-3.60547 -5.44141,-5.41797 -9.80078,-7.46875c-4.35547,-1.375 -8.76563,-2.49609 -13.1875,-3.63281c-13.55469,-3.65234 -25.75781,-8.875 -38.20703,-15.30469zM305.04297,760.88281l3.80469,0.61328c2.48047,2.1875 2.48047,2.1875 4.5625,5.24219l2.39063,3.33984l2.51172,3.58984c1.83984,2.44141 3.69922,4.86719 5.58203,7.27344l2.54688,3.32422c2.88281,3.13672 5.78516,4.875 9.45313,6.98828c0.92578,1.79297 1.82813,3.59375 2.70703,5.41016c1.78906,0.92578 3.59766,1.82422 5.41016,2.70313l3,3.06641c18.58594,18.27344 44.65625,26.96484 68.66797,35.55859l2.85937,1.03125c2.16406,0.77734 4.33984,1.53516 6.51172,2.28516l2.81641,1.34375c2.70312,4.05469 2.70312,4.05469 2.96875,6.82031l-0.26563,8.05469h-1.35156l-0.02734,-2.44922c-0.36719,-3.74609 -0.94531,-6.36719 -2.67578,-9.72266c-4.98828,-3.11719 -10.42578,-4.44922 -16.0625,-6c-3.21875,-1 -6.4375,-2.01562 -9.64844,-3.04297l-4.85156,-1.55078c-18.50781,-6.34766 -35.32031,-16.51953 -50.58984,-28.62891l-2.37109,-1.86719c-9.59766,-7.60156 -9.59766,-7.60156 -13.85938,-11.66016v-2.70312h-2.70312c-2.06641,-2.46484 -4.01953,-5.01953 -5.91797,-7.60937l-3.16016,-4.28125c-2.91406,-4.09766 -5.75,-8.25 -8.50391,-12.45703c-4.72656,0.20312 -8.19531,0.69922 -12.42578,2.86719c-14.14062,9.05859 -23.12891,21.21484 -32.20703,35.00391l-2.70703,-1.35156c3.46094,-9.78906 10.25781,-18.49609 17.41406,-25.95312l2.875,-2.45312h2.70313v-2.70312c3.26563,-2.33594 3.26563,-2.33594 7.60938,-4.90234l4.27734,-2.58984zM110.02734,565.375h2.70703l-0.29687,4.03125c-3.54297,51.44922 1.78125,102.83594 24.46094,149.80469c0.95312,1.92578 1.91406,3.84766 2.88672,5.76562c-2.41406,-0.82812 -2.41406,-0.82812 -5.41016,-2.70312c-17.87109,-27.94922 -25.17187,-67.34766 -27.05078,-100.08984c-0.20703,-6.51172 -0.25,-13.01562 -0.25391,-19.52734l-0.05078,-5.00391zM377.82422,511.27344h2.70313c3.57813,34.85547 0.21094,69.07031 -13.52344,101.44141h-2.70312c0.72266,-4.56641 1.5,-9.05859 2.70313,-13.52734h2.70313c0.92578,-4.95312 1.82813,-9.91406 2.70703,-14.87891l0.50391,-2.83203c3.91016,-22.12109 6.32031,-43.57812 3.71875,-66.03516l-0.16406,-2.81641zM307.49219,523.44531h2.70703c-4.47656,20.9375 -17.70312,39.52344 -29.75391,56.80859l4.36328,0.89844c13.32031,2.86719 25.24609,6.76953 37.5625,12.625l-4.05859,1.35547c-3.17187,-1.12109 -6.30078,-2.35937 -9.38281,-3.72266c-7.85938,-3.32031 -15.52734,-5.80078 -23.89844,-7.58594c-3.23437,-0.86719 -3.23437,-0.86719 -7.29297,-3.57031c0.87109,-4.82422 2.88281,-8.10937 5.57813,-12.17578c7.32422,-11.28906 14.23047,-22.35156 18.99219,-34.98047zM339.95313,422.00391l4.05859,1.35156c17.9375,21.99609 30.28516,50.5 35.16406,78.44922c0.16797,4.81641 0.16797,4.81641 0,8.11328h-2.70312l-0.53516,-2.39062c-0.82812,-3.66016 -1.66797,-7.3125 -2.50781,-10.96484l-0.83984,-3.76172c-1.73047,-7.48437 -4.08594,-14.76562 -7.06641,-21.84766c-1.42969,-3.46484 -2.5625,-6.96875 -3.58984,-10.57031l-0.99609,-3.4375l-0.69531,-2.48047h-2.70703l-1.58984,-4.74219c-2.33984,-6.23828 -5.67187,-11.38672 -9.48437,-16.81641c-2.1875,-3.16797 -4.35938,-6.35156 -6.50781,-9.55078zM203.35156,411.17969l2.70313,2.70703l-3.27344,2.43359c-15.61719,11.74219 -30.19531,24.55078 -43.13281,39.24219l-2.85938,3.23828l-2.12891,2.42578l-2.70312,-2.70703c5.89844,-7.86328 12.29688,-15.30469 19.1875,-22.31641l2.04297,-2.11328c3.91406,-3.91016 7.27734,-6.39844 12.58203,-8.03125v-2.70312c2.47266,-1.89844 2.47266,-1.89844 5.74609,-3.97266zM193.88281,478.80859h1.35547c0.51172,3.14844 0.96484,6.30469 1.35156,9.46875l-1.35156,1.35156c-1.61328,11.77734 -1.52734,23.8125 -1.60547,35.67578l-0.05469,4.1875c-0.01172,7.96484 0.75,14.71875 3.01172,22.35547c0.92969,4.56641 0.92969,4.56641 1.35156,8.11719l-1.35156,2.70313h2.70313l-1.35156,5.41016h2.70313l0.50781,4.39844c0.74609,4.46094 1.46094,6.65234 3.55078,10.48047c0.78906,1.82031 1.55078,3.65234 2.28516,5.49609l1.11328,2.75391l0.66016,2.57031l-1.35156,4.05859c-5.92187,-12.80469 -10.61719,-25.37109 -13.52734,-39.22266l-0.73437,-3.45703c-2.03906,-10.69141 -2.38672,-21.19141 -2.32422,-32.03125c0.01563,-2.87891 0,-5.76172 -0.01562,-8.64062zM357.53516,687.10547h2.70703c-0.77734,7.19922 -2.51172,13.3125 -5.15625,20.03516l-1.08984,2.86328c-2.04687,5.33203 -4.24609,10.57813 -6.51953,15.82031c-1.49219,3.76172 -2.11328,5.94922 -2.19531,10.05859c4.08984,11.3125 10.77734,19.67188 19.01953,28.32031l-2.70703,1.35156c-7.73828,-7.01172 -14.74609,-15.70703 -19.25781,-25.14453c-1.375,-4.35937 -1.20703,-7.48437 -0.58594,-11.96484c1.42969,-5.45703 4.16406,-10.125 6.81641,-15.07422zM322.37109,472.04688h2.70703c1.36328,3.03906 2.71484,6.08203 4.05469,9.12891l1.17188,2.60156c2.01953,4.61328 2.88672,7.48828 2.88672,12.61719l2.70313,1.35156v10.82031l2.70703,1.35156l-1.35156,8.11719h-1.35547l-0.99219,-5.14844c-3.32031,-17.53125 -3.32031,-17.53125 -9.82422,-34.07812l-1.35547,-1.35156l-6.76172,27.05078h-2.70313l5.41016,-29.75391h2.70313zM268.26953,821.01172c4.23438,2.01172 8.23828,4.35156 12.27734,6.71875c16.33984,9.5 33.60156,16.48047 51.29297,23.03516c-2.22266,0.83203 -2.22266,0.83203 -5.41016,1.35156c-5.83594,-1.51563 -11.38281,-3.88672 -16.99219,-6.08594l-4.62891,-1.73047c-13.51953,-5.23047 -25.82422,-12.09375 -36.53906,-21.9375zM138.42969,726.32813l4.05859,1.35547c2.04688,2.6875 3.99219,5.44922 5.83203,8.28516c7.94922,11.74219 15.5,19.92188 27.02344,28.21094c2.86328,2.13281 5.3125,4.17187 7.71875,6.78516c-12.48047,-4.63672 -22.23828,-13.24219 -31.10547,-22.99219c-5.02344,-6.41797 -9.41406,-13.26172 -13.52734,-20.28906zM256.09766,411.17969h2.70703c-2.83984,9.90625 -6.07031,19.66797 -9.375,29.42578l-1.03516,3.07031l-0.92969,2.74609c-0.83984,2.66016 -1.53906,5.32813 -2.1875,8.04297h-2.70312c1.625,-14.63672 6.42969,-28.42578 12.17188,-41.92969zM149.25,461.22656h4.05859c-1.70703,4.63281 -3.67578,8.47656 -6.50781,12.51172c-4.10156,5.99609 -7.65234,12.19531 -11.07422,18.59766l-2.70703,-1.35156c2.10938,-8.29297 5.35938,-14.72266 10.14453,-21.72656l1.60547,-2.39453zM268.26953,357.07813l4.05859,1.35156c2.08203,3.72656 2.71484,6.83594 3.21484,11.07812c-0.67969,6.88672 -3.10547,12.40625 -5.91797,18.67969l-1.56641,3.57031c-1.26562,2.875 -2.54687,5.74219 -3.84375,8.60156l-2.70703,-1.35156c1.98438,-6.35156 4.11719,-12.42969 7.01953,-18.42969c1.8125,-3.99219 2.5,-6.42187 2.95703,-10.90234zM238.51563,465.28516h2.70703c-0.90234,9.78906 -2.10937,19.51172 -3.46484,29.25c-0.64453,4.67578 -1.29297,9.35547 -1.94531,14.03125l-4.05859,-1.35156c0.73828,-5.32031 1.48438,-10.64062 2.23438,-15.95703l0.76172,-5.42969c0.36328,-2.60156 0.73047,-5.20312 1.09766,-7.80469l0.66406,-4.74219zM231.75391,511.27344h2.70313c0.45703,5.01172 0.91016,10.03125 1.35547,15.04687l0.39063,4.28906c0.58984,6.64844 1.14453,13.20313 0.96094,19.88672h-2.70703zM435.98047,743.91406h1.35156c1.16406,5.54297 1.27734,9.39844 0,14.87891c-0.17969,1.80078 -0.34766,3.60547 -0.50391,5.41016c-0.85547,8.27344 -2.92187,16.28125 -4.90234,24.34375h-1.35547zM116.79297,532.91406h2.70313c-1.6875,9.48828 -3.49219,18.95703 -5.41016,28.40234h-2.70313zM208.76172,597.83594c3.08594,2.85547 5.07031,5.62891 7.10156,9.30078c3.51172,5.82422 7.46094,8.75 13.1875,12.33984l-4.05859,1.35156c-4.82813,-2.25 -7.32422,-4.30859 -10.44531,-8.64062c-2.09375,-3.38672 -4.08984,-6.69141 -5.78516,-10.29297zM258.80469,347.60938c3.59766,1.45703 6.23437,3.16797 9.46484,5.41016l1.35547,2.70703c-9.30078,-2.53516 -9.30078,-2.53516 -10.82031,-4.05859c-3.41016,-0.09766 -6.82031,-0.125 -10.22656,-0.08203l-2.91797,0.01562c-2.37891,0.01953 -4.76172,0.03906 -7.14453,0.06641zM70.80469,653.29297c5.84375,10.89844 7.43359,22.96875 8.11719,35.16406c-3.25,-4.87109 -4.28906,-9.67969 -5.57812,-15.30078l-0.74609,-3.0625zM362.94531,614.06641h2.70703c-2.08594,6.38281 -4.16406,12.73828 -6.76172,18.9375h-2.70703zM440.03906,927.86328c3.53125,3.53125 4.44141,6.94141 5.95313,11.63281c1.10156,4.41406 1.09766,8.1875 0.80859,12.71094c-2.65625,-3.98047 -3.67578,-6.83984 -4.90234,-11.41016c-0.52734,-1.92187 -0.52734,-1.92187 -1.06641,-3.88281zM445.44922,701.98438c1.23047,4.15625 1.47266,7.84375 1.35156,12.17188h-2.70312l-0.20312,2.61719l-0.30469,3.38672l-0.28516,3.375l-0.5625,2.79297l-2.70313,1.35547z" />
  <path fill="#9c2821" d="M1008.08984,1006.3125h2.70313c-11.57422,37.89453 -43.53906,70.78906 -71.67969,97.38281c-17.50391,15.64063 -37.39453,28.39063 -58.16016,39.22656l-2.66406,1.39844c-50.125,25.94141 -106.5625,33.41406 -162.33984,31.0625c-50.61719,-3.06641 -101.21094,-18.94531 -144.01953,-46.29687c-13.16797,-8.70313 -25.3125,-18.70313 -36.91016,-29.39453c-2.75,-2.51953 -5.56641,-4.92187 -8.42187,-7.32422c-15.98047,-13.98828 -29.21875,-31.66797 -40.57422,-49.53516l1.35156,-2.70703l3.55078,4.73438c0.74609,0.98828 1.48438,1.97656 2.25,2.99609c1.46484,1.95703 2.92578,3.91797 4.375,5.88672c4.48828,6.0625 9.20313,11.82422 14.17188,17.49219l2.1875,2.56641c10.74609,12.66797 10.74609,12.66797 23.50781,23.13281v2.70703l2.14453,0.91406c4.46484,2.44531 8.27734,5.62109 12.22656,8.80469c17.01953,13.53906 34.44922,24.61328 54.26953,33.64453l4.72656,2.16406c10.5625,4.78125 21.00391,9.30469 32.12891,12.63281l2.74219,0.82422c18.17188,5.37891 36.66797,8.66797 55.41406,11.34766l3,0.4375c33.63672,4.35547 70.83594,1.57422 103.84766,-5.84766l4.94141,-1.03516c21.89063,-4.96875 43.375,-12.89844 63.69922,-22.38281l2.75391,-1.28125c3.97656,-1.92969 7.34375,-3.94141 10.79297,-6.72266l3.01953,-2.39453h4.05859v-2.70312l3.57813,-1.67969c4.44531,-2.33203 8.23047,-4.93359 12.23047,-7.95703c6.74609,-5.09375 6.74609,-5.09375 11.24219,-6.59375l1.35156,-2.70703l4.05859,-1.35156l1.35156,-4.05859h2.70703v-2.70312c2.05078,-1.79297 4.16406,-3.51172 6.33984,-5.15625c8.27344,-6.33984 15.08203,-13.56641 21.80859,-21.47266l2.14844,-2.51953c9.96094,-11.73828 19.70703,-23.22266 26.50781,-37.12891h2.70313l1.00781,-2.72656c2.10938,-5.01172 4.61719,-9.73437 7.19141,-14.51953l1.49219,-2.80469zM705.12891,428.76563v2.70313l-4.26953,1.79688c-22.61328,9.86328 -40.33203,24.44531 -57.94531,41.48828l-2.76172,2.59766c-16.69141,16.03906 -30.61719,36.22656 -43.22266,55.5625l-2.70703,-2.70703c2.18359,-3.61719 4.38672,-7.21875 6.59375,-10.82031l1.88672,-3.125l1.82422,-2.96094l1.67188,-2.74609l1.55078,-1.98828h2.70313l1.13672,-2.39844c6.79297,-13.04297 18.33594,-23.83594 28.61719,-34.12109l2.45313,-3.19531c3.0625,-3.69141 6.23047,-6.49219 9.97656,-9.48437l3.97656,-3.1875l3.88281,-3.07031l3.25,-2.60156zM774.24609,427.40625c29.70313,11.32813 56.52734,35.90625 76.35938,60.11328c2.00391,2.50391 4.00781,5.01172 6.00391,7.51953c2.19531,2.67969 4.39453,5.35938 6.59375,8.03516c1.86719,2.27344 3.73047,4.55469 5.57813,6.84375l2.46094,2.87891l1.59766,2.53125l-1.35156,4.05859l-1.54687,-2.01953c-12.94922,-16.94531 -12.94922,-16.94531 -26.94141,-33.02344c-2.51172,-2.71094 -4.89062,-5.5 -7.26953,-8.32422c-15.76953,-18.00391 -37.64453,-35.55469 -60.24219,-44.22266c-6.01048,-2.03066 -12.27044,-3.64142 -18.64141,-4.74369zM719.82813,426.96875c-4.04297,0.94141 -8.02344,1.94922 -11.99609,3.14844v-4.05859l15.55111,0.31556c-1.18987,0.17467 -2.37518,0.37267 -3.55502,0.5946zM723.38315,426.37415c11.00616,-1.61566 22.40228,-1.23474 33.46372,0.67904zM500.90234,868.35156h2.70313l0.39063,2.92188c6.92578,51.21484 21.00391,96.99609 49.65234,140.44922c-2.30859,-0.77344 -2.30859,-0.77344 -5.41016,-2.70703c-2.25,-3.00391 -4.36328,-6.10547 -6.33984,-9.29687l-1.64844,-2.5625c-4.01953,-6.37109 -4.01953,-6.37109 -4.85156,-9.98047l-0.68359,-2.50391l-2.70703,-1.35547c-1.54297,-2.78906 -2.98047,-5.63672 -4.30859,-8.53516l-1.24609,-2.67578c-5.29297,-11.72656 -9.3125,-23.93359 -13.37891,-36.12891l-1.45703,-4.28516zM747.05469,353.01953c22.91406,-1.5 46.23047,6.33984 66.60547,16.28125c43.71875,22.07422 43.71875,22.07422 55.12109,39.17578c-5.13281,-2.23828 -9.26172,-5.58594 -13.60937,-9.04297c-12.30078,-9.61328 -25.32812,-17.51172 -39.13672,-24.76953l-2.625,-1.42187c-2.69922,-1.41797 -5.42969,-2.71484 -8.19531,-3.98828l-4.17969,-1.94531c-17.28516,-7.51172 -35.39844,-10.38672 -53.98047,-12.93359zM592.87109,532.91406h2.70703c-1.69531,4.48828 -3.74219,8.8125 -6.14062,12.96875l-2.02734,3.52734l-2.14844,3.70703l-2.19922,3.82812c-3.21875,5.60547 -6.45703,11.19922 -9.70703,16.78125c-4.82422,8.31641 -9.26562,16.57031 -12.94531,25.46094l-2.70312,-1.35156c1.73047,-5.76563 4.01953,-10.91016 6.76563,-16.23438c1.18359,-2.37109 2.21094,-4.81641 3.20703,-7.26562c2.40625,-5.36719 5.30859,-10.20703 8.37891,-15.21094c2.22266,-3.69922 4.14844,-7.44141 5.99219,-11.33594h2.70703l1.01172,-3.63281zM448.15234,957.62109l2.70703,2.70313l0.67578,4.14453l0.56775,3.3376zM452.10291,967.80635l0.27953,0.72068l-0.1715,-0.08563zM454.91797,969.79297c0.63672,2.19531 1.26953,4.39453 1.83594,6.60938c1.31641,4.33594 3.26172,8.34375 5.1875,12.4375c1.08984,2.59375 1.08984,2.59375 1.08984,5.29688h2.70703l0.35156,2.66406c1.35156,5.55859 3.70313,10.44531 6.15625,15.59766l1.40625,3.05859c2.69141,5.70703 5.63672,10.30469 9.66797,15.19922c1.28906,3.15234 1.91797,6.13672 2.70313,9.46875c-5.9375,-4.99609 -8.9375,-11.39062 -12.42578,-18.17187l-1.96094,-3.78516l-19.25428,-49.64093zM500.90234,781.78516h2.70313l-2.70312,67.62891h-2.70703zM553.64844,604.59766h2.70703c-3.49219,11.05469 -7.82031,21.73047 -12.17578,32.46094c-1.07031,2.67969 -2.14063,5.35547 -3.21094,8.03516l-2.19922,5.49219l-2.70312,-1.35156c0.91797,-5.77344 2.85547,-10.94141 5.07031,-16.31641l1.08594,-2.67187c1.10156,-2.69141 2.20313,-5.37891 3.3125,-8.0625l1.99219,-4.88672zM560.41016,1023.89453c5.53516,2.125 8.80078,6.12891 12.59766,10.48437c5.38281,6.03906 10.82422,11.5 17.16016,16.56641h-4.05859c-2.94922,-2.35937 -5.79687,-4.83984 -8.53906,-7.4375l-2.38281,-2.22656zM515.77734,708.74609h2.70703c-0.42187,2.36719 -0.84375,4.73438 -1.26953,7.10156l-0.71094,3.99219c-0.59375,3.10547 -1.26953,6.14063 -2.07812,9.19531h-2.70313zM503.60547,762.84766h2.70703l-1.35547,16.23438h-4.05469zM523.89453,681.69531h2.70313l-2.70312,12.17188l-2.70703,-1.35156c0.40625,-3.16406 0.85547,-6.32031 1.35547,-9.46875z" />
  <path fill="#9c2821" d="M1354.32813,622.18359h4.05859c-2.57422,8.84766 -6.12109,16.44141 -10.82031,24.34375l-2.14453,3.77344l-2.16797,3.75c-0.66016,1.14453 -1.32031,2.29297 -2,3.47266l-1.80078,2.53125h-2.70703l-0.92969,2.89453c-2.12891,4.64063 -5.07031,7.98438 -8.53906,11.64453l-2.01562,2.15234c-12.5625,13.23828 -26.38672,25.30078 -43.25,32.70703c-4.82031,2.12891 -8.73437,4.15234 -12.89062,7.41016c-3.85156,5.28125 -6.46875,11.23438 -9.26172,17.11719c-11.17578,23.36719 -33.44922,42.59766 -54.30469,57.27344l-2.23438,1.59375c-23.32422,16.55078 -48.77734,30.0625 -74.85937,41.6875l-4.14063,1.875c-20.23828,9.11719 -40.52344,17.01563 -61.67969,23.66016l-4.94922,1.57031l-4.39844,1.35938l-3.27734,1.29297c-1.64453,3.29297 -1.78516,5.97656 -2.11328,9.63672l-0.34375,3.73047l-0.24609,2.86328h-2.70703c-0.14844,-2.36719 -0.25,-4.73438 -0.33594,-7.10156l-0.19141,-3.99609l0.52734,-3.78125c2.74219,-3.33594 4.98828,-5.21875 8.92969,-7.01172l3.98828,-1.30469l4.44531,-1.48828c1.55078,-0.5 3.10156,-1.00391 4.69922,-1.52344c3.19141,-1.06641 6.38281,-2.14062 9.57031,-3.21875l4.66406,-1.56641c11.24609,-3.86328 22.30859,-8.21094 32.84375,-13.74219c2.98828,-1.47266 6.03516,-2.66797 9.13672,-3.875c5.96484,-2.32812 11.63281,-5.05078 17.3125,-8c3.14453,-1.55078 3.14453,-1.55078 6.39844,-2.82812c13.41406,-5.45703 25.97656,-13.57422 38.20703,-21.27344c3.17188,-1.79687 3.17188,-1.79687 5.875,-1.79687v-2.70312c2.22266,-1.40625 4.47656,-2.75781 6.76172,-4.05859c7.50391,-5.36719 14.89063,-10.88672 21.80859,-16.99219l3.89063,-3.29687h2.70313v-2.70703c2.27344,-2.19141 2.27344,-2.19141 5.24219,-4.64844c3.5,-2.90234 5.73047,-5.04297 8.28516,-8.875h2.70312l1.07813,-2.27734c1.80859,-3.48437 3.875,-6.69531 6.02344,-9.98047c4.08594,-6.34766 7.74609,-12.81641 11.21484,-19.51953c2.76953,-4.76562 5.25781,-8.75 9.94141,-11.84375c3.08594,-1.75391 6.20703,-3.44141 9.35938,-5.07031c6.16016,-3.25 12.14844,-6.4375 17.76563,-10.56641l4.12891,-2.96094h2.70313l1.35547,-4.05859c2.25781,-1.88672 2.25781,-1.88672 5.07031,-3.80078c3.75391,-2.6875 6.77344,-5.25391 9.63672,-8.87891l2.875,-3.55078h2.70313l1.125,-2.36719c1.55859,-2.99609 3.29688,-5.67578 5.21484,-8.45312c4.35938,-6.41016 8.14063,-13.09375 11.89844,-19.87109l2.05078,-3.12109h2.70313l1.18359,-4.3125zM1148.75,707.39453h2.70313c-6.49219,18.05469 -23.78516,34.47266 -38.01172,46.88672c-19.54297,15.76953 -41.00391,28.46484 -63.42578,39.67578v24.34766l-4.05859,-1.35156c-0.37109,-3.46484 -0.70312,-6.92578 -1.01172,-10.39844l-0.33203,-2.95703c-0.23828,-2.89453 -0.23828,-2.89453 -0.00781,-8.28516c2.15234,-3.80859 2.15234,-3.80859 5.41016,-6.76562c3.95703,-2.30078 3.95703,-2.30078 8.53906,-4.39453c17.42969,-8.25781 36.07031,-18.25391 49.61719,-32.125c1.81641,-1.67969 3.64844,-3.34375 5.49609,-4.98437l2.75391,-2.46875c2.57031,-2.01172 2.57031,-2.01172 6.62891,-3.36719v-2.70312h2.70703l1.35156,-4.05859h2.70313l1.07422,-2.24609zM1093.29688,312.44531c5.61328,2.48047 9.47656,6.25 13.52344,10.82031c1.71484,4.3125 1.71484,4.3125 2.94531,9.17578l0.69922,2.66406c0.49219,1.87109 0.97656,3.74609 1.44922,5.62109c1.25,4.92188 2.58984,9.81641 3.93359,14.70703l0.80469,2.92969c5.68359,20.42578 14.50781,38.73047 25.33203,56.875l1.35547,2.70703c-3.01562,-1.27344 -5.04687,-2.24609 -7.09375,-4.83984l-1.42578,-2.55469l-1.625,-2.89453l-1.69141,-3.15234l-1.78906,-3.3125c-12,-22.64062 -19.00391,-45.20703 -24.74609,-70.1875l-0.85156,-3.67969l-0.60547,-3.10156l-0.74609,-2.3125c-6.57422,-3.45703 -14.27734,-4.86328 -21.64062,-5.41016c-3.96094,1.29688 -3.96094,1.29688 -6.76562,4.05859l-3.80078,2.96094l-2.96094,2.44922c1.55078,-4.18359 3.30469,-5.95703 6.67969,-9.04297zM1219.07813,501.80469h2.70703c-0.42187,4.74609 -1.53516,7.02344 -4.3125,10.98828c-3.32031,4.10938 -7.07031,5.89844 -11.91797,7.94531c-5.54297,1.58984 -11.14063,2.93359 -16.73828,4.3125c-17.42969,4.52734 -33.75391,9.49219 -47.16797,22.0625c-4.73828,5.21094 -7.77344,10.42578 -10.48047,16.91016h-2.70703c0.42578,-4.94531 1.22266,-7.91016 3.92187,-12.12891c7.51953,-9.02734 14.92188,-16.69922 25.83203,-21.6875c2.70703,-0.45703 5.41016,-0.90625 8.11719,-1.35156l1.35156,-2.70703c3.37891,-1.08984 3.37891,-1.08984 7.83594,-2.14453l4.86719,-1.19531c3.39453,-0.80859 6.78906,-1.61719 10.18359,-2.41797c11.75,-2.76172 11.75,-2.76172 21.74609,-9.11719c2.19141,-2.49609 2.19141,-2.49609 3.71875,-5.07422zM1210.96484,378.71875h2.70313c8.43359,24.28516 15.14844,47.1875 15.13281,73.125l-0.00391,4.94531c-0.07812,11.19922 -0.66016,21.85547 -2.95703,32.83984l-0.78125,3.82813c-0.59766,2.78906 -1.25391,5.57031 -1.92187,8.34766l-2.70703,-1.35547l0.375,-2.44141c4.78906,-32.26562 6.66016,-63.36719 -3.07813,-94.94141c-0.68359,-1.71875 -1.40234,-3.42187 -2.15625,-5.10937c-1.83594,-4.21094 -2.78125,-7.87109 -3.50781,-12.39062c-0.21484,-1.29297 -0.42969,-2.58984 -0.64844,-3.92578zM1229.89844,330.02734c26.44922,14.8125 47.44531,39.50781 63.30078,64.89844c4.17578,7.03516 7.70703,14.40625 11.20313,21.79297c1.76563,3.67969 3.61328,7.31641 5.46094,10.95313c1.66016,3.38672 2.95703,6.90625 3.89063,10.5625l-1.35156,4.05469l-1.00781,-2.46875c-10.90625,-26.53906 -23.74219,-49.97266 -42.27344,-71.92187l-3.27734,-3.95313c-10.75,-12.4375 -23.58203,-22.25391 -37.29687,-31.21094zM968.86719,543.73438h2.70312c3.94531,8.26172 7.88281,16.52734 11.80859,24.79688c1.41016,2.95703 2.82422,5.91406 4.24609,8.86719c4.97266,10.44141 9.55469,21.02344 14.03906,31.67969l1.74219,4.10938c3.44922,8.28516 6.35547,16.57031 8.73828,25.22656h-2.70312l-1.94141,-4.92187c-5.01562,-12.67578 -10.14453,-25.30469 -15.47266,-37.85547l-1.55859,-3.71094l-1.47266,-3.44141l-1.29297,-3.04297c-1.21484,-2.72266 -1.21484,-2.72266 -3.96094,-5.1875c-1.07031,-2.65625 -2.08594,-5.33203 -3.04297,-8.03125c-2.81641,-7.58203 -6.19531,-14.4375 -10.29687,-21.39844zM1081.125,396.30469l4.05469,1.35156c2.375,3.39844 2.375,3.39844 4.82031,7.69141l2.45703,4.24219c2.08594,4.08984 3.47656,8.05859 4.89844,12.41406c2.71094,5.09766 5.92969,9.78906 9.55078,14.28516c2.59766,3.26953 4.49609,6.66797 6.51563,10.3125c2.13672,3.45703 4.73438,6.36719 7.44141,9.38281c2.33984,2.71484 4.39844,5.55469 6.5,8.45313c4.80859,6.30859 10.54688,10.89453 16.84766,15.66797c3.04687,2.64453 4.44531,4.46094 5.89062,8.17188c-22.42578,-12.51953 -38.33594,-36.6875 -51.39453,-58.16016c-5.32031,-9.13672 -10.43359,-18.24609 -13.52734,-28.40234l-6.76172,-1.35547zM1106.82031,267.80859c1.42188,4.26172 1.48828,7.28906 1.4375,11.75l-0.03516,4.07422l-0.05078,3.11328l2.70703,1.35156c2.76172,3.42188 5.14844,7.03906 7.52344,10.73828c4.14063,6.26562 8.66797,12.17578 13.27734,18.09766c3.04687,3.91406 6.02734,7.84766 8.87109,11.91016c2.46875,3.71094 2.46875,3.71094 4.76953,5.74219c2.56641,2.72656 3.98047,5.52344 5.625,8.88281c0.57422,1.15625 1.15234,2.3125 1.74609,3.50391c1.46875,3.34375 1.46875,3.34375 2.17188,6.39063l0.64844,2.36328l2.70313,1.35156c1.15234,2.79688 1.15234,2.79688 2.19922,6.17188c0.35156,1.11719 0.70313,2.23438 1.07031,3.38672l0.78906,2.61719c-4.26563,-3.60547 -6.34375,-8.20703 -8.78906,-13.10547c-6.02734,-11.65234 -13.28516,-22.26953 -20.96484,-32.88281l-1.65625,-2.28906c-5.41406,-7.44141 -11.11719,-14.65234 -17.10937,-21.63672c-4.26562,-5.20703 -7.54687,-9.83594 -9.33984,-16.36328zM1365.14844,476.10547h2.70703c0.64844,4.02734 1.29688,8.05859 1.94141,12.08984l0.55469,3.40234c0.53906,3.39844 1.05469,6.80078 1.55859,10.20703l0.42969,2.73047c1.35156,9.9375 1.125,19.98047 1.10156,29.99219c-0.00781,3.19922 0,6.40234 0.00781,9.60547c0,2.06641 -0.00391,4.13281 -0.00391,6.19922l0.00781,2.85547c-0.03125,6.43359 -0.64844,12.58984 -1.54297,18.94922h-2.70312l0.0625,-4.86719c0.85547,-39.05078 0.85547,-39.05078 -3.23437,-77.79297zM1323.22266,474.75391h1.35156c6.58594,29.28906 10.82813,59.28906 6.76172,89.26953v4.05469h-2.70313l-0.20312,3.16016l-0.30469,4.10938c-0.09375,1.35156 -0.19141,2.69922 -0.28516,4.08984l-0.5625,3.51953l-2.70312,2.70703l0.54297,-3.77344c4.46875,-32.04297 4.84766,-63.82031 -1.39844,-95.67969zM1078.41797,439.58594h2.70703l0.50781,4.23047c1.70313,12.58984 4.59766,24.34766 8.78906,36.34766l1.34375,3.85938c3.07031,8.51172 6.78125,16.53906 11,24.54297l-4.05859,-1.35156c-9.3125,-13.33203 -14.41406,-29.36328 -18.00391,-45.05859l-0.70312,-3.03516zM1182.5625,321.91016l4.05469,1.35547c2.23047,3.43359 4.31641,6.95703 6.25781,10.56641l1.77344,3.24219c17.66797,32.83203 17.66797,32.83203 17.66797,40.29297h-2.70703c-3.78516,-5.16406 -5.83984,-11.0625 -8.13281,-16.99219c-1.39062,-3.57422 -1.39062,-3.57422 -3.69922,-7.94531c-1.69141,-3.46484 -1.69141,-3.46484 -1.69141,-7.52344h-2.70313l-4.05859,-12.17187h-2.70703zM1009.44141,639.76563h4.05859c1.72266,5.09766 3.44141,10.19922 5.15625,15.30078l1.46094,4.3125c8.25781,24.63281 8.25781,24.63281 8.25781,31.78516h-2.70312l-3.875,-12.39844c-1.58594,-5.07031 -3.16797,-10.14062 -4.74609,-15.21484l-0.90234,-2.89453l-1.70313,-5.46484zM868.78125,408.47656c4.00781,1.80469 6.83984,3.78906 9.94922,6.88281l2.53125,2.51563l2.64844,2.69141l2.74219,2.75781c6.14844,6.25 11.94141,12.82031 17.375,19.70703c3.85156,4.86719 7.96094,9.50391 12.08984,14.13672h-4.05469c-2.92969,-2.73047 -2.92969,-2.73047 -6.25781,-6.50781l-1.79688,-2.02734c-4.03516,-4.57812 -7.89453,-9.28516 -11.72656,-14.03516c-6.30469,-7.79687 -12.92187,-14.98437 -20.79297,-21.21875l-2.70703,-2.19922zM1342.15625,404.41797l4.05859,1.35156c1.53516,3.06641 1.53516,3.06641 2.96094,7.10156l1.58984,4.44531l1.61719,4.6875l1.63672,4.55859c2.94141,8.33594 5.37109,16.51953 7.07031,25.19531h-2.70312c-4.32812,-11.63281 -8.28125,-23.37891 -12.17187,-35.16406c-0.81641,-2.45312 -1.63281,-4.90625 -2.45312,-7.35547zM1027.02344,692.51563h2.70703c1.33594,4.92578 2.65625,9.85938 3.97266,14.79297l1.13672,4.1875c2.15625,8.12891 3.66406,15.91797 4.35547,24.30078h-2.70312l-1.13672,-4.88672l-1.48437,-6.35547l-0.74609,-3.21875l-0.72656,-3.10547l-0.66797,-2.85547c-0.56641,-2.23828 -1.26953,-4.4375 -2,-6.62891c-0.5,-1.76953 -0.97656,-3.54297 -1.4375,-5.32422l-0.72656,-2.74219zM1093.29688,604.59766l2.53516,3.21484c2.73828,3.50781 2.73828,3.50781 5.57813,6.25391l0.93359,3.46875c2.16016,5.67188 5.40234,9.54297 9.26563,14.17969l1.97266,2.64063v2.70313h2.70703l1.18359,3.30078l1.51953,3.46484l2.70703,1.35156l-1.35156,4.05859c-7.80469,-9.55078 -14.85547,-19.30078 -21.13281,-29.92578l-1.79297,-3.00781c-3.09766,-5.35156 -3.09766,-5.35156 -4.125,-7.64453zM1127.10938,565.375h2.70313l0.25781,3.47656c1.40234,13.39844 5.33984,22.72656 11.91406,34.39453l1.35547,2.70703c-2.39453,-0.81641 -2.39453,-0.81641 -5.41016,-2.70703c-2.55469,-3.91797 -2.55469,-3.91797 -4.98828,-8.62109l-2.46875,-4.67969c-2.91406,-6.19531 -3.52734,-10.63672 -3.44922,-17.46875l0.03906,-4.03906zM1186.61719,677.63672c5.75781,0.53906 9.80078,2.78516 14.53906,5.88281c8.78516,6.44922 16.69141,13.88672 23.33203,22.52344l-2.70312,1.35156l-1.45312,-1.89062c-5.0625,-6.20312 -10.57422,-11.25 -16.89062,-16.11719l-2.21875,-1.71875c-4.64062,-3.49609 -9.34375,-6.23437 -14.60547,-8.67969zM1225.83984,651.9375c3.49219,0.97266 6.1875,2.19141 8.90234,4.62109c3.14844,3.22656 6.29297,6.44922 9.32812,9.78906c2.41797,2.4375 4.41016,4.29688 7.46875,5.87891c4.375,-0.10156 8.10156,-1.14453 12.17188,-2.70312c-2.21094,2.30859 -3.88281,3.96875 -6.76172,5.41016c-3.80469,0.58984 -3.80469,0.58984 -8.11719,0c-2.70703,-2.46875 -4.57422,-5.13672 -6.76172,-8.11719l-2.70312,-1.35156v-2.70703l-2.19922,-0.92969c-4.29687,-2.375 -7.64844,-5.27734 -11.32812,-8.53516zM964.80859,731.74219c2.65234,3.97656 3.625,6.75781 4.82031,11.32422l1.01563,3.83594c1.5625,6.37109 2.58594,10.84766 0.92578,17.30078h2.70703v17.58203h-1.35547c-1.10156,-6.05859 -2.20312,-12.11719 -3.29297,-18.17578l-0.94531,-5.16406zM1085.17969,559.96484h1.35547l0.49609,4.55469c1.63672,14.74609 1.63672,14.74609 4.54688,29.28516c0.41406,3.05078 -0.0625,5.17578 -0.98828,8.08984zM1048.66406,493.6875c3.75391,3.03906 5.15234,6.44922 6.98047,10.83594c1.91016,4.53125 4.02734,8.97266 6.12109,13.42578l1.3125,2.80469l3.16797,6.75l-2.70312,1.35156c-1.98437,-4.08203 -3.95703,-8.16797 -5.91797,-12.25781l-1.69141,-3.47266zM1141.98438,607.30469c2.28516,0.76172 2.28516,0.76172 5.41016,2.70312c3.16016,3.79688 5.78125,7.98828 8.50781,12.10156c3.41406,5.04297 3.41406,5.04297 8.14844,8.78125l2.28125,0.75781c-2.875,0.59375 -2.875,0.59375 -6.76172,0c-3.17578,-2.77344 -5.58203,-6.11328 -8.11719,-9.46484l-2.61719,-3.24609c-4.92578,-6.13672 -4.92578,-6.13672 -6.85156,-8.92969zM1066.24609,530.20703c4.43359,4.19531 8.02344,8.07813 10.82031,13.52734v2.70313l4.05859,1.35156c2.36719,3.89063 2.36719,3.89063 4.05469,8.11719l-1.35156,4.05859c-13.19141,-19.64062 -13.19141,-19.64062 -17.58203,-27.05078zM943.16797,500.44922l4.05859,1.35547c1.70313,2.26172 1.70313,2.26172 3.35547,5.16016l1.80859,3.13281l1.85156,3.28906l1.89844,3.30469c1.54688,2.69531 3.08594,5.39844 4.60938,8.10547l-4.05469,1.35156c-1.35937,-2.41797 -2.71094,-4.84375 -4.05859,-7.26953l-2.28125,-4.08984c-1.77734,-3.51562 -1.77734,-3.51562 -1.77734,-6.22266h-2.70312zM971.57031,888.63672c1.37891,2.41406 1.37891,2.41406 2.70703,5.41016c-0.42187,4.65234 -0.42187,4.65234 -1.35547,9.46875l-0.75781,3.97656c-0.19531,0.91797 -0.39062,1.83594 -0.59375,2.78516h-2.70312l0.92969,2.11719c0.42188,3.29688 0.42188,3.29688 -0.39062,5.76172c-1.02734,2.35938 -2.12891,4.68359 -3.24609,7c-1.10937,-3.27734 -1.35156,-5.41797 -0.88281,-8.87891l0.87891,-3.86328l0.9375,-4.19922l1.01172,-4.35937l0.99609,-4.42187zM1363.79688,595.13281h2.70313c-0.82031,9.02734 -3.75391,17.17578 -6.76172,25.69531h-2.70312c1.02734,-5.66406 2.53906,-11.125 4.14063,-16.65234l1.48438,-5.14062zM955.33984,693.86719c5.99609,8.99219 8.125,19.16406 9.46875,29.75781c0.03906,2.25391 0.05469,4.50781 0,6.76172c-3.11719,-5.84766 -4.59766,-11.87109 -6.25391,-18.25781l-0.94141,-3.50391l-0.88672,-3.38672l-0.80859,-3.07031zM1163.625,670.875c8.37891,0.5625 15.23828,2.16797 22.99219,5.41016c-4.05469,1.35156 -4.05469,1.35156 -8.29688,0.59766l-4.80469,-1.1875l-4.83203,-1.17969l-3.70312,-0.9375v4.05859h-2.70703zM1359.73828,453.10938h2.70703c0.67969,2.59375 1.35547,5.18359 2.02734,7.77734l1.14063,4.375c0.88672,4.08203 0.88672,4.08203 0.88672,9.49219l-4.05469,-1.35547c-0.46094,-2.10938 -0.91016,-4.22266 -1.35547,-6.33984l-0.75781,-3.56641zM922.88281,470.69531c2.30078,0.79297 2.30078,0.79297 5.41016,2.70313c2.26172,2.90234 4.40234,5.88672 6.42188,8.96094l1.6875,2.50781c1.36328,2.03125 2.71484,4.07031 4.0625,6.11719l-4.05859,1.35156zM1301.58203,340.84766c3.60156,1.4375 5.54688,2.85547 8.20703,5.73828l2.78125,3.5625l2.80078,3.53906c2.07031,2.87891 3.69141,5.57813 5.14453,8.80078c-4.25391,-1.5 -5.89062,-3.26562 -8.89453,-6.76562c-1.21875,-1.59766 -2.42187,-3.20312 -3.61719,-4.8125l-1.87891,-2.47266c-1.54297,-2.05859 -3.05859,-4.13672 -4.54297,-6.23828zM1141.98438,419.29688c2.30469,0.83594 2.30469,0.83594 5.41016,2.70703c2.25391,2.67578 4.39453,5.4375 6.42578,8.28125l1.68359,2.30859c1.36328,1.875 2.71875,3.75391 4.06641,5.64063h-4.05859l-1.35156,-4.05859l-4.05859,-1.35156c-2.95703,-3.97266 -2.95703,-3.97266 -5.41016,-8.11719v-2.70312h-2.70703zM1039.19531,458.51953c2.38672,4.17969 2.70703,5.72656 2.70703,10.82422l2.70313,1.35156c0.90625,2.90234 0.90625,2.90234 1.60938,6.50781l0.73047,3.57813c0.36719,3.44141 -0.0625,5.5625 -0.98828,8.84766c-1.13281,-3.91406 -2.26172,-7.82812 -3.37891,-11.75l-0.97656,-3.34766zM1016.20313,988.72656h2.70703c-3.91016,12.98047 -3.91016,12.98047 -8.11719,17.58594l-1.35156,-4.05859c1.34766,-3.35547 1.34766,-3.35547 3.29688,-7.01562l1.9375,-3.69531zM937.75781,643.82422c2.94141,2.35156 5.03516,4.44531 6.42188,7.98828c1.92187,7.11328 1.92187,7.11328 1.07422,11.28516l-0.73437,2.36719c-1.13281,-2.84375 -2.25781,-5.6875 -3.37891,-8.53906l-1.90234,-4.80078zM1166.33203,377.36719l1.77344,2.45312c2.10156,2.93359 2.10156,2.93359 4.48047,4.81641c1.85937,2.19922 1.85937,2.19922 2.70703,6.33984l0.50391,3.97266l1.35547,2.70703l-2.70703,2.70313c-1.35937,-3.06641 -2.71484,-6.13672 -4.05469,-9.21094l-1.17578,-2.63672zM1031.08203,945.44531h2.70313c-0.41797,1.94531 -0.83984,3.89063 -1.26562,5.83594l-0.71484,3.27734c-0.72266,3.0625 -0.72266,3.0625 -2.07422,7.11719h-2.70703c0.41797,-2.45312 0.83984,-4.90234 1.26953,-7.35156l0.71094,-4.14062l0.72656,-3.38672zM1078.41797,403.06641h2.70703v12.17188l-4.05859,1.35547zM926.9375,616.77344c4.71875,5.83984 7.72656,11.32031 9.04688,18.76562l0.42188,4.22656c-3.3125,-3.3125 -4.46484,-6.41406 -6.25391,-10.73437l-1.82812,-4.34766zM1160.92188,678.98828h2.70313c-0.38281,1.97656 -0.77734,3.94922 -1.18359,5.91797l-0.66406,3.32813c-0.85547,2.92969 -0.85547,2.92969 -3.5625,5.63281l-1.35156,-4.05469c0.75781,-2.76562 0.75781,-2.76562 1.94531,-5.66406l1.17578,-2.93359zM959.39844,527.50391l4.05859,1.35156c1.875,3.08984 1.875,3.08984 3.63672,6.84766l1.78906,3.76563l1.33594,2.91016l-4.05859,-1.35156v-2.70312h-2.70312zM1021.61328,975.20313h2.70703l-4.05859,13.52344l-2.70703,-1.35156zM947.22656,669.52344c3.15625,3.87109 5.28125,7.38672 6.76172,12.17187c0.16797,4.48047 0.16797,4.48047 0,8.11719c-2.36719,-3.55078 -3.58984,-6.16406 -4.90234,-10.14453l-1.07031,-3.17187zM1025.67188,963.03125h2.70313l-2.70312,12.17188l-4.05859,-2.70703z" />
</svg>