<svg xmlns="http://www.w3.org/2000/svg" viewBox="0 0 1500 1500" width="100%" height="100%">
  <path class="claw-oval" fill="#c0352e" fill-rule="nonzero" d="M 1189.492188 265.527344 C 1218.4375 274.722656 1245 288.574219 1269.121094 307.035156 L 1272.929688 309.925781 C 1298.589844 330.132812 1317.464844 354.882812 1334.042969 382.777344 L 1335.742188 385.625 C 1356.382812 420.679688 1366.316406 461.859375 1371.910156 501.804688 C 1372.054688 502.738281 1372.195312 503.675781 1372.34375 504.636719 C 1373.65625 514.375 1373.515625 524.199219 1373.515625 534.007812 C 1373.515625 537.105469 1373.539062 540.203125 1373.566406 543.300781 C 1373.636719 561.074219 1371.785156 578.234375 1367.601562 595.554688 L 1366.734375 599.15625 C 1362.5625 615.730469 1356.574219 631.953125 1347.566406 646.527344 L 1345.441406 650.253906 C 1341.273438 657.496094 1341.273438 657.496094 1339.453125 660.054688 L 1336.746094 660.054688 L 1335.816406 662.949219 C 1333.6875 667.589844 1330.746094 670.933594 1327.277344 674.59375 L 1325.261719 676.746094 C 1312.699219 689.984375 1298.875 702.046875 1282.011719 709.453125 C 1277.191406 711.582031 1273.277344 713.605469 1269.121094 716.863281 C 1265.269531 722.144531 1262.652344 728.097656 1259.859375 733.980469 C 1248.683594 757.347656 1226.410156 776.578125 1205.554688 791.253906 L 1203.320312 792.847656 C 1179.996094 809.398438 1154.542969 822.910156 1128.460938 834.535156 L 1124.320312 836.410156 C 1104.082031 845.527344 1083.796875 853.425781 1062.640625 860.070312 L 1057.691406 861.640625 L 1053.292969 863 L 1050.015625 864.292969 C 1048.539062 867.242188 1048.191406 869.5 1047.738281 872.761719 L 1047.238281 876.304688 L 1046.71875 880.101562 L 1046.175781 883.964844 C 1045.351562 889.808594 1044.570312 895.65625 1043.835938 901.507812 L 1043.171875 906.8125 L 1042.617188 911.457031 C 1041.882812 915.796875 1040.609375 919.644531 1039.195312 923.804688 C 1038.625 926.699219 1038.089844 929.601562 1037.589844 932.511719 C 1028.308594 981.171875 1005.3125 1029.664062 973.425781 1067.574219 C 946.503906 1098.3125 917.328125 1123.941406 880.953125 1142.921875 L 878.289062 1144.320312 C 828.164062 1170.261719 771.726562 1177.734375 715.949219 1175.382812 C 665.332031 1172.316406 614.738281 1156.4375 571.929688 1129.085938 C 558.761719 1120.382812 546.617188 1110.382812 535.019531 1099.691406 C 532.269531 1097.171875 529.453125 1094.769531 526.597656 1092.367188 C 492.082031 1062.148438 466.882812 1016.59375 452.09375 973.636719 C 445.976562 954.988281 440.75 936.078125 435.980469 917.042969 L 432.90625 916.71875 C 373.46875 910.234375 303.945312 898.703125 254.070312 863.765625 C 250.171875 860.871094 246.339844 857.890625 242.574219 854.824219 L 238.261719 851.613281 C 233.363281 847.039062 229.402344 841.902344 225.324219 836.59375 C 222.117188 832.992188 219.878906 831.171875 215.523438 829.125 C 211.226562 827.78125 206.867188 826.691406 202.507812 825.574219 C 173.222656 817.601562 149.160156 803.03125 127.613281 781.785156 L 124.414062 778.640625 C 98.339844 751.359375 83.691406 713.753906 74.441406 677.808594 C 61.324219 623.539062 63.75 566.4375 78.96875 512.910156 C 91.503906 471.183594 115.964844 434.007812 146.996094 403.722656 C 172.152344 380.296875 203.996094 362.265625 236.402344 351.078125 L 239.40625 350.015625 C 246.125 347.792969 251.726562 347.109375 258.804688 347.609375 C 262.503906 348.742188 265.296875 350.554688 268.269531 353.019531 C 271.421875 357.085938 273.410156 360.328125 275.035156 365.195312 C 275.78125 372.515625 274.253906 377.707031 271.4375 384.320312 C 269.363281 388.742188 267.132812 393.0625 264.890625 397.402344 C 261.128906 404.730469 258.378906 412 256.136719 419.925781 C 254.804688 424.511719 253.308594 429 251.757812 433.511719 C 244.828125 453.710938 240.230469 473.914062 237.164062 495.039062 L 236.613281 498.824219 C 234.304688 517.941406 236.203125 536.902344 238.515625 555.90625 C 258.054688 536.707031 268.597656 513.074219 276.046875 487.011719 C 279.980469 472.449219 281.691406 458.175781 282.109375 443.113281 L 282.183594 440.402344 C 282.308594 435.871094 282.394531 431.34375 282.449219 426.816406 C 282.636719 417.53125 283.042969 410.082031 287.207031 401.714844 C 289.152344 398.804688 290.917969 397.179688 293.679688 395.054688 C 298.726562 392.597656 303.324219 392.507812 308.867188 392.832031 C 314.257812 393.855469 317.777344 395.65625 322.097656 398.996094 C 337.285156 412.839844 351.238281 430.503906 360.242188 449.054688 L 362.503906 453.585938 C 377.304688 483.824219 383.78125 515.722656 381.699219 549.417969 C 379.769531 575.289062 374.421875 602.082031 361.980469 625.125 C 360.023438 628.871094 360.023438 628.871094 359.851562 633.035156 C 360.253906 637.183594 361.207031 640.695312 362.4375 644.667969 C 365.480469 657.125 363.375 669.160156 361.59375 681.695312 L 361.082031 685.976562 C 359.265625 698.617188 354.046875 710.664062 348.992188 722.320312 C 346.941406 727.058594 345.386719 730.6875 345.277344 735.882812 C 349.195312 746.710938 355.285156 754.480469 363.226562 762.757812 L 365.652344 765.554688 L 365.652344 768.257812 L 368.683594 769.355469 C 372.335938 770.929688 374.871094 772.671875 377.992188 775.109375 C 393.261719 786.039062 411.660156 793 429.21875 799.367188 L 429.410156 795.636719 C 430.128906 783.300781 431.511719 771.246094 433.53125 759.042969 L 433.976562 756.324219 C 444.078125 695.042969 461.402344 630.21875 490.550781 575.074219 C 492.640625 571.0625 494.53125 567.011719 496.394531 562.890625 C 503.65625 546.933594 512.347656 531.808594 521.1875 516.683594 L 523.128906 513.355469 C 555.804688 457.710938 598.589844 406.164062 655.003906 373.648438 C 684.652344 357.0625 716.304688 352.226562 749.910156 352.644531 C 762.527344 352.890625 774.242188 354.6875 786.277344 358.429688 L 789.066406 359.289062 C 830.003906 372.335938 865.542969 400.363281 894.480469 431.46875 C 897.558594 435.09375 900.578125 438.761719 903.539062 442.480469 C 906.648438 446.34375 909.855469 450.105469 913.074219 453.871094 C 929.058594 473.089844 942.574219 493.875 955.339844 515.328125 L 957.472656 518.898438 C 967.140625 535.183594 975.734375 551.785156 983.640625 568.988281 C 984.925781 571.769531 986.234375 574.53125 987.566406 577.289062 C 1004.628906 612.972656 1018.0625 649.78125 1028.46875 687.910156 C 1029.664062 692.277344 1030.886719 696.628906 1032.117188 700.984375 C 1036.449219 716.613281 1039.378906 731.789062 1040.546875 747.972656 C 1065.082031 738.136719 1086.894531 720.480469 1104.117188 700.632812 C 1108.746094 694.648438 1112.609375 688.292969 1116.289062 681.695312 L 1118.179688 678.324219 C 1121.394531 671.914062 1123.039062 665.429688 1123.425781 658.261719 C 1123.007812 654.242188 1122.125 652.175781 1119.925781 648.8125 C 1118.289062 646.675781 1116.625 644.5625 1114.9375 642.472656 C 1100.925781 623.914062 1089.140625 604.910156 1085.179688 581.605469 C 1084.957031 577.914062 1084.910156 574.226562 1084.84375 570.53125 C 1084.703125 565.046875 1084.152344 560.640625 1081.734375 555.609375 C 1078.964844 551.527344 1076.023438 547.636719 1073.007812 543.734375 C 1053.890625 515.148438 1039.195312 480.933594 1036.492188 446.347656 C 1035.613281 425.402344 1035.542969 404.574219 1040.546875 384.128906 L 1041.800781 378.9375 C 1044.972656 367.574219 1049.578125 357.015625 1054.582031 346.34375 L 1056.410156 342.410156 C 1061.285156 332.335938 1067.050781 323.394531 1075.375 315.824219 C 1079.664062 312.96875 1082.539062 312.441406 1087.71875 312.105469 C 1091.496094 312.167969 1093.394531 312.488281 1096.933594 314.050781 C 1100.605469 316.929688 1103.71875 319.761719 1106.820312 323.265625 C 1108.535156 327.578125 1108.535156 327.578125 1109.765625 332.441406 L 1110.464844 335.105469 C 1110.957031 336.976562 1111.441406 338.851562 1111.914062 340.726562 C 1113.164062 345.648438 1114.503906 350.542969 1115.847656 355.433594 L 1116.652344 358.363281 C 1124.351562 386.03125 1137.175781 410.777344 1155.511719 432.824219 L 1158.597656 436.585938 C 1165.832031 445.042969 1173.890625 452.15625 1183.914062 457.167969 C 1181.394531 413.394531 1167.644531 375.707031 1143.570312 338.972656 C 1140 333.65625 1136.292969 328.441406 1132.519531 323.265625 C 1131.976562 322.519531 1131.4375 321.773438 1130.882812 321.003906 C 1125.464844 313.554688 1119.753906 306.332031 1113.753906 299.339844 C 1109.484375 294.132812 1106.164062 289.503906 1104.4375 282.949219 C 1103.84375 277.480469 1104.742188 272.875 1106.820312 267.808594 C 1109.457031 263.625 1111.667969 260.820312 1115.957031 258.300781 C 1136.878906 249.167969 1168.90625 259.261719 1189.492188 265.527344 M 1178.503906 308.386719 C 1178.195312 312.453125 1178.195312 312.453125 1180.171875 315.703125 L 1182.511719 319.582031 L 1185.101562 323.929688 L 1186.480469 326.230469 C 1206.925781 360.496094 1226.671875 401.738281 1227.421875 442.421875 C 1227.632812 474.855469 1227.632812 474.855469 1224.488281 489.628906 L 1223.644531 494.027344 C 1222.289062 500.300781 1220.835938 505.945312 1217.304688 511.355469 C 1213.3125 515.71875 1210.988281 517.101562 1205.554688 519.386719 C 1201.535156 520.539062 1197.492188 521.554688 1193.433594 522.558594 C 1173.953125 527.367188 1155.878906 532.367188 1140.972656 546.4375 C 1136.105469 551.820312 1131.695312 556.914062 1129.8125 564.023438 C 1128.457031 572.394531 1129.664062 579.554688 1132.433594 587.523438 C 1136.550781 597.335938 1142.445312 605.554688 1148.75 614.066406 L 1151.703125 618.382812 L 1154.496094 622.4375 L 1156.96875 626.042969 C 1159.386719 629.0625 1159.386719 629.0625 1162.617188 630.625 C 1167.285156 631.914062 1171.929688 632.445312 1176.726562 632.917969 C 1195.789062 635.117188 1212.28125 641.878906 1228.039062 652.953125 C 1236.375 659.261719 1243.964844 666.390625 1251.539062 673.578125 C 1264.496094 669.910156 1276.585938 663.632812 1286.703125 654.644531 L 1286.703125 651.9375 L 1289.042969 651 C 1297.714844 646.011719 1303.886719 635.414062 1309.105469 627.085938 C 1323.144531 601.816406 1328.910156 575.105469 1329.984375 546.4375 L 1330.152344 542.058594 C 1331.023438 495.777344 1320.101562 448.621094 1298.402344 407.742188 C 1290.425781 393.464844 1281.046875 380.355469 1270.472656 367.898438 L 1268.679688 365.757812 C 1259.152344 354.480469 1248.472656 345.5625 1236.660156 336.789062 L 1233.570312 334.34375 L 1231.25 332.734375 L 1228.546875 332.734375 L 1228.546875 330.027344 L 1224.488281 330.027344 L 1224.488281 327.324219 C 1220.296875 325.28125 1216.097656 323.257812 1211.894531 321.234375 L 1208.28125 319.476562 L 1204.808594 317.8125 L 1201.609375 316.265625 C 1198.667969 314.898438 1198.667969 314.898438 1194.734375 315.148438 L 1194.734375 312.445312 C 1192.792969 311.761719 1190.847656 311.085938 1188.902344 310.414062 L 1185.621094 309.273438 C 1182.441406 308.199219 1182.441406 308.199219 1178.503906 308.386719 M 1081.125 401.714844 C 1080.660156 404.585938 1080.210938 407.460938 1079.769531 410.335938 L 1079.011719 415.1875 C 1077.515625 427.238281 1078.773438 438.386719 1081.207031 450.238281 L 1082.121094 454.695312 C 1086.535156 475.289062 1092.746094 496.820312 1105.46875 513.976562 C 1108.300781 515.847656 1108.300781 515.847656 1110.878906 516.683594 L 1112.582031 514.992188 C 1121.054688 507.050781 1130.5 501.933594 1140.632812 496.394531 C 1143.796875 494.601562 1146.949219 492.792969 1150.101562 490.984375 L 1148.75 486.925781 C 1146.582031 485.050781 1144.355469 483.246094 1142.070312 481.515625 C 1116.082031 460.617188 1099.753906 431.164062 1085.179688 401.714844 Z M 207.410156 411.179688 L 207.410156 413.886719 L 204.425781 414.9375 C 193.863281 419.5625 185.136719 429.054688 176.738281 436.773438 C 173.597656 439.585938 173.597656 439.585938 170.1875 442.214844 C 164.089844 447.269531 159.503906 453.644531 154.660156 459.875 L 152.292969 462.902344 C 129.394531 493.898438 116.757812 530.453125 111.789062 568.445312 L 111.382812 572.136719 L 110.933594 575.789062 C 106.222656 620.800781 113.257812 669.171875 131.5 710.59375 C 137.339844 723.175781 144.835938 734.324219 153.308594 745.265625 L 155.703125 748.421875 C 167.242188 762.65625 183.832031 772.304688 200.644531 779.082031 C 204.511719 780.503906 208.429688 781.773438 212.398438 782.886719 L 215.097656 783.710938 C 217.964844 784.519531 217.964844 784.519531 222.285156 784.492188 C 227.808594 780.316406 231.308594 774.738281 235.136719 769.019531 C 240.972656 760.3125 246.535156 753.1875 254.746094 746.617188 L 254.746094 743.914062 L 256.902344 742.925781 C 260.269531 741.148438 263.382812 739.105469 266.542969 736.984375 C 274.621094 731.582031 282.511719 727.183594 291.644531 723.71875 L 295.320312 722.273438 L 299.402344 721.105469 C 303.558594 718.566406 303.558594 718.566406 305.300781 714.851562 C 307.195312 710.464844 308.894531 706.046875 310.535156 701.558594 L 312.3125 696.933594 C 320.082031 676.710938 320.082031 676.710938 320.527344 655.234375 C 318.65625 648.625 315.363281 643.261719 310.632812 638.300781 C 300.800781 630.171875 289.539062 625.9375 277.148438 623.703125 C 273.742188 623.160156 270.335938 622.652344 266.917969 622.183594 C 265.484375 621.9375 264.050781 621.695312 262.570312 621.441406 C 253.972656 620.414062 245.3125 620.394531 236.664062 620.25 L 232.417969 620.121094 L 228.589844 620.042969 C 224.324219 619.371094 221.738281 617.890625 218.230469 615.417969 C 204.203125 598.429688 197.746094 572.304688 193.773438 551.214844 C 192.164062 541.21875 191.996094 531.261719 192.023438 521.160156 L 192.027344 518.21875 C 192.144531 484.550781 198.917969 451.171875 210.566406 419.578125 C 211.726562 416.25 211.726562 416.25 211.464844 411.179688 Z M 679.296875 442.757812 C 666.136719 451.761719 654.347656 462.328125 642.914062 473.398438 L 639.847656 476.300781 C 608.246094 506.847656 586.011719 547.128906 565.820312 585.664062 L 564.179688 588.785156 C 557.25 602.023438 551.34375 615.597656 545.675781 629.417969 C 544.074219 633.242188 542.441406 637.054688 540.777344 640.855469 C 533.632812 657.402344 527.867188 673.792969 523.292969 691.226562 C 522.542969 693.867188 522.542969 693.867188 521.1875 697.15625 C 518.976562 702.84375 517.808594 708.804688 516.457031 714.75 C 515.882812 717.257812 515.304688 719.761719 514.722656 722.265625 L 513.957031 725.613281 C 513.074219 729.035156 513.074219 729.035156 511.722656 732.964844 C 509.242188 740.640625 508.253906 748.644531 506.988281 756.59375 L 506.535156 759.421875 C 495.847656 826.992188 499.4375 894.691406 523.894531 958.972656 C 526.695312 965.929688 529.890625 972.605469 533.363281 979.261719 L 535.527344 983.621094 C 543.976562 1000.101562 554.402344 1015.628906 567.136719 1029.105469 C 569.621094 1031.738281 571.898438 1034.453125 574.191406 1037.25 C 596.972656 1063.226562 628.820312 1080.222656 660.910156 1091.761719 C 701.882812 1105.539062 747.578125 1107.082031 789.800781 1098.933594 C 826.128906 1091.367188 860.515625 1075.652344 888.488281 1051.097656 C 909.125 1032.566406 925.476562 1012.859375 939.113281 988.726562 L 940.539062 986.246094 C 959.347656 953.355469 968.65625 916.425781 974.277344 879.171875 L 974.757812 876.179688 C 980.429688 839.71875 977.949219 801.679688 971.570312 765.554688 L 970.824219 761.113281 C 961.617188 706.585938 944.425781 652.949219 920.175781 603.246094 C 919.222656 601.195312 918.269531 599.140625 917.324219 597.085938 C 910.789062 582.960938 903.753906 569.300781 895.832031 555.90625 L 894.066406 552.910156 C 885.824219 538.992188 877.117188 525.578125 867.429688 512.625 L 865.722656 510.328125 C 859.050781 501.375 852.109375 492.78125 844.53125 484.570312 C 842.023438 481.832031 839.636719 479.03125 837.25 476.191406 C 819.171875 455.585938 795.777344 437.609375 769.71875 428.601562 C 766.230469 427.613281 762.792969 426.753906 759.230469 426.058594 L 755.515625 425.320312 C 728.3125 421.53125 702.371094 427.972656 679.296875 442.757812 M 322.371094 476.105469 L 321.273438 481.175781 C 313.699219 515.085938 303.316406 546.058594 282.679688 574.246094 L 280.445312 577.546875 L 280.445312 580.253906 L 282.691406 580.890625 C 308.578125 588.292969 308.578125 588.292969 319.671875 593.9375 C 322.5 595.402344 322.5 595.402344 326.429688 595.132812 C 337.628906 569.433594 339.875 541.738281 336.796875 513.976562 C 334.996094 502.382812 332.519531 488.972656 326.429688 478.808594 Z M 1164.980469 673.578125 L 1163.832031 677.351562 C 1155.257812 704.765625 1140.609375 727.546875 1119.605469 747.226562 C 1098.320312 766.464844 1073.621094 780.136719 1048.664062 793.957031 L 1048.664062 816.953125 C 1055.441406 815.984375 1060.105469 815.136719 1066.28125 812.839844 L 1070.847656 811.152344 L 1075.628906 809.34375 L 1080.574219 807.488281 C 1099.273438 800.414062 1117.511719 792.300781 1135.28125 783.148438 C 1137.027344 782.25 1138.773438 781.359375 1140.523438 780.46875 C 1170.039062 765.492188 1199.929688 745.371094 1219.632812 718.296875 C 1221.425781 715.613281 1221.425781 715.613281 1223.136719 711.453125 C 1222.96875 708.046875 1222.96875 708.046875 1221.785156 704.6875 C 1213.902344 693.722656 1199.980469 684.246094 1187.929688 678.332031 C 1180.332031 675.394531 1173.089844 674.113281 1164.980469 673.578125 M 288.558594 772.316406 C 279.066406 780.371094 272.066406 789.585938 265.3125 799.921875 C 262.863281 803.425781 262.863281 803.425781 260.15625 804.777344 C 260.078125 808.550781 260.222656 810.757812 261.507812 814.246094 C 273.679688 829.824219 296.449219 838.1875 314.175781 845.460938 C 329.660156 851.507812 345.480469 856.203125 361.59375 860.234375 L 364.34375 860.925781 C 396.425781 869.226562 396.425781 869.226562 429.21875 872.40625 C 429.363281 868.460938 429.472656 864.519531 429.558594 860.574219 L 429.695312 857.191406 L 429.746094 853.914062 L 429.832031 850.910156 C 429.390625 847.832031 429.390625 847.832031 426.898438 845.140625 C 423.605469 842.488281 421.167969 841.410156 417.132812 840.230469 L 413.164062 839.015625 L 408.929688 837.746094 C 385.496094 830.304688 364.710938 819.964844 345.363281 804.777344 L 343.148438 803.046875 C 330.894531 793.421875 330.894531 793.421875 329.132812 789.902344 L 326.429688 789.902344 L 325.410156 787.660156 C 323.382812 783.851562 320.960938 780.523438 318.398438 777.050781 L 315.574219 773.203125 L 312.902344 769.613281 L 310.953125 766.441406 L 308.847656 764.203125 C 300.769531 762.859375 294.8125 767.769531 288.558594 772.316406 " />
  <path class="claw-left" fill="#9c2821" fill-rule="nonzero" d="M 164.128906 807.484375 C 169.117188 808.96875 173.671875 810.867188 178.332031 813.148438 C 187.394531 817.378906 196.894531 820.171875 206.457031 823.039062 C 214.855469 825.601562 221.386719 827.949219 227.515625 834.433594 C 228.878906 835.957031 230.234375 837.484375 231.585938 839.015625 C 252.488281 862.078125 280.039062 875.136719 308.847656 885.933594 L 311.980469 887.160156 C 323.109375 891.402344 334.503906 894.382812 346.039062 897.261719 L 349.191406 898.054688 C 367.734375 902.710938 386.375 906.226562 405.269531 909.125 L 408.195312 909.585938 C 410.804688 909.992188 413.414062 910.386719 416.023438 910.773438 L 419.75 911.632812 L 421.105469 914.335938 C 405.992188 913.75 391.65625 911.265625 376.894531 908.167969 L 373.398438 907.441406 C 327.503906 897.863281 279.59375 884.84375 242.574219 854.824219 L 238.261719 851.613281 C 233.363281 847.039062 229.402344 841.902344 225.324219 836.59375 C 222.113281 832.988281 219.882812 831.175781 215.523438 829.125 C 211.167969 827.75 206.757812 826.628906 202.335938 825.492188 C 188.78125 821.839844 176.578125 816.617188 164.128906 810.1875 Z M 305.042969 760.882812 L 308.847656 761.496094 C 311.328125 763.683594 311.328125 763.683594 313.410156 766.738281 L 315.800781 770.078125 L 318.3125 773.667969 C 320.152344 776.109375 322.011719 778.535156 323.894531 780.941406 L 326.441406 784.265625 C 329.324219 787.402344 332.226562 789.140625 335.894531 791.253906 C 336.820312 793.046875 337.722656 794.847656 338.601562 796.664062 C 340.390625 797.589844 342.199219 798.488281 344.011719 799.367188 L 347.011719 802.433594 C 365.597656 820.707031 391.667969 829.398438 415.679688 837.992188 L 418.539062 839.023438 C 420.703125 839.800781 422.878906 840.558594 425.050781 841.308594 L 427.867188 842.652344 C 430.570312 846.707031 430.570312 846.707031 430.835938 849.472656 L 430.570312 857.527344 L 429.21875 857.527344 L 429.191406 855.078125 C 428.824219 851.332031 428.246094 848.710938 426.515625 845.355469 C 421.527344 842.238281 416.089844 840.90625 410.453125 839.355469 C 407.234375 838.355469 404.015625 837.339844 400.804688 836.3125 L 395.953125 834.761719 C 377.445312 828.414062 360.632812 818.242188 345.363281 806.132812 L 342.992188 804.265625 C 333.394531 796.664062 333.394531 796.664062 329.132812 792.605469 L 329.132812 789.902344 L 326.429688 789.902344 C 324.363281 787.4375 322.410156 784.882812 320.511719 782.292969 L 317.351562 778.011719 C 314.4375 773.914062 311.601562 769.761719 308.847656 765.554688 C 304.121094 765.757812 300.652344 766.253906 296.421875 768.421875 C 282.28125 777.480469 273.292969 789.636719 264.214844 803.425781 L 261.507812 802.074219 C 264.96875 792.285156 271.765625 783.578125 278.921875 776.121094 L 281.796875 773.667969 L 284.5 773.667969 L 284.5 770.964844 C 287.765625 768.628906 287.765625 768.628906 292.109375 766.0625 L 296.386719 763.472656 C 300.730469 761.496094 300.730469 761.496094 305.042969 760.882812 M 110.027344 565.375 L 112.734375 565.375 L 112.4375 569.40625 C 108.894531 620.855469 114.21875 672.242188 136.898438 719.210938 C 137.851562 721.136719 138.8125 723.058594 139.785156 724.976562 C 137.371094 724.148438 137.371094 724.148438 134.375 722.273438 C 116.503906 694.324219 109.203125 654.925781 107.324219 622.183594 C 107.117188 615.671875 107.074219 609.167969 107.070312 602.65625 L 107.019531 597.652344 C 107.003906 586.652344 108.03125 576.191406 110.027344 565.375 M 500.902344 868.351562 L 503.605469 868.351562 L 503.996094 871.273438 C 510.921875 922.488281 525 968.269531 553.648438 1011.722656 C 551.339844 1010.949219 551.339844 1010.949219 548.238281 1009.015625 C 545.988281 1006.011719 543.875 1002.910156 541.898438 999.71875 L 540.25 997.15625 C 536.230469 990.785156 536.230469 990.785156 535.398438 987.175781 L 534.714844 984.671875 L 532.007812 983.316406 C 530.464844 980.527344 529.027344 977.679688 527.699219 974.78125 L 526.453125 972.105469 C 521.160156 960.378906 517.140625 948.171875 513.074219 935.976562 L 511.617188 931.691406 C 505.042969 911.503906 499.632812 889.710938 500.902344 868.351562 M 377.824219 511.273438 L 380.527344 511.273438 C 384.105469 546.128906 380.738281 580.34375 367.003906 612.714844 L 364.300781 612.714844 C 365.023438 608.148438 365.800781 603.65625 367.003906 599.1875 L 369.707031 599.1875 C 370.632812 594.234375 371.535156 589.273438 372.414062 584.308594 L 372.917969 581.476562 C 376.828125 559.355469 379.238281 537.898438 376.636719 515.441406 L 376.472656 512.625 Z M 307.492188 523.445312 L 310.199219 523.445312 C 305.722656 544.382812 292.496094 562.96875 280.445312 580.253906 L 284.808594 581.152344 C 298.128906 584.019531 310.054688 587.921875 322.371094 593.777344 L 318.3125 595.132812 C 315.140625 594.011719 312.011719 592.773438 308.929688 591.410156 C 301.070312 588.089844 293.402344 585.609375 285.03125 583.824219 C 281.796875 582.957031 281.796875 582.957031 277.738281 580.253906 C 278.609375 575.429688 280.621094 572.144531 283.316406 568.078125 C 290.640625 556.789062 297.546875 545.726562 302.308594 533.097656 C 303.675781 529.59375 305.265625 526.484375 307.492188 523.445312 M 339.953125 422.003906 L 344.011719 423.355469 C 361.949219 445.351562 374.296875 473.855469 379.175781 501.804688 C 379.34375 506.621094 379.34375 506.621094 379.175781 509.917969 L 376.472656 509.917969 L 375.9375 507.527344 C 375.109375 503.867188 374.269531 500.214844 373.429688 496.5625 L 372.589844 492.800781 C 370.859375 485.316406 368.503906 478.035156 365.523438 470.953125 C 364.09375 467.488281 362.960938 463.984375 361.933594 460.382812 L 360.9375 456.945312 L 360.242188 454.464844 L 357.535156 454.464844 L 355.945312 449.722656 C 353.605469 443.484375 350.273438 438.335938 346.460938 432.90625 C 344.273438 429.738281 342.101562 426.554688 339.953125 423.355469 Z M 592.871094 532.914062 L 595.578125 532.914062 C 593.882812 537.402344 591.835938 541.726562 589.4375 545.882812 L 587.410156 549.410156 L 585.261719 553.117188 L 583.0625 556.945312 C 579.84375 562.550781 576.605469 568.144531 573.355469 573.726562 C 568.53125 582.042969 564.089844 590.296875 560.410156 599.1875 L 557.707031 597.835938 C 559.4375 592.070312 561.726562 586.925781 564.472656 581.601562 C 565.65625 579.230469 566.683594 576.785156 567.679688 574.335938 C 570.085938 568.96875 572.988281 564.128906 576.058594 559.125 C 578.28125 555.425781 580.207031 551.683594 582.050781 547.789062 L 584.757812 547.789062 L 585.769531 544.15625 C 587.527344 539.496094 589.472656 536.523438 592.871094 532.914062 M 203.351562 411.179688 L 206.054688 413.886719 L 202.78125 416.320312 C 187.164062 428.0625 172.585938 440.871094 159.648438 455.5625 L 156.789062 458.800781 L 154.660156 461.226562 L 151.957031 458.519531 C 157.855469 450.65625 164.253906 443.214844 171.144531 436.203125 L 173.1875 434.089844 C 177.101562 430.179688 180.464844 427.691406 185.769531 426.058594 L 185.769531 423.355469 C 188.242188 421.457031 188.242188 421.457031 191.515625 419.382812 C 195.585938 416.78125 199.519531 414.125 203.351562 411.179688 M 193.882812 478.808594 L 195.238281 478.808594 C 195.75 481.957031 196.203125 485.113281 196.589844 488.277344 L 195.238281 489.628906 C 193.625 501.40625 193.710938 513.441406 193.632812 525.304688 L 193.578125 529.492188 C 193.566406 537.457031 194.328125 544.210938 196.589844 551.847656 C 197.519531 556.414062 197.519531 556.414062 197.941406 559.964844 L 196.589844 562.667969 L 199.292969 562.667969 L 197.941406 568.078125 L 200.644531 568.078125 L 201.152344 572.476562 C 201.898438 576.9375 202.613281 579.128906 204.703125 582.957031 C 205.492188 584.777344 206.253906 586.609375 206.988281 588.453125 L 208.101562 591.207031 L 208.761719 593.777344 L 207.410156 597.835938 C 201.488281 585.03125 196.792969 572.464844 193.882812 558.613281 L 193.148438 555.15625 C 191.109375 544.464844 190.761719 533.964844 190.824219 523.125 C 190.839844 520.246094 190.824219 517.363281 190.808594 514.484375 C 190.800781 502.347656 191.8125 490.792969 193.882812 478.808594 M 357.535156 687.105469 L 360.242188 687.105469 C 359.464844 694.304688 357.730469 700.417969 355.085938 707.140625 L 353.996094 710.003906 C 351.949219 715.335938 349.75 720.582031 347.476562 725.824219 C 345.984375 729.585938 345.363281 731.773438 345.28125 735.882812 C 349.371094 747.195312 356.058594 755.554688 364.300781 764.203125 L 361.59375 765.554688 C 353.855469 758.542969 346.847656 749.847656 342.335938 740.410156 C 340.960938 736.050781 341.128906 732.925781 341.75 728.445312 C 343.179688 722.988281 345.914062 718.320312 348.566406 713.371094 C 352.574219 704.976562 354.976562 696.027344 357.535156 687.105469 M 448.152344 957.621094 L 450.859375 960.324219 L 451.535156 964.46875 L 452.210938 968.441406 L 454.917969 969.792969 C 455.554688 971.988281 456.1875 974.1875 456.753906 976.402344 C 458.070312 980.738281 460.015625 984.746094 461.941406 988.839844 C 463.03125 991.433594 463.03125 991.433594 463.03125 994.136719 L 465.738281 994.136719 L 466.089844 996.800781 C 467.441406 1002.359375 469.792969 1007.246094 472.246094 1012.398438 L 473.652344 1015.457031 C 476.34375 1021.164062 479.289062 1025.761719 483.320312 1030.65625 C 484.609375 1033.808594 485.238281 1036.792969 486.023438 1040.125 C 480.085938 1035.128906 477.085938 1028.734375 473.597656 1021.953125 L 471.636719 1018.167969 C 448.152344 972.183594 448.152344 972.183594 448.152344 957.621094 M 500.902344 781.785156 L 503.605469 781.785156 L 500.902344 849.414062 L 498.195312 849.414062 C 497.914062 826.71875 497.6875 804.3125 500.902344 781.785156 M 322.371094 472.046875 L 325.078125 472.046875 C 326.441406 475.085938 327.792969 478.128906 329.132812 481.175781 L 330.304688 483.777344 C 332.324219 488.390625 333.191406 491.265625 333.191406 496.394531 L 335.894531 497.746094 L 335.894531 508.566406 L 338.601562 509.917969 L 337.25 518.035156 L 335.894531 518.035156 L 334.902344 512.886719 C 331.582031 495.355469 331.582031 495.355469 325.078125 478.808594 L 323.722656 477.457031 L 316.960938 504.507812 L 314.257812 504.507812 L 319.667969 474.753906 L 322.371094 474.753906 Z M 268.269531 821.011719 C 272.503906 823.023438 276.507812 825.363281 280.546875 827.730469 C 296.886719 837.230469 314.148438 844.210938 331.839844 850.765625 C 329.617188 851.597656 329.617188 851.597656 326.429688 852.117188 C 320.59375 850.601562 315.046875 848.230469 309.4375 846.03125 L 304.808594 844.300781 C 291.289062 839.070312 278.984375 832.207031 268.269531 822.363281 Z M 553.648438 604.597656 L 556.355469 604.597656 C 552.863281 615.652344 548.535156 626.328125 544.179688 637.058594 C 543.109375 639.738281 542.039062 642.414062 540.96875 645.09375 L 538.769531 650.585938 L 536.066406 649.234375 C 536.984375 643.460938 538.921875 638.292969 541.136719 632.917969 L 542.222656 630.246094 C 543.324219 627.554688 544.425781 624.867188 545.535156 622.183594 L 547.527344 617.296875 C 552.105469 606.140625 552.105469 606.140625 553.648438 604.597656 M 138.429688 726.328125 L 142.488281 727.683594 C 144.535156 730.371094 146.480469 733.132812 148.320312 735.96875 C 156.269531 747.710938 163.820312 755.890625 175.34375 764.179688 C 178.207031 766.3125 180.65625 768.351562 183.0625 770.964844 C 170.582031 766.328125 160.824219 757.722656 151.957031 747.972656 C 146.933594 741.554688 142.542969 734.710938 138.429688 727.683594 Z M 256.097656 411.179688 L 258.804688 411.179688 C 255.964844 421.085938 252.734375 430.847656 249.429688 440.605469 L 248.394531 443.675781 L 247.464844 446.421875 C 246.625 449.082031 245.925781 451.75 245.277344 454.464844 L 242.574219 454.464844 C 244.199219 439.828125 249.003906 426.039062 254.746094 412.535156 Z M 149.25 461.226562 L 153.308594 461.226562 C 151.601562 465.859375 149.632812 469.703125 146.800781 473.738281 C 142.699219 479.734375 139.148438 485.933594 135.726562 492.335938 L 133.019531 490.984375 C 135.128906 482.691406 138.378906 476.261719 143.164062 469.257812 L 144.769531 466.863281 C 146.335938 464.644531 146.335938 464.644531 149.25 461.226562 M 268.269531 357.078125 L 272.328125 358.429688 C 274.410156 362.15625 275.042969 365.265625 275.542969 369.507812 C 274.863281 376.394531 272.4375 381.914062 269.625 388.1875 L 268.058594 391.757812 C 266.792969 394.632812 265.511719 397.5 264.214844 400.359375 L 261.507812 399.007812 C 263.492188 392.65625 265.625 386.578125 268.527344 380.578125 C 270.339844 376.585938 271.027344 374.15625 271.484375 369.675781 C 270.96875 365.140625 269.929688 361.320312 268.269531 357.078125 M 238.515625 465.285156 L 241.222656 465.285156 C 240.320312 475.074219 239.113281 484.796875 237.757812 494.535156 C 237.113281 499.210938 236.464844 503.890625 235.8125 508.566406 L 231.753906 507.214844 C 232.492188 501.894531 233.238281 496.574219 233.988281 491.257812 L 234.75 485.828125 C 235.113281 483.226562 235.480469 480.625 235.847656 478.023438 L 236.511719 473.28125 C 237.164062 469.34375 237.164062 469.34375 238.515625 465.285156 M 231.753906 511.273438 L 234.457031 511.273438 C 234.914062 516.285156 235.367188 521.304688 235.8125 526.320312 L 236.203125 530.609375 C 236.792969 537.257812 237.347656 543.8125 237.164062 550.496094 L 234.457031 550.496094 C 232.167969 537.210938 231.414062 524.722656 231.753906 511.273438 M 435.980469 743.914062 L 437.332031 743.914062 C 438.496094 749.457031 438.609375 753.3125 437.332031 758.792969 C 437.152344 760.59375 436.984375 762.398438 436.828125 764.203125 C 435.972656 772.476562 433.90625 780.484375 431.925781 788.546875 L 430.570312 788.546875 C 431.285156 773.453125 433.460938 758.792969 435.980469 743.914062 M 560.410156 1023.894531 C 565.945312 1026.019531 569.210938 1030.023438 573.007812 1034.378906 C 578.390625 1040.417969 583.832031 1045.878906 590.167969 1050.945312 L 586.109375 1050.945312 C 583.160156 1048.585938 580.3125 1046.105469 577.570312 1043.507812 L 575.1875 1041.28125 C 569.535156 1035.910156 564.773438 1030.375 560.410156 1023.894531 M 116.792969 532.914062 L 119.496094 532.914062 C 117.808594 542.402344 116.003906 551.871094 114.085938 561.316406 L 111.382812 561.316406 C 112.003906 551.433594 113.929688 542.382812 116.792969 532.914062 M 208.761719 597.835938 C 211.847656 600.691406 213.832031 603.464844 215.863281 607.136719 C 219.375 612.960938 223.324219 615.886719 229.050781 619.476562 L 224.992188 620.828125 C 220.164062 618.578125 217.667969 616.519531 214.546875 612.1875 C 212.453125 608.800781 210.457031 605.496094 208.761719 601.894531 Z M 258.804688 347.609375 C 262.402344 349.066406 265.039062 350.777344 268.269531 353.019531 L 269.625 355.726562 C 260.324219 353.191406 260.324219 353.191406 258.804688 351.667969 C 255.394531 351.570312 251.984375 351.542969 248.578125 351.585938 L 245.660156 351.601562 C 243.28125 351.621094 240.898438 351.640625 238.515625 351.667969 C 244.871094 347.433594 251.195312 346.550781 258.804688 347.609375 M 70.804688 653.292969 C 76.648438 664.191406 78.238281 676.261719 78.921875 688.457031 C 75.671875 683.585938 74.632812 678.777344 73.34375 673.15625 L 72.597656 670.09375 C 71.261719 664.378906 70.523438 659.207031 70.804688 653.292969 M 515.777344 708.746094 L 518.484375 708.746094 C 518.0625 711.113281 517.640625 713.480469 517.214844 715.847656 L 516.503906 719.839844 C 515.910156 722.945312 515.234375 725.980469 514.425781 729.035156 L 511.722656 729.035156 C 512.324219 721.902344 513.1875 715.484375 515.777344 708.746094 M 362.945312 614.066406 L 365.652344 614.066406 C 363.566406 620.449219 361.488281 626.804688 358.890625 633.003906 L 356.183594 633.003906 C 356.8125 625.285156 358.804688 620.613281 362.945312 614.066406 M 440.039062 927.863281 C 443.570312 931.394531 444.480469 934.804688 445.992188 939.496094 C 447.09375 943.910156 447.089844 947.683594 446.800781 952.207031 C 444.144531 948.226562 443.125 945.367188 441.898438 940.796875 C 441.371094 938.875 441.371094 938.875 440.832031 936.914062 C 440.039062 933.273438 440.039062 933.273438 440.039062 927.863281 M 503.605469 762.847656 L 506.3125 762.847656 L 504.957031 779.082031 L 500.902344 779.082031 Z M 445.449219 701.984375 C 446.679688 706.140625 446.921875 709.828125 446.800781 714.15625 L 444.097656 714.15625 L 443.894531 716.773438 L 443.589844 720.160156 L 443.304688 723.535156 L 442.742188 726.328125 L 440.039062 727.683594 C 441.386719 718.949219 442.765625 710.414062 445.449219 701.984375 M 523.894531 681.695312 L 526.597656 681.695312 L 523.894531 693.867188 L 521.1875 692.515625 C 521.59375 689.351562 522.042969 686.195312 522.542969 683.046875 Z " />
  <path class="claw-mid" fill="#9c2821" fill-rule="nonzero" d="M 705.128906 428.765625 L 705.128906 431.46875 L 700.859375 433.265625 C 678.246094 443.128906 660.527344 457.710938 642.914062 474.753906 L 640.152344 477.351562 C 623.460938 493.390625 609.535156 513.578125 596.929688 532.914062 L 594.222656 530.207031 C 596.40625 526.589844 598.609375 522.988281 600.816406 519.386719 L 602.703125 516.261719 L 604.527344 513.300781 L 606.199219 510.554688 L 607.75 508.566406 L 610.453125 508.566406 L 611.589844 506.167969 C 618.382812 493.125 629.925781 482.332031 640.207031 472.046875 L 642.660156 468.851562 C 645.722656 465.160156 648.890625 462.359375 652.636719 459.367188 L 656.613281 456.179688 L 660.496094 453.109375 L 663.746094 450.507812 C 691.171875 428.765625 691.171875 428.765625 705.128906 428.765625 M 774.246094 427.40625 C 803.949219 438.734375 830.773438 463.3125 850.605469 487.519531 C 852.609375 490.023438 854.613281 492.53125 856.609375 495.039062 C 858.804688 497.71875 861.003906 500.398438 863.203125 503.074219 C 865.070312 505.347656 866.933594 507.628906 868.78125 509.917969 L 871.242188 512.796875 L 872.839844 515.328125 L 871.488281 519.386719 L 869.941406 517.367188 C 856.992188 500.421875 856.992188 500.421875 843 484.34375 C 840.488281 481.632812 838.109375 478.84375 835.730469 476.019531 C 819.960938 458.015625 798.085938 440.464844 775.488281 431.796875 C 757.914062 425.859375 738.207031 423.511719 719.828125 426.96875 C 715.785156 427.910156 711.804688 428.917969 707.832031 430.117188 L 707.832031 426.058594 C 729.40625 418.828125 752.804688 420.519531 774.246094 427.40625 M 747.054688 353.019531 C 769.96875 351.519531 793.285156 359.359375 813.660156 369.300781 C 857.378906 391.375 857.378906 391.375 868.78125 408.476562 C 863.648438 406.238281 859.519531 402.890625 855.171875 399.433594 C 842.871094 389.820312 829.84375 381.921875 816.035156 374.664062 L 813.410156 373.242188 C 810.710938 371.824219 807.980469 370.527344 805.214844 369.253906 L 801.035156 367.308594 C 783.75 359.796875 765.636719 356.921875 747.054688 354.375 Z M 968.867188 543.734375 L 971.570312 543.734375 C 975.515625 551.996094 979.453125 560.261719 983.378906 568.53125 C 984.789062 571.488281 986.203125 574.445312 987.625 577.398438 C 992.597656 587.839844 997.179688 598.421875 1001.664062 609.078125 L 1003.40625 613.1875 C 1006.855469 621.472656 1009.761719 629.757812 1012.144531 638.414062 L 1009.441406 638.414062 L 1007.5 633.492188 C 1002.484375 620.816406 997.355469 608.1875 992.027344 595.636719 L 990.46875 591.925781 L 988.996094 588.484375 L 987.703125 585.441406 C 986.488281 582.71875 986.488281 582.71875 983.742188 580.253906 C 982.671875 577.597656 981.65625 574.921875 980.699219 572.222656 C 977.882812 564.640625 974.503906 557.785156 970.402344 550.824219 C 968.867188 547.789062 968.867188 547.789062 968.867188 543.734375 M 868.78125 408.476562 C 872.789062 410.28125 875.621094 412.265625 878.730469 415.359375 L 881.261719 417.875 L 883.910156 420.566406 L 886.652344 423.324219 C 892.800781 429.574219 898.59375 436.144531 904.027344 443.03125 C 907.878906 447.898438 911.988281 452.535156 916.117188 457.167969 L 912.0625 457.167969 C 909.132812 454.4375 909.132812 454.4375 905.804688 450.660156 L 904.007812 448.632812 C 899.972656 444.054688 896.113281 439.347656 892.28125 434.597656 C 885.976562 426.800781 879.359375 419.613281 871.488281 413.378906 L 868.78125 411.179688 Z M 964.808594 731.742188 C 967.460938 735.71875 968.433594 738.5 969.628906 743.066406 L 970.644531 746.902344 C 972.207031 753.273438 973.230469 757.75 971.570312 764.203125 L 974.277344 764.203125 L 974.277344 781.785156 L 972.921875 781.785156 C 971.820312 775.726562 970.71875 769.667969 969.628906 763.609375 L 968.683594 758.445312 C 967.082031 749.554688 965.660156 740.734375 964.808594 731.742188 M 943.167969 500.449219 L 947.226562 501.804688 C 948.929688 504.066406 948.929688 504.066406 950.582031 506.964844 L 952.390625 510.097656 L 954.242188 513.386719 L 956.140625 516.691406 C 957.6875 519.386719 959.226562 522.089844 960.75 524.796875 L 956.695312 526.148438 C 955.335938 523.730469 953.984375 521.304688 952.636719 518.878906 L 950.355469 514.789062 C 948.578125 511.273438 948.578125 511.273438 948.578125 508.566406 L 945.875 508.566406 Z M 971.570312 888.636719 C 972.949219 891.050781 972.949219 891.050781 974.277344 894.046875 C 973.855469 898.699219 973.855469 898.699219 972.921875 903.515625 L 972.164062 907.492188 C 971.96875 908.410156 971.773438 909.328125 971.570312 910.277344 L 968.867188 910.277344 L 969.796875 912.394531 C 970.21875 915.691406 970.21875 915.691406 969.40625 918.15625 C 968.378906 920.515625 967.277344 922.839844 966.160156 925.15625 C 965.050781 921.878906 964.808594 919.738281 965.277344 916.277344 L 966.15625 912.414062 L 967.09375 908.214844 L 968.105469 903.855469 L 969.101562 899.433594 C 969.914062 895.832031 970.738281 892.234375 971.570312 888.636719 M 955.339844 693.867188 C 961.335938 702.859375 963.464844 713.03125 964.808594 723.625 C 964.847656 725.878906 964.863281 728.132812 964.808594 730.386719 C 961.691406 724.539062 960.210938 718.515625 958.554688 712.128906 L 957.613281 708.625 L 956.726562 705.238281 L 955.917969 702.167969 C 955.339844 699.277344 955.339844 699.277344 955.339844 693.867188 M 922.882812 470.695312 C 925.183594 471.488281 925.183594 471.488281 928.292969 473.398438 C 930.554688 476.300781 932.695312 479.285156 934.714844 482.359375 L 936.402344 484.867188 C 937.765625 486.898438 939.117188 488.9375 940.464844 490.984375 L 936.40625 492.335938 C 931.597656 485.265625 927.019531 478.175781 922.882812 470.695312 M 937.757812 643.824219 C 940.699219 646.175781 942.792969 648.269531 944.179688 651.8125 C 946.101562 658.925781 946.101562 658.925781 945.253906 663.097656 L 944.519531 665.464844 C 943.386719 662.621094 942.261719 659.777344 941.140625 656.925781 L 939.238281 652.125 C 937.757812 647.882812 937.757812 647.882812 937.757812 643.824219 M 926.9375 616.773438 C 931.65625 622.613281 934.664062 628.09375 935.984375 635.539062 L 936.40625 639.765625 C 933.09375 636.453125 931.941406 633.351562 930.152344 629.03125 L 928.324219 624.683594 C 926.9375 620.828125 926.9375 620.828125 926.9375 616.773438 M 959.398438 527.503906 L 963.457031 528.855469 C 965.332031 531.945312 965.332031 531.945312 967.09375 535.703125 L 968.882812 539.46875 L 970.21875 542.378906 L 966.160156 541.027344 L 966.160156 538.324219 L 963.457031 538.324219 Z M 947.226562 669.523438 C 950.382812 673.394531 952.507812 676.910156 953.988281 681.695312 C 954.15625 686.175781 954.15625 686.175781 953.988281 689.8125 C 951.621094 686.261719 950.398438 683.648438 949.085938 679.667969 L 948.015625 676.496094 C 947.226562 673.578125 947.226562 673.578125 947.226562 669.523438 " />
  <path class="claw-right" fill="#9c2821" fill-rule="nonzero" d="M 1008.089844 1006.3125 L 1010.792969 1006.3125 C 999.21875 1044.207031 967.253906 1077.101562 939.113281 1103.695312 C 921.609375 1119.335938 901.71875 1132.085938 880.953125 1142.921875 L 878.289062 1144.320312 C 828.164062 1170.261719 771.726562 1177.734375 715.949219 1175.382812 C 665.332031 1172.316406 614.738281 1156.4375 571.929688 1129.085938 C 558.761719 1120.382812 546.617188 1110.382812 535.019531 1099.691406 C 532.269531 1097.171875 529.453125 1094.769531 526.597656 1092.367188 C 510.617188 1078.378906 497.378906 1060.699219 486.023438 1042.832031 L 487.375 1040.125 L 490.925781 1044.859375 C 491.671875 1045.847656 492.410156 1046.835938 493.175781 1047.855469 C 494.640625 1049.8125 496.101562 1051.773438 497.550781 1053.742188 C 502.039062 1059.804688 506.753906 1065.566406 511.722656 1071.234375 L 513.910156 1073.800781 C 524.65625 1086.46875 524.65625 1086.46875 537.417969 1096.933594 L 537.417969 1099.640625 L 539.5625 1100.554688 C 544.027344 1103 547.839844 1106.175781 551.789062 1109.359375 C 568.808594 1122.898438 586.238281 1133.972656 606.058594 1143.003906 L 610.785156 1145.167969 C 621.347656 1149.949219 631.789062 1154.472656 642.914062 1157.800781 L 645.65625 1158.625 C 663.828125 1164.003906 682.324219 1167.292969 701.070312 1169.972656 L 704.070312 1170.410156 C 737.707031 1174.765625 774.90625 1171.984375 807.917969 1164.5625 L 812.859375 1163.527344 C 834.75 1158.558594 856.234375 1150.628906 876.558594 1141.144531 L 879.3125 1139.863281 C 883.289062 1137.933594 886.65625 1135.921875 890.105469 1133.140625 L 893.125 1130.746094 L 897.183594 1130.746094 L 897.183594 1128.042969 L 900.761719 1126.363281 C 905.207031 1124.03125 908.992188 1121.429688 912.992188 1118.40625 C 919.738281 1113.3125 919.738281 1113.3125 924.234375 1111.8125 L 925.585938 1109.105469 L 929.644531 1107.753906 L 930.996094 1103.695312 L 933.703125 1103.695312 L 933.703125 1100.992188 C 935.753906 1099.199219 937.867188 1097.480469 940.042969 1095.835938 C 948.316406 1089.496094 955.125 1082.269531 961.851562 1074.363281 L 964 1071.84375 C 973.960938 1060.105469 983.707031 1048.621094 990.507812 1034.714844 L 993.210938 1034.714844 L 994.21875 1031.988281 C 996.328125 1026.976562 998.835938 1022.253906 1001.410156 1017.46875 L 1002.902344 1014.664062 C 1006.554688 1007.84375 1006.554688 1007.84375 1008.089844 1006.3125 M 1354.328125 622.183594 L 1358.386719 622.183594 C 1355.8125 631.03125 1352.265625 638.625 1347.566406 646.527344 L 1345.421875 650.300781 L 1343.253906 654.050781 C 1342.59375 655.195312 1341.933594 656.34375 1341.253906 657.523438 L 1339.453125 660.054688 L 1336.746094 660.054688 L 1335.816406 662.949219 C 1333.6875 667.589844 1330.746094 670.933594 1327.277344 674.59375 L 1325.261719 676.746094 C 1312.699219 689.984375 1298.875 702.046875 1282.011719 709.453125 C 1277.191406 711.582031 1273.277344 713.605469 1269.121094 716.863281 C 1265.269531 722.144531 1262.652344 728.097656 1259.859375 733.980469 C 1248.683594 757.347656 1226.410156 776.578125 1205.554688 791.253906 L 1203.320312 792.847656 C 1179.996094 809.398438 1154.542969 822.910156 1128.460938 834.535156 L 1124.320312 836.410156 C 1104.082031 845.527344 1083.796875 853.425781 1062.640625 860.070312 L 1057.691406 861.640625 L 1053.292969 863 L 1050.015625 864.292969 C 1048.371094 867.585938 1048.230469 870.269531 1047.902344 873.929688 L 1047.558594 877.660156 L 1047.3125 880.523438 L 1044.605469 880.523438 C 1044.457031 878.15625 1044.355469 875.789062 1044.269531 873.421875 L 1044.078125 869.425781 L 1044.605469 865.644531 C 1047.347656 862.308594 1049.59375 860.425781 1053.535156 858.632812 L 1057.523438 857.328125 L 1061.96875 855.839844 C 1063.519531 855.339844 1065.070312 854.835938 1066.667969 854.316406 C 1069.859375 853.25 1073.050781 852.175781 1076.238281 851.097656 L 1080.902344 849.53125 C 1092.148438 845.667969 1103.210938 841.320312 1113.746094 835.789062 C 1116.734375 834.316406 1119.78125 833.121094 1122.882812 831.914062 C 1128.847656 829.585938 1134.515625 826.863281 1140.195312 823.914062 C 1143.339844 822.363281 1143.339844 822.363281 1146.59375 821.085938 C 1160.007812 815.628906 1172.570312 807.511719 1184.800781 799.8125 C 1187.972656 798.015625 1187.972656 798.015625 1190.675781 798.015625 L 1190.675781 795.3125 C 1192.898438 793.90625 1195.152344 792.554688 1197.4375 791.253906 C 1204.941406 785.886719 1212.328125 780.367188 1219.246094 774.261719 L 1223.136719 770.964844 L 1225.839844 770.964844 L 1225.839844 768.257812 C 1228.113281 766.066406 1228.113281 766.066406 1231.082031 763.609375 C 1234.582031 760.707031 1236.8125 758.566406 1239.367188 754.734375 L 1242.070312 754.734375 L 1243.148438 752.457031 C 1244.957031 748.972656 1247.023438 745.761719 1249.171875 742.476562 C 1253.257812 736.128906 1256.917969 729.660156 1260.386719 722.957031 C 1263.15625 718.191406 1265.644531 714.207031 1270.328125 711.113281 C 1273.414062 709.359375 1276.535156 707.671875 1279.6875 706.042969 C 1285.847656 702.792969 1291.835938 699.605469 1297.453125 695.476562 L 1301.582031 692.515625 L 1304.285156 692.515625 L 1305.640625 688.457031 C 1307.898438 686.570312 1307.898438 686.570312 1310.710938 684.65625 C 1314.464844 681.96875 1317.484375 679.402344 1320.347656 675.777344 L 1323.222656 672.226562 L 1325.925781 672.226562 L 1327.050781 669.859375 C 1328.609375 666.863281 1330.347656 664.183594 1332.265625 661.40625 C 1336.625 654.996094 1340.40625 648.3125 1344.164062 641.535156 L 1346.214844 638.414062 L 1348.917969 638.414062 L 1350.101562 634.101562 C 1351.316406 629.988281 1352.660156 626.121094 1354.328125 622.183594 M 1148.75 707.394531 L 1151.453125 707.394531 C 1144.960938 725.449219 1127.667969 741.867188 1113.441406 754.28125 C 1093.898438 770.050781 1072.4375 782.746094 1050.015625 793.957031 L 1050.015625 818.304688 L 1045.957031 816.953125 C 1045.585938 813.488281 1045.253906 810.027344 1044.945312 806.554688 L 1044.613281 803.597656 C 1044.375 800.703125 1044.375 800.703125 1044.605469 795.3125 C 1046.757812 791.503906 1046.757812 791.503906 1050.015625 788.546875 C 1053.972656 786.246094 1053.972656 786.246094 1058.554688 784.152344 C 1075.984375 775.894531 1094.625 765.898438 1108.171875 752.027344 C 1109.988281 750.347656 1111.820312 748.683594 1113.667969 747.042969 L 1116.421875 744.574219 C 1118.992188 742.5625 1118.992188 742.5625 1123.050781 741.207031 L 1123.050781 738.503906 L 1125.757812 738.503906 L 1127.109375 734.445312 L 1129.8125 734.445312 L 1130.886719 732.199219 C 1135.542969 723.175781 1140.859375 713.929688 1148.75 707.394531 M 1093.296875 312.445312 C 1098.910156 314.925781 1102.773438 318.695312 1106.820312 323.265625 C 1108.535156 327.578125 1108.535156 327.578125 1109.765625 332.441406 L 1110.464844 335.105469 C 1110.957031 336.976562 1111.441406 338.851562 1111.914062 340.726562 C 1113.164062 345.648438 1114.503906 350.542969 1115.847656 355.433594 L 1116.652344 358.363281 C 1122.335938 378.789062 1131.160156 397.09375 1141.984375 415.238281 L 1143.339844 417.945312 C 1140.324219 416.671875 1138.292969 415.699219 1136.246094 413.105469 L 1134.820312 410.550781 L 1133.195312 407.65625 L 1131.503906 404.503906 L 1129.714844 401.191406 C 1117.714844 378.550781 1110.710938 355.984375 1104.96875 331.003906 L 1104.117188 327.324219 L 1103.511719 324.222656 L 1102.765625 321.910156 C 1096.191406 318.453125 1088.488281 317.046875 1081.125 316.5 C 1077.164062 317.796875 1077.164062 317.796875 1074.359375 320.558594 L 1070.558594 323.519531 L 1067.597656 325.96875 C 1069.148438 321.785156 1070.902344 320.011719 1074.277344 316.925781 C 1080.386719 312.3125 1085.796875 311.632812 1093.296875 312.445312 M 1219.078125 501.804688 L 1221.785156 501.804688 C 1221.363281 506.550781 1220.25 508.828125 1217.472656 512.792969 C 1214.152344 516.902344 1210.402344 518.691406 1205.554688 520.738281 C 1200.011719 522.328125 1194.414062 523.671875 1188.816406 525.050781 C 1171.386719 529.578125 1155.0625 534.542969 1141.648438 547.113281 C 1136.910156 552.324219 1133.875 557.539062 1131.167969 564.023438 L 1128.460938 564.023438 C 1128.886719 559.078125 1129.683594 556.113281 1132.382812 551.894531 C 1139.902344 542.867188 1147.304688 535.195312 1158.214844 530.207031 C 1160.921875 529.75 1163.625 529.300781 1166.332031 528.855469 L 1167.683594 526.148438 C 1171.0625 525.058594 1171.0625 525.058594 1175.519531 524.003906 L 1180.386719 522.808594 C 1183.78125 522 1187.175781 521.191406 1190.570312 520.390625 C 1202.320312 517.628906 1202.320312 517.628906 1212.316406 511.273438 C 1214.507812 508.777344 1214.507812 508.777344 1216.035156 506.199219 Z M 1210.964844 378.71875 L 1213.667969 378.71875 C 1222.101562 403.003906 1228.816406 425.90625 1228.800781 451.84375 L 1228.796875 456.789062 C 1228.71875 467.988281 1228.136719 478.644531 1225.839844 489.628906 L 1225.058594 493.457031 C 1224.460938 496.246094 1223.804688 499.027344 1223.136719 501.804688 L 1220.429688 500.449219 L 1220.804688 498.007812 C 1225.59375 465.742188 1227.464844 434.640625 1217.726562 403.066406 C 1217.042969 401.347656 1216.324219 399.644531 1215.570312 397.957031 C 1213.734375 393.746094 1212.789062 390.085938 1212.0625 385.566406 C 1211.847656 384.273438 1211.632812 382.976562 1211.414062 381.640625 Z M 1229.898438 330.027344 C 1256.347656 344.839844 1277.34375 369.535156 1293.199219 394.925781 C 1297.375 401.960938 1300.90625 409.332031 1304.402344 416.71875 C 1306.167969 420.398438 1308.015625 424.035156 1309.863281 427.671875 C 1311.523438 431.058594 1312.820312 434.578125 1313.753906 438.234375 L 1312.402344 442.289062 L 1311.394531 439.820312 C 1300.488281 413.28125 1287.652344 389.847656 1269.121094 367.898438 L 1265.84375 363.945312 C 1255.09375 351.507812 1242.261719 341.691406 1228.546875 332.734375 Z M 1081.125 396.304688 L 1085.179688 397.65625 C 1087.554688 401.054688 1087.554688 401.054688 1090 405.347656 L 1092.457031 409.589844 C 1094.542969 413.679688 1095.933594 417.648438 1097.355469 422.003906 C 1100.066406 427.101562 1103.285156 431.792969 1106.90625 436.289062 C 1109.503906 439.558594 1111.402344 442.957031 1113.421875 446.601562 C 1115.558594 450.058594 1118.15625 452.96875 1120.863281 455.984375 C 1123.203125 458.699219 1125.261719 461.539062 1127.363281 464.4375 C 1132.171875 470.746094 1137.910156 475.332031 1144.210938 480.105469 C 1147.257812 482.75 1148.65625 484.566406 1150.101562 488.277344 C 1127.675781 475.757812 1111.765625 451.589844 1098.707031 430.117188 C 1093.386719 420.980469 1088.273438 411.871094 1085.179688 401.714844 L 1078.417969 400.359375 Z M 1106.820312 267.808594 C 1108.242188 272.070312 1108.308594 275.097656 1108.257812 279.558594 L 1108.222656 283.632812 L 1108.171875 286.746094 L 1110.878906 288.097656 C 1113.640625 291.519531 1116.027344 295.136719 1118.402344 298.835938 C 1122.542969 305.101562 1127.070312 311.011719 1131.679688 316.933594 C 1134.726562 320.847656 1137.707031 324.78125 1140.550781 328.84375 C 1143.019531 332.554688 1143.019531 332.554688 1145.320312 334.585938 C 1147.886719 337.3125 1149.300781 340.109375 1150.945312 343.46875 C 1151.519531 344.625 1152.097656 345.78125 1152.691406 346.972656 C 1154.160156 350.316406 1154.160156 350.316406 1154.863281 353.363281 L 1155.511719 355.726562 L 1158.214844 357.078125 C 1159.367188 359.875 1159.367188 359.875 1160.414062 363.25 C 1160.765625 364.367188 1161.117188 365.484375 1161.484375 366.636719 L 1162.273438 369.253906 C 1158.007812 365.648438 1155.929688 361.046875 1153.484375 356.148438 C 1147.457031 344.496094 1140.199219 333.878906 1132.519531 323.265625 L 1130.863281 320.976562 C 1125.449219 313.535156 1119.746094 306.324219 1113.753906 299.339844 C 1109.488281 294.132812 1106.207031 289.503906 1104.414062 282.976562 C 1103.886719 277.652344 1105.167969 272.84375 1106.820312 267.808594 M 1365.148438 476.105469 L 1367.855469 476.105469 C 1368.503906 480.132812 1369.152344 484.164062 1369.796875 488.195312 L 1370.351562 491.597656 C 1370.890625 494.996094 1371.40625 498.398438 1371.910156 501.804688 L 1372.339844 504.535156 C 1373.691406 514.472656 1373.464844 524.515625 1373.441406 534.527344 C 1373.433594 537.726562 1373.441406 540.929688 1373.449219 544.132812 C 1373.449219 546.199219 1373.445312 548.265625 1373.445312 550.332031 L 1373.453125 553.1875 C 1373.421875 559.621094 1372.804688 565.777344 1371.910156 572.136719 L 1369.207031 572.136719 L 1369.269531 567.269531 C 1370.125 528.21875 1370.125 528.21875 1366.035156 489.476562 C 1365.257812 484.878906 1364.972656 480.75 1365.148438 476.105469 M 1323.222656 474.753906 L 1324.574219 474.753906 C 1331.160156 504.042969 1335.402344 534.042969 1331.335938 564.023438 L 1331.335938 568.078125 L 1328.632812 568.078125 L 1328.429688 571.238281 L 1328.125 575.347656 C 1328.03125 576.699219 1327.933594 578.046875 1327.839844 579.4375 L 1327.277344 582.957031 L 1324.574219 585.664062 L 1325.117188 581.890625 C 1329.585938 549.847656 1329.964844 518.070312 1323.71875 486.210938 C 1323.144531 482.359375 1323.140625 478.644531 1323.222656 474.753906 M 1078.417969 439.585938 L 1081.125 439.585938 L 1081.632812 443.816406 C 1083.335938 456.40625 1086.230469 468.164062 1090.421875 480.164062 L 1091.765625 484.023438 C 1094.835938 492.535156 1098.546875 500.5625 1102.765625 508.566406 L 1098.707031 507.214844 C 1089.394531 493.882812 1084.292969 477.851562 1080.703125 462.15625 L 1080 459.121094 C 1078.574219 452.480469 1078.210938 446.371094 1078.417969 439.585938 M 1182.5625 321.910156 L 1186.617188 323.265625 C 1188.847656 326.699219 1190.933594 330.222656 1192.875 333.832031 L 1194.648438 337.074219 C 1212.316406 369.90625 1212.316406 369.90625 1212.316406 377.367188 L 1209.609375 377.367188 C 1205.824219 372.203125 1203.769531 366.304688 1201.476562 360.375 C 1200.085938 356.800781 1200.085938 356.800781 1197.777344 352.429688 C 1196.085938 348.964844 1196.085938 348.964844 1196.085938 344.90625 L 1193.382812 344.90625 L 1189.324219 332.734375 L 1186.617188 332.734375 Z M 1009.441406 639.765625 L 1013.5 639.765625 C 1015.222656 644.863281 1016.941406 649.964844 1018.65625 655.066406 L 1020.117188 659.378906 C 1028.375 684.011719 1028.375 684.011719 1028.375 691.164062 L 1025.671875 691.164062 L 1021.796875 678.765625 C 1020.210938 673.695312 1018.628906 668.625 1017.050781 663.550781 L 1016.148438 660.65625 L 1014.445312 655.191406 C 1012.835938 650.03125 1011.167969 644.890625 1009.441406 639.765625 M 1342.15625 404.417969 L 1346.214844 405.769531 C 1347.75 408.835938 1347.75 408.835938 1349.175781 412.871094 L 1350.765625 417.316406 L 1352.382812 422.003906 L 1354.019531 426.5625 C 1356.960938 434.898438 1359.390625 443.082031 1361.089844 451.757812 L 1358.386719 451.757812 C 1354.058594 440.125 1350.105469 428.378906 1346.214844 416.59375 C 1345.398438 414.140625 1344.582031 411.6875 1343.761719 409.238281 Z M 1027.023438 692.515625 L 1029.730469 692.515625 C 1031.066406 697.441406 1032.386719 702.375 1033.703125 707.308594 L 1034.839844 711.496094 C 1036.996094 719.625 1038.503906 727.414062 1039.195312 735.796875 L 1036.492188 735.796875 L 1035.355469 730.910156 L 1033.871094 724.554688 L 1033.125 721.335938 L 1032.398438 718.230469 L 1031.730469 715.375 C 1031.164062 713.136719 1030.460938 710.9375 1029.730469 708.746094 C 1029.230469 706.976562 1028.753906 705.203125 1028.292969 703.421875 L 1027.566406 700.679688 C 1027.023438 697.925781 1027.023438 697.925781 1027.023438 692.515625 M 1093.296875 604.597656 L 1095.832031 607.8125 C 1098.570312 611.320312 1098.570312 611.320312 1101.410156 614.066406 L 1102.34375 617.535156 C 1104.503906 623.207031 1107.746094 627.078125 1111.609375 631.714844 L 1113.582031 634.355469 L 1113.582031 637.058594 L 1116.289062 637.058594 L 1117.472656 640.359375 L 1118.992188 643.824219 L 1121.699219 645.175781 L 1120.347656 649.234375 C 1112.542969 639.683594 1105.492188 629.933594 1099.214844 619.308594 L 1097.421875 616.300781 C 1094.324219 610.949219 1094.324219 610.949219 1093.296875 608.65625 Z M 1127.109375 565.375 L 1129.8125 565.375 L 1130.070312 568.851562 C 1131.472656 582.25 1135.410156 591.578125 1141.984375 603.246094 L 1143.339844 605.953125 C 1140.945312 605.136719 1140.945312 605.136719 1137.929688 603.246094 C 1135.375 599.328125 1135.375 599.328125 1132.941406 594.625 L 1130.472656 589.945312 C 1127.558594 583.75 1126.945312 579.308594 1127.023438 572.476562 L 1127.0625 568.4375 Z M 1186.617188 677.636719 C 1192.375 678.175781 1196.417969 680.421875 1201.15625 683.519531 C 1209.941406 689.96875 1217.847656 697.40625 1224.488281 706.042969 L 1221.785156 707.394531 L 1220.332031 705.503906 C 1215.269531 699.300781 1209.757812 694.253906 1203.441406 689.386719 L 1201.222656 687.667969 C 1196.582031 684.171875 1191.878906 681.433594 1186.617188 678.988281 Z M 1225.839844 651.9375 C 1229.332031 652.910156 1232.027344 654.128906 1234.742188 656.558594 C 1237.890625 659.785156 1241.035156 663.007812 1244.070312 666.347656 C 1246.488281 668.785156 1248.480469 670.644531 1251.539062 672.226562 C 1255.914062 672.125 1259.640625 671.082031 1263.710938 669.523438 C 1261.5 671.832031 1259.828125 673.492188 1256.949219 674.933594 C 1253.144531 675.523438 1253.144531 675.523438 1248.832031 674.933594 C 1246.125 672.464844 1244.257812 669.796875 1242.070312 666.816406 L 1239.367188 665.464844 L 1239.367188 662.757812 L 1237.167969 661.828125 C 1232.871094 659.453125 1229.519531 656.550781 1225.839844 653.292969 Z M 1085.179688 559.964844 L 1086.535156 559.964844 L 1087.03125 564.519531 C 1088.667969 579.265625 1088.667969 579.265625 1091.578125 593.804688 C 1091.992188 596.855469 1091.515625 598.980469 1090.589844 601.894531 C 1085.964844 587.511719 1084.46875 575.003906 1085.179688 559.964844 M 1048.664062 493.6875 C 1052.417969 496.726562 1053.816406 500.136719 1055.644531 504.523438 C 1057.554688 509.054688 1059.671875 513.496094 1061.765625 517.949219 L 1063.078125 520.753906 L 1066.246094 527.503906 L 1063.542969 528.855469 C 1061.558594 524.773438 1059.585938 520.6875 1057.625 516.597656 L 1055.933594 513.125 C 1052.863281 506.714844 1050.367188 500.589844 1048.664062 493.6875 M 1141.984375 607.304688 C 1144.269531 608.066406 1144.269531 608.066406 1147.394531 610.007812 C 1150.554688 613.804688 1153.175781 617.996094 1155.902344 622.109375 C 1159.316406 627.152344 1159.316406 627.152344 1164.050781 630.890625 L 1166.332031 631.648438 C 1163.457031 632.242188 1163.457031 632.242188 1159.570312 631.648438 C 1156.394531 628.875 1153.988281 625.535156 1151.453125 622.183594 L 1148.835938 618.9375 C 1143.910156 612.800781 1143.910156 612.800781 1141.984375 610.007812 Z M 1066.246094 530.207031 C 1070.679688 534.402344 1074.269531 538.285156 1077.066406 543.734375 L 1077.066406 546.4375 L 1081.125 547.789062 C 1083.492188 551.679688 1083.492188 551.679688 1085.179688 555.90625 L 1083.828125 559.964844 C 1070.636719 540.324219 1070.636719 540.324219 1066.246094 532.914062 Z M 1363.796875 595.132812 L 1366.5 595.132812 C 1365.679688 604.160156 1362.746094 612.308594 1359.738281 620.828125 L 1357.035156 620.828125 C 1358.0625 615.164062 1359.574219 609.703125 1361.175781 604.175781 L 1362.660156 599.035156 Z M 1163.625 670.875 C 1172.003906 671.4375 1178.863281 673.042969 1186.617188 676.285156 C 1182.5625 677.636719 1182.5625 677.636719 1178.320312 676.882812 L 1173.515625 675.695312 L 1168.683594 674.515625 L 1164.980469 673.578125 L 1164.980469 677.636719 L 1162.273438 677.636719 Z M 1359.738281 453.109375 L 1362.445312 453.109375 C 1363.125 455.703125 1363.800781 458.292969 1364.472656 460.886719 L 1365.613281 465.261719 C 1366.5 469.34375 1366.5 469.34375 1366.5 474.753906 L 1362.445312 473.398438 C 1361.984375 471.289062 1361.535156 469.175781 1361.089844 467.058594 L 1360.332031 463.492188 C 1359.753906 459.960938 1359.636719 456.683594 1359.738281 453.109375 M 1301.582031 340.847656 C 1305.183594 342.285156 1307.128906 343.703125 1309.789062 346.585938 L 1312.570312 350.148438 L 1315.371094 353.6875 C 1317.441406 356.566406 1319.0625 359.265625 1320.515625 362.488281 C 1316.261719 360.988281 1314.625 359.222656 1311.621094 355.722656 C 1310.402344 354.125 1309.199219 352.519531 1308.003906 350.910156 L 1306.125 348.4375 C 1304.582031 346.378906 1303.066406 344.300781 1301.582031 342.199219 Z M 1141.984375 419.296875 C 1144.289062 420.132812 1144.289062 420.132812 1147.394531 422.003906 C 1149.648438 424.679688 1151.789062 427.441406 1153.820312 430.285156 L 1155.503906 432.59375 C 1156.867188 434.46875 1158.222656 436.347656 1159.570312 438.234375 L 1155.511719 438.234375 L 1154.160156 434.175781 L 1150.101562 432.824219 C 1147.144531 428.851562 1147.144531 428.851562 1144.691406 424.707031 L 1144.691406 422.003906 L 1141.984375 422.003906 Z M 1039.195312 458.519531 C 1041.582031 462.699219 1041.902344 464.246094 1041.902344 469.34375 L 1044.605469 470.695312 C 1045.511719 473.597656 1045.511719 473.597656 1046.214844 477.203125 L 1046.945312 480.78125 C 1047.3125 484.222656 1046.882812 486.34375 1045.957031 489.628906 C 1044.824219 485.714844 1043.695312 481.800781 1042.578125 477.878906 L 1041.601562 474.53125 C 1040.054688 469.082031 1038.730469 464.25 1039.195312 458.519531 M 1016.203125 988.726562 L 1018.910156 988.726562 C 1015 1001.707031 1015 1001.707031 1010.792969 1006.3125 L 1009.441406 1002.253906 C 1010.789062 998.898438 1010.789062 998.898438 1012.738281 995.238281 L 1014.675781 991.542969 Z M 1166.332031 377.367188 L 1168.105469 379.820312 C 1170.207031 382.753906 1170.207031 382.753906 1172.585938 384.636719 C 1174.445312 386.835938 1174.445312 386.835938 1175.292969 390.976562 L 1175.796875 394.949219 L 1177.152344 397.65625 L 1174.445312 400.359375 C 1173.085938 397.292969 1171.730469 394.222656 1170.390625 391.148438 L 1169.214844 388.511719 C 1167.5 384.566406 1166.332031 381.71875 1166.332031 377.367188 M 1031.082031 945.445312 L 1033.785156 945.445312 C 1033.367188 947.390625 1032.945312 949.335938 1032.519531 951.28125 L 1031.804688 954.558594 C 1031.082031 957.621094 1031.082031 957.621094 1029.730469 961.675781 L 1027.023438 961.675781 C 1027.441406 959.222656 1027.863281 956.773438 1028.292969 954.324219 L 1029.003906 950.183594 L 1029.730469 946.796875 Z M 1078.417969 403.066406 L 1081.125 403.066406 L 1081.125 415.238281 L 1077.066406 416.59375 C 1076.898438 407.632812 1076.898438 407.632812 1078.417969 403.066406 M 1160.921875 678.988281 L 1163.625 678.988281 C 1163.242188 680.964844 1162.847656 682.9375 1162.441406 684.90625 L 1161.777344 688.234375 C 1160.921875 691.164062 1160.921875 691.164062 1158.214844 693.867188 L 1156.863281 689.8125 C 1157.621094 687.046875 1157.621094 687.046875 1158.808594 684.148438 L 1159.984375 681.214844 Z M 1021.613281 975.203125 L 1024.320312 975.203125 L 1020.261719 988.726562 L 1017.554688 987.375 Z M 1025.671875 963.03125 L 1028.375 963.03125 L 1025.671875 975.203125 L 1021.613281 972.496094 Z M 1025.671875 963.03125 " />
</svg>