<svg xmlns="http://www.w3.org/2000/svg" xmlns:xlink="http://www.w3.org/1999/xlink" width="2000" zoomAndPan="magnify" viewBox="0 0 1500 1499.999933" height="2000" preserveAspectRatio="xMidYMid meet" version="1.0"><path fill="#be332d" d="M 1117.558594 254.285156 C 1119.691406 254.402344 1121.816406 254.628906 1123.9375 254.894531 L 1127.988281 255.402344 L 1132.351562 255.972656 L 1136.777344 256.546875 C 1145.804688 257.730469 1154.8125 259 1163.796875 260.453125 C 1164.773438 260.609375 1165.75 260.765625 1166.757812 260.921875 C 1171.867188 261.785156 1176.382812 263.035156 1181.125 265.105469 C 1182.871094 265.652344 1184.617188 266.1875 1186.367188 266.710938 C 1195.800781 269.785156 1204.660156 274.339844 1213.585938 278.628906 L 1213.585938 281.335938 L 1216.460938 281.84375 C 1220.589844 282.738281 1224.480469 284.003906 1228.464844 285.394531 L 1228.464844 288.097656 L 1232.609375 289.113281 C 1238.007812 290.65625 1242.59375 293.222656 1247.3125 296.214844 L 1249.726562 297.671875 C 1251.710938 298.90625 1253.621094 300.257812 1255.515625 301.625 L 1255.515625 304.328125 L 1258.558594 305.429688 C 1262.128906 306.96875 1264.785156 308.511719 1267.6875 311.089844 L 1267.6875 313.796875 L 1269.949219 314.726562 C 1274.027344 317.027344 1276.898438 319.949219 1280.199219 323.265625 L 1283.851562 326.898438 L 1286.621094 330.027344 L 1286.621094 332.734375 L 1288.945312 333.683594 C 1296.601562 338.035156 1302.703125 346.503906 1307.667969 353.699219 C 1309.613281 357.078125 1309.613281 357.078125 1309.613281 359.785156 L 1312.320312 359.785156 L 1312.320312 363.839844 L 1315.023438 363.839844 C 1317.003906 367.5 1318.976562 371.164062 1320.941406 374.832031 L 1322.632812 377.949219 C 1325.609375 383.515625 1328.128906 388.859375 1329.902344 394.949219 L 1332.605469 394.949219 L 1332.605469 399.007812 L 1335.3125 399.007812 L 1336.832031 403.996094 C 1339.105469 410.867188 1342.140625 417.269531 1345.324219 423.761719 C 1351.132812 436.609375 1354.140625 449.929688 1356.527344 463.761719 L 1357.398438 468.613281 C 1358.390625 474.121094 1359.339844 479.632812 1360.25 485.15625 C 1360.691406 487.746094 1361.152344 490.332031 1361.683594 492.90625 C 1363.511719 502.035156 1364.113281 510.730469 1364.074219 520.03125 L 1364.082031 524.335938 C 1364.082031 527.320312 1364.078125 530.296875 1364.066406 533.277344 C 1364.050781 537.8125 1364.066406 542.347656 1364.082031 546.882812 C 1364.082031 549.792969 1364.082031 552.707031 1364.074219 555.621094 L 1364.089844 559.683594 C 1364.042969 566.851562 1363.441406 573.382812 1361.664062 580.335938 C 1360.273438 585.917969 1359.78125 591.6875 1359.066406 597.386719 C 1358.316406 601.832031 1357.128906 605.777344 1355.597656 610.007812 L 1354.078125 614.574219 L 1352.894531 618.125 L 1350.1875 618.125 L 1349.261719 622.6875 C 1347.792969 628.640625 1345.261719 633.722656 1342.371094 639.101562 C 1340.601562 642.496094 1340.601562 642.496094 1339.496094 646.445312 C 1337.820312 651.136719 1335.5625 654.527344 1332.605469 658.53125 L 1329.734375 662.496094 L 1327.195312 665.464844 L 1324.492188 665.464844 L 1323.5625 668.425781 C 1321.425781 673.003906 1318.640625 675.46875 1315.023438 678.988281 C 1314.003906 680.089844 1312.980469 681.191406 1311.925781 682.324219 C 1305.183594 689.464844 1298.839844 694.492188 1290.050781 698.867188 C 1286.953125 700.460938 1284.320312 702.171875 1281.550781 704.265625 C 1277.066406 707.457031 1272.765625 709.382812 1267.6875 711.453125 C 1264.195312 712.863281 1264.195312 712.863281 1260.925781 715.507812 C 1258.714844 718.859375 1257.082031 722.421875 1255.429688 726.078125 C 1251.25 735.054688 1246.816406 743.167969 1240.128906 750.59375 C 1237.023438 754.058594 1233.980469 757.582031 1231 761.160156 C 1228.6875 763.875 1226.632812 765.9375 1223.816406 768.175781 C 1220.652344 770.722656 1218.378906 773.195312 1215.785156 776.292969 C 1211.476562 781.328125 1207.007812 785.027344 1201.414062 788.546875 L 1197.695312 790.914062 C 1194.652344 792.605469 1194.652344 792.605469 1190.59375 793.957031 L 1190.59375 796.664062 C 1186.417969 799.050781 1184.871094 799.367188 1179.773438 799.367188 L 1179.773438 802.074219 L 1175.378906 804.527344 C 1172.46875 806.171875 1169.914062 807.789062 1167.265625 809.851562 L 1164.898438 811.542969 L 1160.839844 811.542969 L 1160.839844 814.246094 L 1158.132812 814.246094 L 1158.132812 816.953125 L 1154.527344 818.335938 L 1149.765625 820.164062 L 1145.058594 821.972656 C 1143.570312 822.546875 1142.082031 823.121094 1140.550781 823.714844 L 1136.679688 825.035156 L 1133.789062 826.421875 L 1132.4375 830.476562 C 1129.535156 831.621094 1129.535156 831.621094 1125.929688 832.507812 C 1120.796875 833.78125 1117.65625 835.363281 1113.5 838.59375 C 1110.351562 839.511719 1107.195312 840.410156 1104.035156 841.296875 L 1100.90625 843.242188 C 1096.480469 845.816406 1092.078125 847.007812 1087.175781 848.410156 C 1080.976562 850.222656 1075.035156 852.550781 1069.125 855.136719 C 1061.433594 858.480469 1054.246094 861.089844 1045.957031 862.453125 C 1042.917969 862.914062 1042.917969 862.914062 1039.113281 864.292969 L 1039.929688 868.71875 C 1040.863281 876.292969 1039.5625 883.367188 1038.269531 890.835938 L 1037.523438 895.289062 C 1035.792969 905.351562 1033.816406 915.363281 1031.589844 925.328125 L 1030.78125 928.988281 C 1029.585938 934.128906 1028.320312 938.878906 1026.058594 943.660156 C 1023.949219 948.023438 1023.949219 948.023438 1024.296875 952.550781 C 1024.210938 959.773438 1021.773438 965.703125 1019.25 972.410156 L 1017.855469 976.308594 C 1015.242188 983.398438 1012.324219 989.6875 1008.042969 995.925781 C 1006.371094 998.414062 1006.371094 998.414062 1005.472656 1002.59375 C 1003.527344 1009.070312 1000.242188 1014.273438 996.722656 1020.015625 C 994.402344 1023.777344 994.402344 1023.777344 993.085938 1027.6875 L 991.777344 1030.65625 L 987.71875 1032.011719 C 986.78125 1034.25 985.882812 1036.503906 985.015625 1038.773438 C 982.789062 1042.640625 980.351562 1046.363281 977.914062 1050.101562 L 976.007812 1053.089844 C 971.875 1059.46875 967.585938 1066 962.023438 1071.234375 L 959.316406 1071.234375 L 958.238281 1073.558594 C 954.515625 1080.617188 949.601562 1087.078125 943.085938 1091.691406 L 939.03125 1094.230469 C 935.738281 1097.253906 932.652344 1100.464844 929.5625 1103.695312 C 918.472656 1115.066406 918.472656 1115.066406 913.332031 1118.574219 C 910.636719 1119.082031 907.933594 1119.546875 905.21875 1119.925781 C 903.695312 1122.40625 903.695312 1122.40625 902.511719 1125.335938 C 898.230469 1129.269531 894.390625 1131.441406 888.988281 1133.453125 C 887.289062 1134.285156 885.597656 1135.128906 883.914062 1135.988281 C 867.535156 1144.273438 867.535156 1144.273438 863.289062 1144.273438 L 863.289062 1146.980469 L 857.878906 1148.332031 L 857.878906 1151.035156 L 847.058594 1152.390625 L 847.058594 1155.09375 C 842.070312 1157.859375 837.394531 1158.699219 831.816406 1159.613281 C 827.910156 1160.445312 827.910156 1160.445312 823.613281 1162.453125 C 818.511719 1164.625 813.476562 1166.050781 808.089844 1167.265625 L 805.113281 1167.953125 C 793.9375 1170.460938 782.652344 1172.367188 771.320312 1174.03125 L 768.632812 1174.441406 C 761.804688 1175.40625 755.132812 1175.5 748.242188 1175.382812 C 742.535156 1175.285156 737.105469 1175.238281 731.449219 1176.089844 C 725.582031 1176.886719 720.066406 1176.613281 714.175781 1176.226562 L 710.890625 1176.046875 C 706.433594 1175.78125 702.539062 1175.449219 698.285156 1174.03125 C 696.121094 1173.726562 693.957031 1173.472656 691.785156 1173.25 C 664.371094 1170.230469 635.335938 1165.769531 610.457031 1153.066406 C 607.109375 1151.425781 604.183594 1150.332031 600.648438 1149.261719 C 592.070312 1146.511719 583.734375 1142.25 576.542969 1136.804688 C 573.53125 1134.566406 570.4375 1132.957031 567.089844 1131.253906 C 555.269531 1124.910156 544.765625 1116.503906 534.632812 1107.753906 L 532.269531 1105.816406 C 525.757812 1100.351562 520.019531 1094.316406 514.34375 1088.007812 C 511.042969 1084.339844 507.699219 1080.796875 504.117188 1077.40625 C 499.765625 1073.140625 496.078125 1068.441406 492.367188 1063.625 L 490.625 1061.367188 C 487.414062 1057.132812 484.585938 1052.808594 481.882812 1048.242188 C 480.558594 1046.417969 479.207031 1044.613281 477.828125 1042.832031 C 473.046875 1036.503906 469.722656 1030.742188 467.027344 1023.246094 C 463.597656 1014.738281 459.59375 1005.363281 454.027344 998.070312 C 451.75 994.972656 450.71875 992.03125 449.507812 988.390625 C 448.019531 983.933594 446.34375 979.832031 444.148438 975.695312 C 440.632812 968.800781 438.535156 961.570312 436.40625 954.152344 L 435.152344 949.839844 C 432.085938 938.949219 430.023438 928.324219 429.136719 917.042969 C 425.953125 916.582031 422.769531 916.132812 419.585938 915.691406 L 416.894531 915.296875 C 412.550781 914.699219 408.425781 914.34375 404.035156 914.421875 C 398.875 914.328125 394.859375 913.089844 389.914062 911.632812 C 386.894531 911.148438 383.871094 910.789062 380.835938 910.433594 C 358.195312 907.75 336.242188 901.613281 314.480469 894.949219 C 311.234375 893.976562 307.972656 893.082031 304.707031 892.1875 C 297.480469 890.015625 291.078125 886.730469 284.417969 883.226562 C 281.742188 881.898438 279.066406 880.574219 276.390625 879.253906 C 269.710938 875.925781 263.164062 872.402344 256.65625 868.75 C 253.390625 866.9375 253.390625 866.9375 250.023438 865.835938 C 245.4375 863.796875 241.933594 860.792969 238.179688 857.527344 L 235.863281 855.539062 C 227.496094 848.277344 219.570312 840.542969 212.21875 832.253906 C 208.875 828.890625 208.875 828.890625 204.503906 827.71875 L 200.058594 826.925781 C 193.40625 825.59375 187.835938 823.78125 181.628906 821.007812 C 177.21875 819.632812 172.792969 818.308594 168.351562 817.039062 C 163.960938 815.570312 160.019531 813.707031 155.933594 811.542969 L 155.933594 808.835938 L 152.296875 807.738281 C 147.988281 806.195312 144.730469 804.78125 141.054688 802.074219 C 139.171875 799.421875 137.371094 796.714844 135.644531 793.957031 C 133.839844 791.476562 133.839844 791.476562 131.585938 789.902344 L 128.542969 789.5625 C 124.398438 788.433594 123.035156 787.199219 120.007812 784.238281 C 116.105469 780.109375 112.949219 775.792969 109.945312 770.964844 L 107.578125 767.921875 L 105.890625 765.554688 L 105.890625 762.847656 L 103.183594 762.847656 C 100.988281 760.480469 100.988281 760.480469 99.125 757.4375 L 99.125 752.027344 L 96.421875 752.027344 L 92.722656 745.425781 C 90.964844 742.390625 90.964844 742.390625 88.464844 739.03125 C 84.824219 733.199219 82.472656 727.15625 80.023438 720.75 C 79.089844 718.351562 78.15625 715.953125 77.222656 713.554688 C 76.613281 711.976562 76.613281 711.976562 75.996094 710.363281 C 74.867188 707.433594 74.867188 707.433594 73.4375 704.972656 C 71.4375 700.582031 70.523438 695.96875 69.492188 691.28125 L 68.789062 688.125 C 68.296875 685.921875 67.808594 683.71875 67.324219 681.515625 C 66.589844 678.183594 65.839844 674.855469 65.089844 671.523438 C 62.726562 660.9375 60.699219 650.601562 59.90625 639.765625 L 59.191406 634.792969 C 56.316406 614.582031 56.449219 593.78125 58.550781 573.488281 L 59.90625 570.785156 L 59.808594 566.214844 C 59.722656 558.566406 61.257812 551.289062 62.777344 543.820312 L 63.691406 539.292969 C 65.9375 528.589844 68.964844 518.511719 72.875 508.316406 C 75.382812 501.757812 77.070312 495.027344 78.765625 488.214844 C 80.359375 483.75 82.570312 481.066406 85.601562 477.457031 C 87.242188 474.285156 87.242188 474.285156 88.476562 471.117188 C 89.980469 467.421875 90.859375 465.4375 93.71875 462.578125 C 94.667969 460.289062 95.621094 458 96.566406 455.710938 C 98.589844 451.351562 101.359375 447.589844 104.199219 443.726562 L 106.027344 441.210938 C 110.625 434.945312 115.480469 429.050781 120.765625 423.355469 L 124.273438 419.476562 C 128.035156 415.332031 131.824219 411.214844 135.644531 407.125 L 138.578125 403.964844 C 144.691406 397.597656 151.148438 392.824219 158.636719 388.1875 C 161.058594 386.640625 163.484375 385.089844 165.90625 383.539062 C 169.746094 381.101562 173.585938 378.675781 177.433594 376.253906 L 181.292969 373.816406 L 185.03125 371.457031 C 187.84375 369.613281 190.476562 367.679688 193.125 365.617188 C 197.972656 362.066406 203.25 360.386719 208.90625 358.484375 C 212.695312 357.09375 216.109375 355.421875 219.667969 353.527344 C 229.132812 348.675781 238.332031 346.988281 248.957031 347.285156 C 251.960938 347.609375 251.960938 347.609375 255.679688 349.046875 C 260.554688 353.25 265.289062 358.042969 268.1875 363.839844 C 268.8125 368.847656 268.71875 372 266.820312 376.703125 C 264.554688 381.257812 262.171875 385.664062 259.441406 389.957031 C 257.355469 393.621094 256.058594 397.011719 254.796875 401.027344 L 253.429688 405.269531 C 252.511719 408.1875 251.589844 411.101562 250.671875 414.019531 C 248.15625 421.832031 245.351562 428.5 241.140625 435.527344 C 240.195312 438.488281 240.195312 438.488281 239.871094 441.363281 C 238.539062 449.246094 236.320312 456.816406 234.054688 464.476562 C 232.160156 471.0625 231.007812 477.410156 230.320312 484.21875 C 230.082031 486.160156 229.839844 488.101562 229.597656 490.042969 C 228.289062 501.132812 227.363281 512.101562 227.359375 523.277344 L 227.355469 526.320312 C 227.398438 531.277344 227.9375 536.179688 228.96875 541.027344 C 229.054688 543.648438 229.082031 546.269531 229.050781 548.890625 L 229.015625 552.890625 L 228.96875 555.90625 L 233.023438 554.554688 C 235.574219 551.644531 237.949219 548.742188 240.292969 545.679688 L 242.21875 543.234375 C 250.707031 532.289062 256.007812 522.085938 260.160156 508.820312 C 261.046875 506.050781 261.9375 503.277344 262.828125 500.507812 L 264.144531 496.359375 C 265.421875 492.527344 266.867188 488.804688 268.351562 485.050781 C 274.796875 467.328125 274.066406 448.234375 274.011719 429.632812 C 273.992188 411.054688 273.992188 411.054688 276.371094 404.660156 C 279.070312 400.199219 281.824219 397.5625 285.855469 394.191406 C 289.289062 392.441406 291.488281 392.246094 295.398438 392.230469 C 299.433594 392.546875 303.410156 392.992188 307.410156 393.597656 L 307.410156 396.304688 L 309.757812 397.359375 C 313.105469 399.164062 315.707031 401.242188 318.570312 403.742188 L 321.464844 406.238281 L 323.640625 408.476562 L 323.640625 411.179688 L 327.699219 412.535156 C 330.175781 415.539062 330.175781 415.539062 332.855469 419.382812 C 336.066406 423.953125 339.304688 428.40625 342.832031 432.738281 C 346.972656 438.191406 349.183594 444.128906 351.652344 450.476562 C 353.320312 454.289062 355.203125 457.347656 357.625 460.71875 C 361.957031 466.84375 363.71875 472.96875 365.570312 480.164062 L 367.089844 484.390625 C 368.101562 487.714844 368.636719 490.597656 369.035156 494.027344 C 369.304688 498.835938 369.304688 498.835938 370.980469 501.804688 C 373.589844 514.894531 373.910156 527.484375 373.261719 540.773438 L 373.0625 545.875 C 372.5625 557.800781 371.84375 569.386719 369.035156 581.011719 L 368.027344 585.246094 L 366.921875 589.71875 L 365.832031 594.757812 C 363.714844 603.238281 359.769531 611.144531 356.121094 619.058594 C 353.292969 625.59375 351.617188 630.589844 352.3125 637.757812 C 352.636719 639.789062 352.988281 641.8125 353.398438 643.824219 L 354.074219 647.710938 C 354.492188 649.5 354.949219 651.28125 355.445312 653.046875 C 357.671875 663.066406 355.988281 672.804688 353.285156 682.53125 C 352.355469 685.953125 351.515625 689.398438 350.761719 692.863281 C 348.554688 702.957031 346.414062 711.878906 341.222656 720.917969 C 339.804688 724.050781 338.488281 727.214844 337.167969 730.386719 L 334.460938 730.386719 C 336.890625 737.550781 339.710938 743.507812 343.945312 749.777344 L 345.28125 752.027344 L 345.28125 754.734375 L 347.988281 754.734375 C 351.539062 758.621094 351.539062 758.621094 354.75 762.847656 L 354.75 765.554688 L 357.171875 766.65625 C 360.144531 768.25 362.253906 769.953125 364.722656 772.230469 C 368.820312 775.835938 372.804688 778.0625 377.742188 780.433594 C 379.523438 781.71875 381.296875 783.015625 383.066406 784.320312 C 391.304688 789.980469 400.714844 792.488281 410.203125 795.3125 L 410.203125 798.015625 L 419.667969 798.015625 C 420.320312 793.535156 420.96875 789.054688 421.613281 784.574219 L 422.167969 780.777344 C 422.988281 775.058594 423.773438 769.351562 424.339844 763.601562 C 425.148438 756.074219 426.6875 748.703125 428.207031 741.292969 L 429.121094 736.792969 C 433.011719 717.757812 437.121094 698.976562 442.660156 680.34375 C 443.480469 677.441406 444.296875 674.539062 445.113281 671.636719 C 447.621094 662.886719 450.195312 654.152344 452.804688 645.429688 L 453.972656 641.46875 C 456.414062 633.371094 459.375 625.777344 462.949219 618.125 L 464.976562 613.304688 C 466.476562 609.875 468.082031 606.492188 469.796875 603.164062 C 471.417969 599.976562 472.652344 597.113281 473.769531 593.695312 C 475.128906 589.707031 477.035156 586.425781 479.183594 582.824219 C 480.613281 580.101562 481.496094 577.480469 482.378906 574.539062 C 484.394531 568.328125 487.105469 562.800781 490.253906 557.089844 L 493.503906 551.089844 L 495.148438 548.066406 C 496.699219 545.199219 498.21875 542.3125 499.726562 539.421875 C 507.578125 524.367188 507.578125 524.367188 512.734375 517.632812 C 514.757812 514.738281 516.335938 511.695312 517.976562 508.566406 C 532.636719 481.226562 552.898438 455.976562 573.796875 433.214844 C 576.667969 430.074219 576.667969 430.074219 579.449219 426.34375 L 581.96875 423.355469 L 584.675781 423.355469 L 585.746094 420.898438 C 587.476562 417.765625 589.085938 416.191406 591.859375 413.96875 C 594.777344 411.574219 597.417969 409.246094 600.058594 406.53125 C 604.964844 401.746094 610.320312 397.730469 615.78125 393.597656 L 621.003906 389.570312 L 626.6875 385.230469 L 629.394531 383.132812 C 641.761719 373.761719 655.929688 368.328125 670.628906 363.636719 C 673.046875 362.796875 675.4375 361.863281 677.800781 360.875 C 700.335938 351.5 724.113281 349.609375 748.328125 351.667969 C 774.445312 355.402344 774.445312 355.402344 784.84375 362.488281 C 790.847656 365.613281 790.847656 365.613281 797.386719 366.324219 C 802.625 366.640625 806.347656 369.1875 810.710938 371.871094 C 817.140625 375.800781 817.140625 375.800781 824.066406 378.71875 L 824.066406 381.425781 L 826.265625 382.523438 L 829.476562 384.128906 L 833.238281 385.914062 C 837.636719 388.210938 841.523438 390.773438 845.539062 393.683594 L 849.5 396.519531 L 852.46875 399.007812 L 852.46875 401.714844 C 855.625 403.34375 858.550781 404.640625 861.9375 405.769531 L 861.9375 408.476562 L 865.996094 409.828125 C 867.988281 411.851562 867.988281 411.851562 870.136719 414.480469 C 873.910156 418.945312 877.863281 423.078125 882.054688 427.160156 C 892.375 437.386719 901.097656 448.71875 909.511719 460.539062 C 911.265625 462.941406 913.09375 465.289062 914.996094 467.578125 L 917.390625 470.695312 L 917.390625 473.398438 L 920.09375 473.398438 C 921.839844 475.671875 921.839844 475.671875 923.644531 478.640625 L 925.472656 481.589844 C 926.855469 484.21875 926.855469 484.21875 926.855469 486.925781 L 929.5625 486.925781 C 931.527344 489.730469 933.386719 492.605469 935.140625 495.546875 L 936.667969 498.019531 C 937.960938 500.152344 939.175781 502.328125 940.382812 504.507812 L 940.382812 507.214844 L 943.085938 507.214844 C 955.257812 529.355469 955.257812 529.355469 955.257812 532.914062 L 957.964844 532.914062 C 962.621094 541.332031 967.128906 549.792969 971.367188 558.429688 C 972.855469 561.460938 972.855469 561.460938 975.039062 564.699219 C 977.441406 569.066406 978.570312 573.542969 979.816406 578.355469 C 981.050781 581.875 982.773438 584.054688 985.015625 587.015625 C 985.996094 589.378906 986.898438 591.777344 987.71875 594.203125 C 989.722656 600.050781 992.019531 605.691406 994.480469 611.363281 C 999.613281 623.574219 1004.085938 635.796875 1007.902344 648.476562 C 1008.828125 651.554688 1009.832031 654.609375 1010.902344 657.640625 C 1012.0625 661.40625 1012.0625 661.40625 1012.0625 666.816406 L 1014.769531 666.816406 L 1015.484375 669.707031 C 1017.359375 677.261719 1019.277344 684.804688 1021.246094 692.335938 L 1022.484375 697.058594 C 1023.320312 700.261719 1024.164062 703.464844 1025.007812 706.664062 L 1026.234375 711.355469 L 1027.335938 715.550781 C 1028.296875 719.578125 1028.996094 723.59375 1029.648438 727.683594 C 1030.101562 729.464844 1030.582031 731.238281 1031.085938 733.007812 C 1032.417969 738.144531 1032.574219 742.679688 1032.351562 747.972656 C 1040.839844 745.40625 1046.949219 741.464844 1053.996094 736.125 C 1057.519531 733.492188 1061.097656 730.992188 1064.742188 728.539062 C 1083.363281 715.957031 1098.832031 700.386719 1109.445312 680.34375 C 1111.128906 675.890625 1112.382812 671.4375 1113.503906 666.816406 L 1114.855469 662.757812 C 1115.304688 658.140625 1115.304688 658.140625 1114.855469 653.292969 C 1112.949219 649.554688 1112.949219 649.554688 1110.796875 646.527344 L 1110.796875 643.824219 L 1108.09375 643.824219 C 1105.773438 641.105469 1103.550781 638.316406 1101.414062 635.453125 L 1099.601562 633.085938 C 1094.730469 626.664062 1090.714844 620.296875 1087.652344 612.808594 C 1086.75 610.722656 1085.796875 608.65625 1084.789062 606.617188 C 1079.222656 595.160156 1077.03125 585.054688 1076.875 572.324219 C 1076.734375 565.847656 1076.414062 560.25 1073.570312 554.285156 C 1070.800781 550.183594 1067.835938 546.300781 1064.8125 542.378906 C 1062.578125 539.039062 1060.4375 535.640625 1058.304688 532.238281 C 1054.664062 526.402344 1054.664062 526.402344 1050.527344 520.917969 C 1047.503906 516.433594 1046.003906 511.464844 1044.273438 506.367188 L 1043.152344 503.1875 C 1040.46875 495.429688 1040.46875 495.429688 1040.46875 492.335938 L 1037.761719 492.335938 C 1035.402344 486.101562 1034.195312 479.917969 1033.113281 473.367188 C 1032.398438 469.226562 1032.398438 469.226562 1031.019531 464.828125 C 1028.921875 456.566406 1028.644531 448.007812 1028.140625 439.527344 C 1027.953125 436.566406 1027.75 433.609375 1027.535156 430.652344 C 1026.789062 419.28125 1027.257812 408.84375 1029.648438 397.65625 C 1029.949219 395.847656 1030.234375 394.039062 1030.503906 392.222656 L 1031.855469 383.347656 L 1032.351562 380.074219 L 1035.058594 380.074219 L 1034.777344 375.929688 C 1035.097656 369.851562 1036.664062 366.46875 1039.539062 361.136719 C 1042.835938 354.960938 1045.851562 348.648438 1048.582031 342.199219 C 1053.777344 331.320312 1059.875 320.535156 1069.929688 313.449219 C 1073.921875 311.429688 1077.8125 311 1082.226562 310.5 C 1084.9375 310.964844 1084.9375 310.964844 1087.804688 312.445312 C 1094.453125 319.277344 1100.523438 327.503906 1103.417969 336.683594 C 1104.140625 339.972656 1104.585938 343.261719 1105.046875 346.597656 C 1108.34375 367.980469 1117.742188 390.488281 1129.730469 408.476562 L 1129.730469 412.535156 L 1132.4375 412.535156 L 1136.742188 419.714844 C 1139.933594 424.445312 1143.523438 428.742188 1147.230469 433.074219 L 1149.285156 435.511719 C 1152.640625 439.390625 1155.992188 442.867188 1160 446.078125 L 1163.542969 449.054688 L 1163.542969 451.757812 C 1167.519531 453.820312 1171.554688 455.527344 1175.71875 457.167969 C 1174.585938 422.808594 1165.457031 391.226562 1148.667969 361.136719 L 1147.136719 358.363281 C 1139.210938 344.109375 1130.226562 330.78125 1120.648438 317.59375 C 1119.027344 315.296875 1117.457031 312.960938 1115.941406 310.59375 C 1113.667969 306.886719 1113.667969 306.886719 1110.121094 304.414062 C 1106.585938 301.496094 1104.761719 298.617188 1102.65625 294.574219 C 1101.199219 291.78125 1101.199219 291.78125 1098.285156 288.097656 C 1095.917969 284.039062 1095.917969 284.039062 1095.074219 279.730469 C 1096.332031 272.050781 1099.144531 265.769531 1104.035156 259.695312 C 1108.007812 257.453125 1111.765625 256.515625 1116.207031 255.636719 Z M 1117.558594 254.285156 " fill-opacity="1" fill-rule="nonzero"/><path fill="transparent" d="M 726.6875 422.003906 C 730.335938 422.351562 733.890625 422.792969 737.507812 423.355469 L 740.429688 423.804688 C 766.199219 428.046875 787.058594 438.210938 807.421875 454.53125 C 822.121094 466.96875 835.300781 481.175781 847.058594 496.394531 C 848.386719 498.027344 849.71875 499.65625 851.054688 501.28125 C 859.003906 510.996094 866.339844 520.742188 872.757812 531.558594 L 874.890625 535.101562 C 876.257812 537.367188 877.613281 539.640625 878.964844 541.917969 C 880.765625 544.890625 882.613281 547.832031 884.507812 550.75 C 886.597656 554.054688 888.292969 557.265625 889.746094 560.894531 C 891.441406 565.355469 891.441406 565.355469 894.222656 568.46875 C 897.367188 572.476562 899.621094 576.625 901.835938 581.183594 L 903.191406 583.941406 C 913.628906 605.335938 923.953125 626.90625 932.265625 649.234375 L 934.058594 654.042969 C 937.871094 664.511719 941.238281 675.078125 944.4375 685.753906 L 946.386719 692.015625 C 950.992188 706.867188 954.851562 721.914062 957.964844 737.152344 L 959.148438 742.800781 C 962.019531 756.652344 962.019531 756.652344 962.785156 763.355469 C 963.191406 766.832031 963.8125 770.269531 964.644531 773.667969 C 967.609375 786.542969 969.253906 800.0625 968.746094 813.269531 L 968.785156 815.597656 L 970.136719 816.953125 C 970.660156 826.894531 970.097656 836.820312 969.160156 846.71875 C 968.789062 850.714844 968.53125 854.707031 968.277344 858.710938 C 967.636719 867.09375 966.597656 875.40625 965.488281 883.734375 L 964.988281 887.585938 C 963.855469 895.824219 962.222656 903.398438 959.316406 911.210938 C 958.074219 915.328125 957.40625 919.136719 956.78125 923.382812 C 955.671875 930.429688 953.777344 936.699219 951.1875 943.332031 C 950.019531 946.359375 949.070312 949.355469 948.160156 952.464844 C 945.222656 961.4375 940.554688 969.730469 936.246094 978.105469 C 934.605469 981.335938 933.0625 984.609375 931.507812 987.882812 C 928.558594 993.789062 924.964844 999.054688 921.085938 1004.386719 C 918.957031 1007.359375 917.035156 1010.390625 915.105469 1013.496094 C 907.582031 1024.90625 897.28125 1034.585938 887.632812 1044.183594 L 884.675781 1047.3125 C 883.867188 1048.0625 883.058594 1048.816406 882.222656 1049.59375 L 879.519531 1049.59375 L 878.167969 1053.652344 C 875.488281 1055.980469 872.726562 1058.207031 869.882812 1060.332031 L 867.601562 1062.089844 C 862.328125 1066.09375 856.890625 1069.347656 851.117188 1072.585938 L 847.039062 1075.371094 C 837.070312 1081.859375 825.230469 1086.15625 813.757812 1089.171875 C 810.285156 1090.183594 810.285156 1090.183594 806.121094 1092.136719 C 800.851562 1094.441406 795.519531 1095.773438 789.917969 1097.019531 L 786.839844 1097.714844 C 783.921875 1098.367188 781.003906 1099.003906 778.082031 1099.640625 L 774.089844 1100.535156 C 762.902344 1102.835938 751.589844 1103.304688 740.210938 1103.695312 L 736.8125 1103.835938 C 705.984375 1104.980469 674.238281 1100.496094 645.535156 1088.816406 L 641.234375 1087.238281 C 607.183594 1074.390625 578.242188 1053.183594 554.917969 1025.246094 C 533.566406 999.015625 517.804688 970.347656 508.933594 937.574219 C 507.753906 933.121094 507.753906 933.121094 504.875 929.214844 C 504.195312 926.394531 503.523438 923.566406 502.9375 920.726562 C 502.074219 916.578125 501.113281 912.457031 500.144531 908.335938 L 498.113281 899.457031 L 497.300781 896.089844 C 495.5 888.113281 494.902344 880.160156 494.519531 872.011719 C 494.332031 868.128906 494.070312 864.375 493.375 860.546875 C 492.628906 855.683594 492.503906 851.042969 492.476562 846.121094 L 492.460938 843.230469 C 492.238281 793.964844 497.382812 744.933594 512.992188 697.925781 L 514.601562 693.054688 C 515.5 690.386719 516.40625 687.726562 517.324219 685.066406 C 518.347656 681.867188 519.09375 678.730469 519.753906 675.441406 C 521.460938 667.117188 524.78125 659.402344 528.628906 651.855469 C 530.199219 648.648438 531.296875 645.789062 532.359375 642.414062 C 534.671875 635.378906 537.511719 628.628906 540.464844 621.84375 L 542.097656 618.070312 C 543.660156 614.480469 545.230469 610.890625 546.804688 607.304688 L 548.007812 604.546875 C 552.109375 595.191406 556.738281 586.398438 562 577.640625 C 564.449219 573.382812 566.578125 569.046875 568.699219 564.613281 C 582.3125 537.019531 600.910156 511.328125 621.191406 488.277344 L 623.84375 485.171875 C 628.660156 479.550781 633.726562 474.261719 639.007812 469.074219 C 640.933594 467.164062 642.828125 465.226562 644.691406 463.253906 C 650.074219 458.128906 655.910156 453.625 661.765625 449.054688 L 664.621094 446.746094 C 670.128906 442.390625 675.53125 439.382812 682.019531 436.699219 C 685.386719 435.261719 688.390625 433.367188 691.523438 431.46875 C 698.613281 428.0625 705.15625 426.398438 712.910156 425.214844 C 720.003906 424.308594 720.003906 424.308594 726.6875 422.003906 M 1168.953125 308.386719 C 1174.476562 309.15625 1179.230469 310.386719 1184.371094 312.535156 L 1188.359375 314.183594 L 1192.453125 315.910156 L 1196.644531 317.652344 C 1200.039062 319.0625 1203.433594 320.484375 1206.824219 321.910156 L 1206.824219 324.617188 L 1209.835938 325.023438 C 1214.039062 326.082031 1216.167969 327.550781 1219.503906 330.28125 L 1222.683594 332.855469 C 1226.148438 335.75 1229.558594 338.703125 1232.921875 341.714844 C 1235.289062 343.691406 1235.289062 343.691406 1238.4375 345.433594 C 1250.839844 353.039062 1260.234375 364.664062 1269.039062 376.015625 L 1271.6875 379.257812 C 1295.542969 409.644531 1310.285156 446.242188 1316.375 484.21875 C 1316.617188 486.210938 1316.851562 488.203125 1317.082031 490.195312 L 1317.730469 495.039062 L 1319.082031 496.394531 C 1319.371094 499.867188 1319.589844 503.3125 1319.757812 506.792969 C 1320.011719 511.976562 1320.265625 517.039062 1321.140625 522.160156 C 1322.507812 530.601562 1321.960938 539.261719 1321.785156 547.789062 C 1321.765625 549.269531 1321.742188 550.746094 1321.71875 552.273438 C 1320.738281 575.101562 1315.597656 598.894531 1305.558594 619.476562 L 1302.851562 623.535156 L 1300.148438 623.535156 L 1299.84375 626.390625 C 1298.511719 631.347656 1295.925781 634.792969 1292.792969 638.75 L 1290.976562 641.078125 C 1285.265625 648.210938 1278.8125 654.269531 1271.746094 660.054688 L 1268.515625 662.8125 C 1264.574219 665.769531 1260.644531 667.847656 1256.191406 669.945312 L 1251.667969 672.128906 C 1247.398438 673.578125 1247.398438 673.578125 1243.863281 673.574219 C 1239.371094 671.699219 1237.34375 668.894531 1234.296875 665.125 C 1228.816406 658.796875 1224.171875 655.277344 1216.535156 652.007812 C 1212.503906 650.0625 1209.964844 646.964844 1206.824219 643.824219 C 1203.699219 642.816406 1200.542969 641.914062 1197.355469 641.117188 L 1194.511719 639.199219 C 1189.007812 636.195312 1183.445312 635.261719 1177.324219 634.101562 L 1173.78125 633.375 C 1168.242188 632.292969 1163.183594 631.546875 1157.53125 631.824219 L 1152.722656 631.648438 C 1150.226562 629.464844 1150.226562 629.464844 1148.582031 626.410156 L 1146.628906 623.027344 L 1144.609375 619.476562 C 1143.082031 617.261719 1141.535156 615.066406 1139.960938 612.882812 C 1138.351562 610.574219 1136.746094 608.265625 1135.140625 605.953125 L 1132.625 602.359375 C 1126.117188 592.675781 1120.933594 582.554688 1119.910156 570.761719 C 1120.625 562.582031 1125.71875 555.703125 1130.296875 549.070312 C 1138.792969 538.359375 1150.652344 532.960938 1163.042969 527.839844 C 1167.730469 526.101562 1172.25 524.832031 1177.160156 523.933594 C 1180.128906 523.425781 1180.128906 523.425781 1184.339844 522.09375 C 1189.839844 520.574219 1195.273438 519.855469 1200.933594 519.191406 L 1204.121094 518.035156 C 1205.566406 514.902344 1205.566406 514.902344 1206.824219 511.273438 L 1210.273438 508.152344 C 1214.011719 504.648438 1214.011719 504.648438 1214.742188 499.257812 C 1214.921875 497.347656 1215.074219 495.433594 1215.191406 493.519531 C 1215.992188 483.316406 1215.992188 483.316406 1218.996094 478.808594 C 1218.996094 476.207031 1218.988281 473.601562 1218.902344 471 C 1219.003906 467.832031 1219.644531 465.28125 1220.519531 462.242188 C 1222.113281 455.734375 1221.078125 450.410156 1219.777344 443.914062 C 1218.699219 437.945312 1218.34375 431.988281 1217.976562 425.9375 C 1217.4375 419.550781 1215.984375 414.105469 1213.671875 408.136719 C 1211.984375 403.613281 1210.535156 399.269531 1209.613281 394.527344 C 1206.355469 378.929688 1199.628906 365.339844 1192.050781 351.492188 C 1189.863281 347.484375 1187.882812 343.371094 1186.113281 339.15625 C 1184.167969 334.546875 1181.605469 331.203125 1178.421875 327.324219 C 1176.960938 324.589844 1175.628906 321.816406 1174.296875 319.023438 C 1172.816406 316.117188 1170.9375 313.667969 1168.953125 311.089844 Z M 200.5625 409.828125 L 204.621094 409.828125 C 203.824219 414.414062 202.652344 418.40625 200.820312 422.679688 C 197.449219 430.847656 194.976562 439.242188 192.449219 447.699219 L 191.097656 451.757812 L 191.183594 456.324219 C 191.097656 461.226562 191.097656 461.226562 189.828125 464.28125 C 188.042969 468.886719 187.539062 473.230469 186.957031 478.132812 C 186.265625 483.832031 185.503906 489.421875 184.335938 495.039062 C 180.570312 519.664062 183.960938 545.394531 189.746094 569.433594 L 190.273438 572.625 C 192.523438 586.023438 200.53125 598.429688 207.328125 610.007812 L 208.679688 613.050781 C 209.976562 615.566406 209.976562 615.566406 212.316406 617.703125 C 217.699219 620.757812 223.589844 620.800781 229.695312 620.933594 L 234.742188 620.878906 C 272.371094 620.808594 272.371094 620.808594 289.339844 630.15625 L 293.886719 633.003906 L 298.242188 635.648438 C 304.652344 640.359375 308.199219 646.101562 311.46875 653.292969 C 313.332031 659.839844 313.652344 665.46875 312.820312 672.226562 C 310.726562 679.714844 307.585938 686.789062 304.472656 693.894531 C 303.066406 697.261719 302.027344 700.667969 301.074219 704.183594 C 299.371094 710.234375 296.976562 715.4375 293.886719 720.917969 C 291.183594 722.273438 291.183594 722.273438 287.984375 722.570312 C 279.402344 723.386719 273.390625 725.425781 266.246094 730.300781 C 263.234375 732.515625 260.277344 734.800781 257.371094 737.152344 L 254.949219 739.089844 C 245.496094 746.441406 245.496094 746.441406 237.429688 755.171875 L 235.730469 757.4375 L 233.023438 757.4375 L 231.960938 760.398438 C 230.25 764.363281 228.203125 767.476562 225.667969 770.964844 C 222.484375 775.367188 219.535156 779.796875 216.792969 784.492188 C 201.742188 783.941406 186.695312 778.445312 173.882812 770.652344 C 154.210938 757.960938 139.5 741.234375 128.179688 720.792969 C 112.511719 690.03125 105.8125 657.011719 102.269531 622.984375 C 101.878906 619.46875 101.878906 619.46875 101.113281 616.007812 C 100.511719 612.875 100.304688 610.054688 100.300781 606.871094 L 100.292969 603.664062 L 100.308594 600.371094 L 100.292969 597.050781 L 100.300781 593.851562 L 100.304688 590.957031 C 100.480469 588.367188 100.480469 588.367188 101.832031 584.308594 C 102.183594 581.730469 102.484375 579.144531 102.757812 576.554688 L 103.261719 571.914062 C 103.601562 568.703125 103.941406 565.492188 104.277344 562.277344 C 105.53125 550.808594 108.097656 540.792969 112.0625 529.953125 C 115.203125 521.5 115.203125 521.5 117.050781 512.707031 C 118.359375 503.976562 122.476562 498.097656 127.503906 490.96875 C 129.964844 487.328125 131.914062 483.789062 133.785156 479.824219 C 136.851562 473.414062 140.671875 468.105469 145.113281 462.578125 C 146.777344 460.46875 148.441406 458.355469 150.101562 456.238281 L 152.523438 453.164062 C 154.738281 450.335938 154.738281 450.335938 156.609375 446.601562 C 158.765625 443.453125 160.074219 442.675781 163.371094 440.9375 L 165.78125 439.839844 C 168.382812 438.28125 168.382812 438.28125 170.015625 434.980469 C 172.476562 430.953125 174.8125 429.277344 178.753906 426.734375 C 183.917969 423.285156 188.113281 419.699219 192.449219 415.238281 C 196.675781 412.113281 196.675781 412.113281 200.5625 409.828125 M 1155.429688 673.578125 C 1168.878906 674.476562 1181.117188 678.125 1192.59375 685.289062 C 1195.019531 687.429688 1195.925781 689.644531 1197.355469 692.515625 L 1200.484375 693.109375 C 1204.121094 693.867188 1204.121094 693.867188 1207.925781 697.164062 L 1210.882812 700.632812 L 1210.882812 703.335938 L 1213.585938 703.335938 C 1215.082031 705.703125 1215.082031 705.703125 1216.292969 708.746094 C 1213.523438 719.234375 1203.835938 727.660156 1196.484375 735.242188 C 1194.878906 736.929688 1193.296875 738.636719 1191.742188 740.367188 C 1182.78125 749.980469 1171.972656 757.316406 1160.839844 764.203125 L 1158.132812 764.203125 L 1158.132812 766.90625 C 1155.855469 768.179688 1153.574219 769.449219 1151.289062 770.710938 L 1147.4375 772.851562 C 1143.257812 775.023438 1143.257812 775.023438 1139.035156 776.789062 C 1131.628906 779.886719 1124.640625 783.855469 1117.558594 787.617188 C 1105.128906 794.15625 1092.839844 799.882812 1079.6875 804.777344 C 1076.894531 805.949219 1074.105469 807.132812 1071.320312 808.328125 C 1049.601562 817.398438 1049.601562 817.398438 1040.46875 816.953125 C 1038.71875 813.253906 1037.765625 810.535156 1037.699219 806.414062 L 1038.101562 802.582031 L 1038.460938 798.722656 C 1039.113281 795.3125 1039.113281 795.3125 1041.820312 791.253906 C 1044.804688 789.863281 1044.804688 789.863281 1048.328125 788.632812 C 1053.804688 786.578125 1057.640625 784.261719 1062.105469 780.433594 C 1064.351562 779.511719 1066.605469 778.609375 1068.871094 777.726562 C 1071.582031 775.9375 1074.289062 774.132812 1076.984375 772.316406 L 1080.851562 770.425781 C 1095.667969 762.871094 1108.6875 751.050781 1119.34375 738.402344 C 1121.566406 735.855469 1123.902344 733.558594 1126.351562 731.234375 C 1131.976562 725.695312 1136.175781 719.339844 1140.550781 712.804688 L 1142.761719 709.804688 C 1149.644531 700.253906 1153.582031 689.664062 1155.089844 677.976562 Z M 295.492188 763.105469 L 300.648438 764.203125 C 304.859375 768.738281 308.078125 773.914062 311.46875 779.082031 C 319.109375 789.90625 327.707031 797.195312 338.519531 804.777344 L 345.957031 810.359375 C 353.539062 815.839844 361.429688 820.566406 369.625 825.066406 L 373.355469 827.175781 C 383.71875 832.730469 394.496094 836.175781 405.710938 839.542969 L 408.742188 840.457031 C 411.261719 841.210938 413.78125 841.964844 416.300781 842.714844 L 419.667969 844.003906 C 421.652344 847.964844 421.199219 851.515625 421.191406 855.921875 L 421.203125 860.9375 C 421.046875 864.953125 420.605469 868.511719 419.667969 872.40625 C 396.617188 869.203125 373.96875 865.609375 351.453125 859.644531 L 348.246094 858.804688 C 335.347656 855.402344 322.636719 851.398438 310.117188 846.792969 C 308.871094 846.339844 307.628906 845.886719 306.34375 845.421875 C 302.636719 844.0625 298.933594 842.691406 295.238281 841.296875 L 291.582031 839.945312 C 284.933594 837.410156 279.363281 834.695312 273.683594 830.308594 L 270.011719 827.507812 L 266.835938 825.066406 L 262.78125 822.363281 L 262.78125 819.65625 L 260.328125 819.234375 C 257.371094 818.304688 257.371094 818.304688 255.183594 816.542969 L 253.3125 814.246094 C 252.902344 809.179688 253.007812 806.769531 254.664062 802.074219 C 261.054688 792.03125 268.917969 783.09375 277.65625 775.023438 L 280.363281 772.316406 L 283.066406 773.667969 L 284.84375 770.457031 C 287.820312 765.824219 290.179688 764.457031 295.492188 763.105469 " fill-opacity="1" fill-rule="nonzero"/><path fill="transparent" d="M 1072.925781 399.007812 L 1076.984375 400.359375 L 1079.6875 408.476562 C 1081.519531 411.796875 1083.492188 415.003906 1085.492188 418.226562 C 1087.960938 422.257812 1090.289062 426.347656 1092.625 430.457031 C 1095.226562 434.964844 1097.773438 439.082031 1101.246094 442.96875 L 1104.035156 446.347656 L 1104.035156 451.757812 L 1106.488281 452.859375 C 1109.441406 454.460938 1111.355469 455.945312 1113.5 458.519531 L 1113.5 461.226562 L 1116.207031 461.226562 L 1116.207031 467.988281 L 1118.660156 469.089844 C 1121.613281 470.691406 1123.527344 472.175781 1125.675781 474.753906 L 1125.675781 477.457031 L 1128.378906 477.625 C 1134.316406 479.359375 1138.503906 483.066406 1143.257812 486.925781 C 1142.976562 489.414062 1142.976562 489.414062 1141.90625 492.335938 C 1139.097656 494.199219 1139.097656 494.199219 1135.566406 495.800781 L 1131.839844 497.546875 L 1128.378906 499.097656 C 1122.175781 501.953125 1117.203125 505.359375 1111.921875 509.640625 L 1109.445312 511.273438 L 1105.386719 511.273438 L 1102.683594 516.683594 C 1100.0625 515.582031 1100.0625 515.582031 1097.273438 513.976562 L 1095.917969 509.917969 L 1093.984375 508.011719 C 1091.476562 505.472656 1090.402344 503.144531 1088.992188 499.871094 L 1087.453125 496.296875 L 1085.859375 492.503906 L 1084.21875 488.621094 C 1075.636719 468.019531 1071.085938 448.8125 1071.320312 426.398438 L 1071.324219 421.5625 C 1071.363281 413.914062 1071.550781 406.539062 1072.925781 399.007812 M 314.175781 476.105469 L 316.878906 476.105469 C 329.683594 512.625 329.683594 512.625 330.40625 530.207031 L 330.566406 533.925781 C 331.019531 554.257812 326.214844 574.632812 319.585938 593.777344 C 311.449219 592.734375 303.738281 590.328125 296.242188 587.019531 C 291.34375 585.226562 286.417969 584.363281 281.289062 583.464844 L 278.257812 582.914062 C 275.804688 582.472656 273.347656 582.035156 270.894531 581.605469 C 273.355469 575.074219 273.355469 575.074219 275.542969 572.984375 C 278.792969 569.601562 279.992188 565.65625 281.714844 561.316406 L 284.417969 561.316406 L 285.265625 558.019531 C 286.910156 553.75 288.585938 550.894531 291.183594 547.199219 C 294.71875 542.101562 296.429688 537.613281 297.945312 531.558594 L 300.058594 528.09375 C 302.222656 524.886719 302.222656 524.886719 302.59375 521.078125 C 303.285156 517.074219 304.230469 514.613281 305.976562 511.019531 C 310.160156 501.996094 311.203125 492.507812 312.230469 482.699219 L 312.820312 477.457031 Z M 314.175781 476.105469 " fill-opacity="1" fill-rule="nonzero"/><path fill="#a42720" d="M 1181.125 309.738281 L 1183.917969 310.921875 C 1187.914062 312.53125 1187.914062 312.53125 1192.296875 313.621094 C 1205.414062 317.578125 1219.457031 325.039062 1229.816406 334.085938 L 1229.816406 336.789062 L 1233.875 338.144531 L 1233.875 340.847656 L 1237.679688 341.949219 C 1241.949219 343.535156 1243.0625 344.453125 1246.046875 347.609375 C 1247.730469 349.054688 1249.421875 350.492188 1251.117188 351.921875 C 1256.75 356.835938 1261.582031 362.144531 1266.335938 367.898438 L 1268.949219 371.023438 C 1279.585938 383.984375 1288.21875 397.273438 1295.023438 412.585938 C 1297.035156 417.089844 1299.042969 421.023438 1301.796875 425.152344 C 1304.203125 428.765625 1304.203125 428.765625 1304.542969 432.652344 L 1304.203125 435.527344 L 1306.910156 435.527344 L 1307.417969 439.246094 C 1308.027344 443.5 1308.027344 443.5 1309.699219 446.515625 C 1310.96875 449.054688 1310.96875 449.054688 1310.96875 454.464844 L 1313.671875 455.816406 L 1312.320312 461.226562 L 1315.023438 462.578125 C 1316.039062 467.230469 1316.039062 467.230469 1316.375 472.046875 L 1313.671875 474.753906 L 1312.820312 471.265625 C 1307.054688 448.589844 1299.605469 427.453125 1287.972656 407.125 C 1286.621094 404.535156 1285.265625 401.941406 1283.917969 399.347656 C 1277.34375 387.390625 1269.027344 377.019531 1259.792969 367.023438 C 1257.082031 364.074219 1254.472656 361.0625 1251.878906 358.007812 C 1247.175781 352.621094 1242.34375 348.03125 1236.109375 344.421875 C 1232.175781 341.984375 1228.847656 339.210938 1225.335938 336.199219 C 1219.402344 331.261719 1213.886719 327.683594 1206.824219 324.617188 L 1206.824219 321.910156 L 1204.636719 321.214844 C 1196.65625 318.617188 1188.886719 315.636719 1181.125 312.445312 Z M 1144.609375 700.632812 L 1148.667969 700.632812 C 1143.753906 714.386719 1132.726562 725.257812 1122.96875 735.796875 C 1121.738281 737.179688 1120.511719 738.5625 1119.285156 739.949219 L 1117.433594 742.039062 C 1115.699219 743.988281 1113.96875 745.941406 1112.238281 747.898438 L 1109.445312 750.675781 L 1106.738281 750.675781 L 1105.957031 752.953125 C 1103.191406 757.457031 1099.179688 759.988281 1094.90625 762.933594 L 1092.410156 764.710938 C 1087.449219 768.195312 1082.441406 771.003906 1076.984375 773.671875 C 1075.402344 774.753906 1073.847656 775.875 1072.335938 777.050781 C 1069.136719 779.417969 1066.140625 781.152344 1062.445312 782.628906 C 1058.570312 784.269531 1056.585938 785.34375 1053.992188 788.546875 L 1049.933594 787.195312 C 1054.898438 781.808594 1059.855469 778.210938 1066.25 774.683594 L 1068.753906 773.246094 C 1072.832031 770.957031 1076.523438 769.355469 1081.042969 768.257812 C 1083.324219 766.035156 1085.578125 763.78125 1087.804688 761.496094 C 1089.585938 760.550781 1091.386719 759.648438 1093.214844 758.792969 L 1094.566406 756.085938 L 1098.625 756.085938 L 1098.625 753.382812 C 1100.851562 751.542969 1103.105469 749.738281 1105.386719 747.972656 C 1118.589844 735.5 1130.472656 721.15625 1140.550781 706.042969 L 1143.257812 706.042969 Z M 251.960938 814.246094 L 262.78125 819.65625 L 262.78125 822.363281 C 263.542969 822.714844 264.308594 823.066406 265.09375 823.429688 C 268.480469 825.222656 271.375 827.339844 274.445312 829.632812 C 281.128906 834.335938 287.550781 837.28125 295.238281 839.945312 L 300.871094 841.933594 C 303.882812 842.996094 306.890625 844.054688 309.910156 845.09375 C 314.367188 846.640625 318.671875 848.257812 322.992188 850.167969 C 327.179688 851.90625 331.234375 853.125 335.644531 854.152344 C 338.703125 854.867188 341.734375 855.660156 344.769531 856.472656 L 348.011719 857.332031 C 350.1875 857.914062 352.367188 858.496094 354.542969 859.078125 C 360.882812 860.757812 367.21875 862.273438 373.652344 863.554688 C 376.613281 864.351562 379.105469 865.542969 381.800781 866.996094 L 380.445312 868.351562 C 374.578125 868.867188 369.820312 867.257812 364.21875 865.644531 C 362.359375 865.386719 360.5 865.160156 358.636719 864.96875 C 353.953125 864.363281 350.933594 863.339844 346.632812 861.585938 C 344.359375 860.964844 342.078125 860.375 339.789062 859.8125 C 332.785156 857.957031 326.359375 855.335938 319.722656 852.460938 C 315.441406 850.730469 311.164062 849.367188 306.734375 848.0625 C 292.410156 843.707031 280.527344 838.175781 268.105469 829.800781 L 264.6875 827.515625 C 260.050781 824.300781 256.515625 821.714844 253.230469 817.078125 Z M 554.917969 1026.601562 C 560.660156 1028.75 564.011719 1033.101562 567.9375 1037.589844 C 574.765625 1045.171875 581.804688 1051.699219 590.085938 1057.710938 L 594.074219 1060.6875 C 609.949219 1072.171875 627.339844 1080.300781 645.535156 1087.464844 L 648.320312 1088.632812 C 656.578125 1091.980469 665.25 1093.714844 673.9375 1095.582031 L 673.9375 1098.285156 C 671.882812 1098.128906 669.824219 1097.957031 667.769531 1097.777344 C 666.625 1097.683594 665.476562 1097.589844 664.296875 1097.496094 C 654.238281 1096.042969 645.316406 1092.023438 636.070312 1087.972656 L 631.917969 1086.15625 C 602.179688 1072.996094 602.179688 1072.996094 594.140625 1064.472656 C 591.257812 1062.800781 591.257812 1062.800781 588.730469 1061.765625 L 588.730469 1059.0625 L 585.941406 1058.300781 C 581.289062 1056.023438 578.597656 1053.214844 575.066406 1049.488281 C 572.480469 1046.867188 569.765625 1044.574219 566.921875 1042.238281 C 561.628906 1037.707031 558.210938 1032.699219 554.917969 1026.601562 M 600.90625 505.863281 L 604.960938 507.214844 C 602.871094 511.691406 600.304688 515.644531 597.523438 519.726562 C 584.472656 539.164062 571.824219 559.121094 561.683594 580.253906 L 557.625 580.253906 C 558.160156 578.046875 558.730469 575.851562 559.316406 573.660156 L 560.265625 569.949219 L 561.683594 566.726562 L 564.449219 565.449219 L 567.09375 564.023438 C 567.621094 561.332031 568.058594 558.621094 568.445312 555.90625 C 570.410156 552.285156 570.410156 552.285156 572.839844 548.722656 C 575.773438 544.316406 578.535156 539.984375 580.953125 535.28125 C 585.28125 527.257812 590.949219 520.117188 596.402344 512.839844 C 599.453125 508.953125 599.453125 508.953125 600.90625 505.863281 M 667.175781 440.9375 L 669.882812 442.289062 L 668.53125 446.347656 C 665.820312 448.53125 665.820312 448.53125 662.359375 450.828125 L 658.648438 453.355469 L 655.003906 455.816406 C 648.066406 460.582031 642.503906 465.515625 637.105469 471.984375 C 634.746094 474.71875 632.257812 477.167969 629.644531 479.65625 C 623.851562 485.324219 618.996094 491.632812 614.117188 498.085938 C 611.246094 501.851562 608.9375 504.5625 604.960938 507.214844 C 604.960938 501.804688 604.960938 501.804688 607.246094 497.832031 C 610.296875 493.785156 613.515625 490.460938 617.132812 486.925781 C 618.726562 485.132812 620.300781 483.328125 621.867188 481.515625 C 625.527344 477.292969 629.359375 473.238281 633.363281 469.34375 L 636.578125 466.046875 C 644.960938 457.863281 644.960938 457.863281 649.59375 454.464844 L 652.300781 454.464844 L 652.300781 451.757812 C 654.523438 449.71875 654.523438 449.71875 657.457031 447.53125 L 660.355469 445.324219 L 663.121094 443.644531 L 667.175781 443.644531 Z M 887.632812 553.203125 L 890.339844 554.554688 C 892.164062 558.523438 893.449219 562.464844 894.398438 566.726562 L 897.101562 566.726562 L 897.101562 569.433594 L 899.808594 570.785156 L 902.511719 578.898438 C 903.773438 581.089844 905.035156 583.277344 906.304688 585.460938 C 909.613281 591.410156 912.445312 597.605469 915.359375 603.753906 L 917.300781 607.8125 C 924.304688 622.523438 930.71875 636.996094 935.292969 652.644531 C 936.773438 657.460938 938.558594 662.125 940.382812 666.816406 L 937.675781 668.167969 L 936.082031 663.640625 C 927.339844 639.1875 917.101562 615.421875 905.195312 592.339844 C 903.765625 589.511719 902.359375 586.675781 900.980469 583.824219 L 899.527344 580.855469 C 898.617188 578.996094 897.714844 577.132812 896.816406 575.265625 C 894.253906 570.0625 891.300781 565.785156 887.632812 561.316406 C 886.535156 557.597656 886.535156 557.597656 886.28125 554.554688 Z M 490 814.246094 L 492.703125 814.246094 L 492.808594 817.964844 C 492.9375 822.550781 493.070312 827.132812 493.207031 831.714844 C 493.265625 833.695312 493.324219 835.671875 493.375 837.652344 C 493.457031 840.503906 493.542969 843.359375 493.628906 846.210938 L 493.777344 851.40625 C 494.035156 855.800781 494.65625 859.960938 495.410156 864.292969 L 495.410156 873.761719 L 496.171875 878.242188 L 496.761719 881.875 L 495.410156 884.582031 L 491.351562 883.226562 L 491.4375 878.578125 L 491.351562 873.761719 L 490 872.40625 C 489.945312 869.703125 489.941406 866.996094 490 864.292969 L 492.703125 864.292969 L 490 861.585938 C 489.507812 859.792969 489.058594 857.988281 488.648438 856.175781 L 487.292969 854.824219 C 486.949219 850.074219 487.042969 845.300781 487.042969 840.539062 L 486.988281 836.53125 C 486.976562 828.613281 487.71875 821.832031 490 814.246094 M 1136.496094 610.007812 L 1139.199219 610.007812 C 1141.734375 613.023438 1141.734375 613.023438 1144.609375 617.027344 L 1147.484375 620.972656 C 1149.761719 624.488281 1151.34375 627.710938 1152.722656 631.648438 L 1157.996094 630.832031 C 1165.019531 630.058594 1171.070312 631.03125 1177.914062 632.582031 L 1181.222656 633.242188 C 1188.441406 634.808594 1193.773438 637.277344 1200.0625 641.117188 L 1205.132812 642.554688 C 1209.53125 643.824219 1209.53125 643.824219 1212.152344 645.851562 L 1213.585938 647.882812 L 1213.585938 650.585938 L 1201.414062 646.527344 L 1201.414062 643.824219 L 1198.613281 643.3125 C 1194.125 642.359375 1189.761719 641.128906 1185.351562 639.851562 L 1180.546875 638.460938 C 1177.253906 637.503906 1173.96875 636.53125 1170.6875 635.535156 C 1166.222656 634.144531 1166.222656 634.144531 1161.347656 634.355469 C 1156.78125 634.355469 1156.78125 634.355469 1153.316406 633.679688 C 1148.148438 630.496094 1145.273438 625.792969 1141.90625 620.828125 L 1140.1875 618.410156 C 1138.894531 616.554688 1137.683594 614.636719 1136.496094 612.714844 Z M 810.542969 455.816406 L 814.597656 457.167969 C 816.445312 459.390625 818.246094 461.644531 820.007812 463.933594 C 822.234375 466.214844 824.488281 468.46875 826.773438 470.695312 C 833.535156 477.457031 833.535156 477.457031 835.730469 479.742188 C 837.824219 481.839844 837.824219 481.839844 841.648438 484.21875 C 843.296875 486.527344 843.296875 486.527344 845.03125 489.378906 C 848.6875 495.054688 852.792969 500.09375 857.203125 505.183594 C 872.585938 523.050781 872.585938 523.050781 875.460938 534.265625 C 870.695312 529.738281 866.964844 525.214844 863.375 519.726562 C 848.96875 498.316406 831.300781 478.683594 812.679688 460.878906 L 810.542969 458.519531 Z M 554.917969 581.605469 L 558.976562 581.605469 C 557.226562 587.15625 555.148438 592.332031 552.636719 597.582031 C 548.726562 605.898438 545.226562 614.335938 541.882812 622.894531 C 540.882812 625.390625 539.792969 627.847656 538.6875 630.296875 L 535.984375 631.648438 L 533.28125 628.945312 L 535.902344 624.804688 C 538.78125 619.8125 539.574219 615.71875 540.042969 610.007812 L 542.746094 610.007812 L 543.171875 607.050781 C 544.183594 602.894531 545.925781 600.105469 548.15625 596.484375 C 548.621094 594.683594 549.070312 592.882812 549.507812 591.074219 C 553.117188 583.40625 553.117188 583.40625 554.917969 581.605469 M 1076.984375 403.066406 C 1082.425781 408.066406 1086.027344 413.097656 1089.582031 419.550781 L 1091.050781 422.125 C 1094.566406 428.390625 1094.566406 428.390625 1094.566406 431.46875 L 1097.273438 431.46875 C 1099.46875 434.683594 1099.46875 434.683594 1101.328125 438.234375 L 1101.328125 440.9375 L 1104.035156 442.289062 C 1105.273438 444.164062 1106.496094 446.046875 1107.699219 447.945312 C 1110.484375 451.871094 1113.839844 455.273438 1117.164062 458.75 L 1118.910156 461.226562 L 1117.558594 465.285156 L 1116.207031 461.226562 L 1113.5 461.226562 C 1111.21875 458.542969 1108.964844 455.839844 1106.738281 453.109375 L 1104.035156 451.757812 L 1103.019531 448.96875 C 1101.480469 445.355469 1100.007812 443.132812 1097.609375 440.09375 C 1093.414062 434.683594 1090.253906 428.972656 1087.066406 422.925781 C 1084.804688 418.75 1082.296875 414.796875 1079.664062 410.847656 C 1078.230469 408.28125 1077.570312 405.9375 1076.984375 403.066406 M 1154.078125 670.875 C 1161.742188 670.472656 1167.722656 671.808594 1174.957031 674.257812 L 1177.953125 675.234375 C 1180.367188 676.023438 1182.777344 676.828125 1185.183594 677.636719 L 1185.183594 680.34375 L 1187.429688 680.695312 C 1191.601562 682.011719 1194.449219 684.238281 1197.949219 686.851562 L 1201.746094 689.667969 C 1213.394531 698.574219 1213.394531 698.574219 1216.292969 704.6875 L 1214.9375 707.394531 L 1213.585938 703.335938 L 1210.882812 703.335938 C 1209.082031 701.3125 1209.082031 701.3125 1207.078125 698.6875 C 1205 696.070312 1205 696.070312 1202.765625 693.867188 C 1199.105469 692.472656 1199.105469 692.472656 1196.003906 692.515625 L 1195.75 689.980469 L 1194.652344 687.105469 C 1191.722656 685.613281 1191.722656 685.613281 1187.890625 684.398438 C 1186.21875 683.542969 1184.558594 682.667969 1182.902344 681.78125 C 1173.796875 677.171875 1164.191406 674.679688 1154.078125 673.578125 Z M 1315.023438 474.753906 L 1316.375 474.753906 C 1318.140625 480.371094 1319.253906 485.101562 1319.082031 490.984375 L 1320.433594 492.335938 C 1324.675781 519.566406 1327.097656 553.535156 1319.082031 580.253906 L 1317.730469 580.253906 L 1317.976562 577.960938 C 1321.246094 547.972656 1321.246094 547.972656 1319.082031 518.035156 C 1318.695312 513.300781 1318.488281 508.554688 1318.261719 503.808594 C 1318.128906 501.332031 1317.933594 498.863281 1317.730469 496.394531 L 1316.375 495.039062 C 1316.058594 491.636719 1315.804688 488.226562 1315.617188 484.8125 L 1315.441406 481.898438 C 1315.296875 479.515625 1315.15625 477.136719 1315.023438 474.753906 M 499.46875 733.09375 L 503.523438 734.445312 C 502.761719 743.90625 501.328125 753.058594 499.382812 762.34375 L 498.617188 766.066406 C 498.007812 769.050781 497.386719 772.039062 496.761719 775.023438 L 492.703125 773.667969 C 493.191406 768.019531 493.71875 762.640625 495.324219 757.1875 C 497.527344 749.289062 498.410156 741.210938 499.46875 733.09375 M 1186.535156 346.257812 C 1188.910156 346.324219 1188.910156 346.324219 1191.945312 347.609375 C 1193.933594 350.734375 1195.707031 353.976562 1197.273438 357.332031 C 1197.738281 358.292969 1198.207031 359.253906 1198.683594 360.246094 C 1202.996094 369.328125 1206.425781 378.632812 1209.53125 388.1875 L 1205.472656 388.1875 L 1204.136719 384.625 L 1202.34375 379.902344 L 1200.585938 375.242188 C 1198.773438 370.574219 1198.773438 370.574219 1196.453125 366.132812 C 1194.652344 362.488281 1194.652344 362.488281 1194.652344 359.785156 L 1191.945312 359.785156 C 1191.039062 358.039062 1190.136719 356.292969 1189.242188 354.542969 L 1187.71875 351.59375 C 1186.535156 348.964844 1186.535156 348.964844 1186.535156 346.257812 M 947.144531 693.867188 C 949.035156 695.394531 949.035156 695.394531 951.203125 697.925781 C 952.4375 701.683594 952.4375 701.683594 953.398438 705.957031 L 954.382812 710.222656 L 955.257812 714.15625 C 955.984375 717.144531 956.761719 720.117188 957.585938 723.074219 C 960.179688 732.738281 961.507812 742.042969 962.023438 752.027344 L 959.316406 752.027344 L 958.78125 749.246094 C 954.148438 725.242188 954.148438 725.242188 948.089844 701.570312 C 947.144531 697.925781 947.144531 697.925781 947.144531 693.867188 M 103.183594 646.527344 L 105.890625 646.527344 L 106.539062 650.253906 C 108.59375 661.402344 111.539062 672.316406 115.371094 682.984375 C 116.710938 687.105469 116.710938 687.105469 116.710938 691.164062 L 114.003906 691.164062 L 112.652344 683.046875 L 109.945312 683.046875 L 109.945312 676.285156 L 107.242188 676.285156 L 105.890625 661.40625 L 103.183594 661.40625 Z M 220.851562 618.125 C 225.105469 618.082031 229.363281 618.0625 233.617188 618.039062 L 237.21875 618.003906 C 254.671875 617.941406 254.671875 617.941406 260.074219 619.476562 L 262.78125 623.535156 C 257.460938 623.441406 252.140625 623.324219 246.824219 623.179688 C 244.125 623.113281 241.425781 623.066406 238.726562 623.019531 L 233.589844 622.875 L 228.847656 622.765625 L 224.910156 622.183594 C 222.339844 620.109375 222.339844 620.109375 220.851562 618.125 M 192.449219 577.546875 L 195.15625 578.898438 L 195.15625 581.605469 L 197.859375 581.605469 L 198.199219 584.308594 C 199.550781 589.726562 202.03125 594.269531 204.621094 599.1875 C 205.644531 601.15625 206.65625 603.128906 207.664062 605.105469 L 209.039062 607.757812 C 210.03125 610.007812 210.03125 610.007812 210.03125 612.714844 L 212.566406 613.898438 C 215.441406 615.417969 215.441406 615.417969 218.148438 618.125 L 214.089844 619.476562 C 210.234375 617.484375 208.582031 615.265625 206.230469 611.617188 C 205.222656 609.738281 204.234375 607.851562 203.269531 605.953125 L 200.917969 601.359375 C 192.75 585.253906 192.75 585.253906 191.097656 580.253906 Z M 764.558594 427.414062 C 766.417969 427.996094 768.277344 428.585938 770.136719 429.1875 L 773.273438 430.1875 C 780.773438 432.972656 787.277344 436.960938 793.804688 441.53125 L 796.097656 443.097656 C 800.429688 446.105469 804.238281 449.257812 807.835938 453.109375 L 805.132812 454.464844 L 801.015625 451.496094 C 790.703125 444.167969 780.90625 437.859375 769.125 433.117188 L 765.910156 431.46875 Z M 1068.871094 443.644531 L 1072.925781 444.996094 C 1074.042969 448.8125 1074.972656 452.671875 1075.71875 456.578125 C 1076.15625 458.71875 1076.59375 460.863281 1077.03125 463.007812 L 1077.671875 466.1875 C 1078.660156 470.882812 1079.84375 475.515625 1081.042969 480.164062 L 1076.984375 480.164062 C 1076.296875 478.050781 1075.621094 475.941406 1074.957031 473.824219 L 1073.8125 470.257812 C 1072.929688 466.644531 1072.765625 463.574219 1072.925781 459.875 L 1070.222656 459.875 C 1068.425781 454.488281 1068.773438 449.257812 1068.871094 443.644531 M 526.515625 988.726562 C 528.996094 989.039062 528.996094 989.039062 531.925781 990.082031 C 533.804688 992.601562 533.804688 992.601562 535.5625 995.914062 C 539.667969 1003.207031 544.496094 1009.742188 549.574219 1016.367188 C 551.433594 1018.820312 553.214844 1021.328125 554.917969 1023.894531 L 550.863281 1025.246094 C 543.164062 1015.488281 543.164062 1015.488281 541.226562 1010.539062 L 540.042969 1007.664062 L 537.453125 1006.511719 L 534.632812 1004.960938 C 532.917969 1002.125 532.917969 1002.125 531.589844 998.871094 L 530.214844 995.617188 C 529.222656 992.785156 529.222656 992.785156 529.222656 990.082031 Z M 97.773438 597.835938 L 99.125 600.542969 L 101.832031 600.542969 L 101.785156 603.652344 L 101.746094 607.726562 L 101.699219 611.769531 C 101.664062 615.554688 101.664062 615.554688 103.183594 619.476562 C 103.277344 621.8125 103.300781 624.15625 103.269531 626.496094 L 103.230469 630.1875 L 103.183594 633.003906 L 100.480469 633.003906 L 100.277344 630.53125 L 99.972656 627.253906 C 99.878906 626.1875 99.78125 625.121094 99.6875 624.023438 C 99.28125 620.800781 99.28125 620.800781 97.738281 618.058594 C 95.960938 614.496094 96.140625 611.1875 96.238281 607.265625 C 96.460938 604.042969 96.992188 600.972656 97.773438 597.835938 M 165.398438 432.824219 L 170.808594 432.824219 C 169.878906 435.949219 169.878906 435.949219 168.105469 439.585938 C 164.722656 442.039062 164.722656 442.039062 161.34375 443.644531 L 158.636719 443.644531 L 157.707031 446.601562 C 155.597656 451.125 152.816406 453.808594 149.167969 457.167969 L 146.464844 453.109375 L 150.523438 451.757812 C 151.46875 449.976562 152.371094 448.175781 153.226562 446.347656 C 155.933594 442.628906 155.933594 442.628906 158.636719 439.585938 L 161.34375 439.585938 L 161.34375 436.878906 C 163.03125 434.683594 163.03125 434.683594 165.398438 432.824219 M 182.980469 532.914062 L 185.6875 534.265625 C 186.488281 537.289062 186.488281 537.289062 187.132812 541.261719 L 187.847656 545.59375 L 188.5625 550.15625 L 189.304688 554.660156 C 190.328125 561.007812 191.25 567.046875 191.097656 573.488281 L 193.800781 573.488281 L 192.449219 577.546875 C 189.347656 574.449219 188.863281 572.6875 187.714844 568.503906 C 184.730469 557.03125 182.6875 544.792969 182.980469 532.914062 M 500.820312 919.746094 L 504.875 921.101562 C 505.59375 923.699219 506.292969 926.308594 506.851562 928.945312 C 507.566406 931.855469 508.539062 934.359375 509.78125 937.078125 C 511.640625 941.386719 511.640625 941.386719 511.640625 945.445312 L 507.582031 945.445312 L 503.523438 930.566406 L 500.820312 930.566406 Z M 1213.585938 650.585938 C 1219.738281 652.34375 1224.960938 654.519531 1229.816406 658.703125 C 1234.019531 663.089844 1238.03125 667.617188 1241.988281 672.226562 L 1239.285156 674.933594 L 1237.5 672.804688 C 1231.539062 665.824219 1225.828125 659.824219 1217.898438 655.066406 L 1214.9375 653.292969 Z M 393.355469 866.695312 L 397.753906 867.449219 L 402.339844 868.265625 L 406.976562 869.066406 C 410.757812 869.722656 414.539062 870.382812 418.316406 871.054688 C 416.070312 872.445312 416.070312 872.445312 412.90625 873.761719 C 409.4375 873.695312 409.4375 873.695312 405.574219 873.136719 C 404.1875 872.945312 402.800781 872.753906 401.375 872.554688 L 397.015625 871.898438 L 392.59375 871.277344 C 388.992188 870.765625 385.394531 870.242188 381.800781 869.703125 L 381.800781 866.996094 C 386.425781 865.457031 388.597656 865.863281 393.355469 866.695312 " fill-opacity="1" fill-rule="nonzero"/><path fill="#a62821" d="M 1154.078125 674.933594 L 1156.78125 674.933594 C 1156.167969 677.949219 1155.550781 680.964844 1154.921875 683.976562 L 1153.875 689.066406 C 1152.894531 693.15625 1151.707031 696.792969 1150.019531 700.632812 L 1145.960938 699.277344 L 1146.753906 696.652344 L 1147.820312 693.109375 L 1148.941406 689.390625 C 1149.839844 686.355469 1150.703125 683.3125 1151.539062 680.257812 C 1152.722656 676.285156 1152.722656 676.285156 1154.078125 674.933594 " fill-opacity="1" fill-rule="nonzero"/><path fill="#a42720" d="M 195.15625 409.828125 L 197.859375 409.828125 C 196.140625 414.984375 193.753906 416.988281 189.746094 420.648438 C 186.664062 423.191406 183.679688 425.269531 180.277344 427.414062 L 176.21875 426.058594 C 182.757812 417.703125 182.757812 417.703125 188.390625 415.238281 L 191.941406 412.363281 Z M 514.34375 961.675781 L 518.402344 961.675781 L 525.375 976.257812 L 526.855469 979.375 L 528.230469 982.253906 C 529.222656 984.671875 529.222656 984.671875 529.222656 987.375 C 526.738281 987.277344 526.738281 987.277344 523.8125 986.023438 C 521.898438 981.9375 521.898438 981.9375 520.261719 976.808594 C 517.78125 969.042969 517.78125 969.042969 514.34375 961.675781 M 1078.335938 481.515625 L 1082.394531 481.515625 L 1093.214844 505.863281 L 1087.804688 507.214844 L 1087.105469 504.683594 C 1084.832031 496.714844 1081.910156 488.992188 1078.335938 481.515625 M 276.304688 623.535156 C 283.195312 624.195312 288.027344 626.652344 293.71875 630.382812 L 296.148438 631.925781 C 298.105469 633.175781 300.054688 634.441406 302 635.707031 L 300.648438 638.414062 L 276.304688 626.238281 Z M 734.800781 420.648438 C 754.792969 423.007812 754.792969 423.007812 763.203125 427.414062 C 760.230469 428.355469 758.066406 428.796875 754.945312 428.421875 L 751.941406 427.714844 L 748.664062 426.960938 L 745.285156 426.144531 L 741.839844 425.34375 C 739.039062 424.691406 736.242188 424.023438 733.449219 423.355469 Z M 530.574219 631.648438 L 535.984375 631.648438 C 535.011719 637.882812 532.855469 643.378906 530.574219 649.234375 L 526.515625 647.882812 C 527.328125 642.207031 528.648438 637.046875 530.574219 631.648438 M 136.996094 465.285156 L 142.40625 466.636719 C 140.535156 470.515625 138.457031 474.15625 136.152344 477.796875 L 134.324219 480.691406 L 132.9375 482.867188 L 128.882812 481.515625 L 128.882812 478.808594 L 131.585938 478.808594 L 132.011719 475.851562 C 133.019531 471.714844 134.671875 468.824219 136.996094 465.285156 " fill-opacity="1" fill-rule="nonzero"/><path fill="#a92922" d="M 145.113281 397.65625 L 147.816406 400.359375 C 142.929688 406.527344 138.367188 411.203125 131.585938 415.238281 L 128.882812 413.886719 Z M 145.113281 397.65625 " fill-opacity="1" fill-rule="nonzero"/><path fill="#a42720" d="M 504.875 712.804688 L 508.933594 712.804688 L 508.390625 715.476562 C 507.113281 721.785156 505.878906 728.085938 504.875 734.445312 L 502.171875 733.09375 C 501.074219 730.386719 501.074219 730.386719 500.820312 726.328125 C 501.691406 723.042969 502.765625 719.902344 503.941406 716.714844 C 504.953125 714.398438 504.953125 714.398438 504.875 712.804688 M 297.945312 761.496094 L 299.296875 764.203125 L 294.816406 765.300781 C 290.019531 766.507812 290.019531 766.507812 287.460938 768.851562 L 285.773438 770.964844 L 281.714844 775.023438 L 280.363281 772.316406 C 284.945312 764.789062 284.945312 764.789062 288.394531 762.34375 C 291.6875 761.34375 294.519531 761.304688 297.945312 761.496094 M 215.441406 833.183594 C 220.539062 834.882812 222.617188 837.382812 226.261719 841.296875 C 228.070312 843.546875 229.875 845.800781 231.671875 848.0625 C 233.445312 849.894531 235.25 851.695312 237.082031 853.472656 L 233.023438 853.472656 C 230.949219 851.898438 230.949219 851.898438 228.78125 849.722656 L 226.417969 847.355469 L 223.980469 844.847656 L 221.496094 842.375 C 217.03125 837.855469 217.03125 837.855469 215.441406 835.886719 Z M 939.03125 668.167969 L 941.734375 669.523438 C 942.789062 672.28125 942.789062 672.28125 943.761719 675.777344 L 944.804688 679.457031 L 945.792969 683.046875 C 946.324219 684.90625 946.859375 686.769531 947.398438 688.628906 L 948.496094 692.515625 L 945.792969 693.867188 C 939.828125 676.980469 939.828125 676.980469 939.03125 668.167969 M 1218.996094 450.40625 L 1221.703125 450.40625 C 1222.761719 453.796875 1223.171875 456.515625 1222.542969 460.027344 C 1221.851562 462.691406 1221.121094 465.347656 1220.347656 467.988281 L 1217.644531 466.636719 C 1216.628906 463.761719 1216.628906 463.761719 1216.292969 459.875 C 1217.558594 454.71875 1217.558594 454.71875 1218.996094 450.40625 " fill-opacity="1" fill-rule="nonzero"/><path fill="#a72821" d="M 1214.9375 465.285156 L 1216.292969 467.988281 L 1218.996094 467.988281 L 1220.347656 478.808594 L 1214.9375 480.164062 Z M 1214.9375 465.285156 " fill-opacity="1" fill-rule="nonzero"/><path fill="#a42720" d="M 128.882812 482.867188 L 131.585938 482.867188 C 131.054688 486.703125 130.367188 489.410156 128.375 492.757812 L 126.175781 495.039062 L 122.121094 495.039062 C 124.148438 490.828125 126.289062 486.761719 128.882812 482.867188 M 724.234375 421.242188 L 726.6875 422.003906 L 723.980469 424.707031 C 720.167969 425.5625 720.167969 425.5625 715.699219 426.230469 L 711.207031 426.914062 L 707.75 427.414062 L 707.75 424.707031 L 712.234375 423.441406 C 721.652344 420.726562 721.652344 420.726562 724.234375 421.242188 " fill-opacity="1" fill-rule="nonzero"/><path fill="#a62721" d="M 1118.910156 466.636719 C 1123.492188 468.601562 1126.285156 471.195312 1129.730469 474.753906 L 1133.789062 477.457031 C 1131.085938 478.808594 1131.085938 478.808594 1128.632812 478.726562 C 1125.425781 477.351562 1124.203125 476.097656 1121.953125 473.484375 L 1118.910156 469.34375 Z M 1118.910156 466.636719 " fill-opacity="1" fill-rule="nonzero"/><path fill="#a42720" d="M 1214.9375 772.316406 L 1217.644531 772.316406 C 1216.097656 776.253906 1214.667969 777.957031 1211.390625 780.769531 L 1208.175781 783.136719 L 1205.472656 781.785156 L 1205.472656 779.082031 C 1207.695312 777.679688 1209.949219 776.324219 1212.234375 775.023438 Z M 499.46875 1069.882812 L 511.640625 1077.996094 L 510.285156 1083.40625 C 508.476562 1081.667969 506.671875 1079.921875 504.875 1078.167969 L 501.832031 1075.21875 L 499.46875 1072.585938 Z M 499.46875 1069.882812 " fill-opacity="1" fill-rule="nonzero"/><path fill="#a92923" d="M 1099.976562 695.222656 L 1102.683594 695.222656 L 1102.683594 697.925781 L 1098.625 699.277344 Z M 1097.273438 699.277344 L 1098.625 703.335938 L 1091.863281 708.746094 L 1089.15625 707.394531 Z M 1097.273438 699.277344 " fill-opacity="1" fill-rule="nonzero"/><path fill="#a42720" d="M 100.480469 573.488281 L 103.183594 573.488281 L 103.183594 584.308594 L 99.125 585.664062 Z M 116.710938 501.804688 L 120.765625 503.15625 L 118.0625 513.976562 L 114.003906 512.625 Z M 114.003906 430.117188 L 115.355469 430.117188 C 115.78125 433.160156 115.78125 433.160156 115.355469 436.878906 C 111.976562 440.007812 111.976562 440.007812 108.59375 442.289062 L 108.59375 438.234375 C 111.214844 433.921875 111.214844 433.921875 114.003906 430.117188 M 510.285156 946.796875 L 512.992188 946.796875 L 514.34375 957.621094 L 510.285156 956.265625 C 509.773438 953.570312 509.320312 950.867188 508.933594 948.152344 Z M 687.464844 432.824219 L 687.464844 435.527344 C 683.660156 437.640625 683.660156 437.640625 679.347656 439.585938 L 675.292969 438.234375 C 682.347656 432.824219 682.347656 432.824219 687.464844 432.824219 " fill-opacity="1" fill-rule="nonzero"/><path fill="#ab2a24" d="M 594.140625 411.179688 L 596.847656 412.535156 L 596.847656 415.238281 C 594.636719 417.097656 592.382812 418.902344 590.085938 420.648438 L 587.378906 423.355469 C 587.71875 420.3125 587.71875 420.3125 588.730469 416.59375 C 591.523438 413.464844 591.523438 413.464844 594.140625 411.179688 " fill-opacity="1" fill-rule="nonzero"/><path fill="#a42720" d="M 352.042969 900.8125 L 362.863281 903.515625 L 362.863281 906.222656 L 350.691406 904.867188 Z M 496.761719 899.457031 L 499.46875 899.457031 L 500.820312 910.277344 L 495.410156 910.277344 Z M 510.285156 697.925781 L 512.992188 697.925781 L 511.640625 706.042969 L 506.230469 706.042969 C 508.765625 699.449219 508.765625 699.449219 510.285156 697.925781 M 101.832031 634.355469 L 104.535156 634.355469 L 104.535156 645.175781 L 101.832031 645.175781 C 101.316406 642.027344 100.867188 638.871094 100.480469 635.707031 Z M 101.832031 634.355469 " fill-opacity="1" fill-rule="nonzero"/><path fill="#ab2a23" d="M 575.207031 431.46875 L 579.265625 432.824219 C 577.53125 435.132812 575.726562 437.386719 573.855469 439.585938 L 571.148438 439.585938 C 571.65625 437.050781 571.65625 437.050781 572.5 434.175781 Z M 575.207031 431.46875 " fill-opacity="1" fill-rule="nonzero"/><path fill="#a42720" d="M 1231.167969 756.085938 L 1233.875 756.085938 C 1232.425781 759.589844 1231.261719 761.421875 1228.296875 763.863281 L 1225.757812 765.554688 L 1225.757812 761.496094 C 1228.296875 758.539062 1228.296875 758.539062 1231.167969 756.085938 M 699.636719 427.414062 L 699.636719 430.117188 L 690.167969 432.824219 L 690.167969 428.765625 C 694.226562 427.414062 694.226562 427.414062 699.636719 427.414062 M 1171.660156 317.855469 C 1174.28125 318.785156 1174.28125 318.785156 1177.070312 320.558594 C 1178.082031 324.109375 1178.082031 324.109375 1178.421875 327.324219 L 1174.363281 325.96875 C 1172.757812 321.828125 1172.757812 321.828125 1171.660156 317.855469 " fill-opacity="1" fill-rule="nonzero"/><path fill="#a52720" d="M 1135.140625 478.808594 C 1139.042969 480.558594 1141.730469 482.40625 1144.609375 485.574219 L 1143.257812 489.628906 C 1136.664062 483.375 1136.664062 483.375 1135.140625 478.808594 " fill-opacity="1" fill-rule="nonzero"/></svg>